{"glyphs":{"0":{"ha":806,"x_min":63,"x_max":778,"o":"m 482 994 q 600 969 546 994 q 694 894 654 944 q 756 768 733 844 q 778 592 778 693 q 744 326 778 439 q 652 138 710 213 q 518 26 594 63 q 358 -10 442 -10 q 240 15 294 -10 q 147 90 186 40 q 85 215 107 140 q 63 391 63 290 q 97 657 63 544 q 189 845 131 771 q 323 957 247 920 q 482 994 399 994 m 367 44 q 498 77 435 44 q 607 177 560 110 q 683 348 655 245 q 711 592 711 451 q 693 748 711 682 q 642 856 674 814 q 567 919 610 899 q 474 940 524 940 q 343 907 406 940 q 233 806 281 874 q 157 635 185 738 q 129 392 129 532 q 148 236 129 301 q 198 127 166 170 q 274 64 231 85 q 367 44 317 44 z "},"1":{"ha":806,"x_min":174,"x_max":685,"o":"m 179 50 l 406 50 l 505 856 l 515 904 l 270 707 q 253 701 262 701 q 236 709 241 701 l 221 736 l 534 987 l 585 987 l 470 50 l 685 50 l 679 0 l 174 0 l 179 50 z "},"2":{"ha":806,"x_min":49,"x_max":748,"o":"m 497 994 q 594 979 549 994 q 674 936 640 965 q 728 864 708 907 q 748 763 748 820 q 727 648 748 700 q 672 548 707 595 q 590 457 637 501 q 491 365 543 413 l 142 49 q 189 57 164 54 q 238 60 213 60 l 665 60 q 686 37 686 60 l 681 0 l 49 0 l 51 23 q 57 38 52 31 q 67 51 61 46 l 446 392 q 541 481 498 438 q 616 567 585 524 q 665 656 647 610 q 682 756 682 702 q 666 837 682 803 q 624 894 651 872 q 562 928 597 917 q 487 939 526 939 q 399 925 440 939 q 325 886 358 912 q 268 825 292 861 q 230 746 244 790 q 218 728 226 733 q 201 723 210 723 q 193 724 196 723 l 161 728 q 209 840 177 791 q 285 924 241 890 q 382 976 328 958 q 497 994 436 994 z "},"3":{"ha":806,"x_min":78,"x_max":753,"o":"m 506 994 q 603 980 558 994 q 681 938 648 965 q 734 869 715 910 q 753 776 753 828 q 735 676 753 720 q 687 600 717 633 q 615 545 656 567 q 527 513 574 524 q 611 484 575 503 q 671 438 647 465 q 707 375 695 410 q 719 300 719 340 q 691 176 719 233 q 615 78 663 119 q 503 13 567 36 q 367 -11 440 -11 q 250 5 300 -11 q 164 53 199 21 q 108 132 128 85 q 78 240 87 178 l 107 250 q 120 252 113 252 q 134 249 128 252 q 142 238 141 245 q 169 152 152 188 q 214 92 187 116 q 281 56 242 67 q 374 44 319 44 q 493 67 441 44 q 582 127 546 90 q 636 208 617 163 q 655 298 655 253 q 642 370 655 336 q 600 428 630 403 q 520 467 570 453 q 394 481 470 481 l 401 527 q 522 547 468 529 q 612 594 575 564 q 669 668 649 625 q 688 764 688 711 q 673 841 688 808 q 632 896 658 874 q 571 928 606 918 q 497 939 536 939 q 408 925 449 939 q 334 887 367 912 q 276 826 301 862 q 238 746 252 790 q 227 728 235 733 q 210 723 220 723 q 203 724 206 723 l 171 728 q 218 840 187 791 q 294 924 250 890 q 392 976 338 958 q 506 994 446 994 z "},"4":{"ha":806,"x_min":43,"x_max":776,"o":"m 596 334 l 776 334 l 772 299 q 766 287 771 292 q 751 283 761 283 l 590 283 l 556 0 l 497 0 l 532 283 l 70 283 q 53 287 60 283 q 45 299 47 292 l 43 331 l 617 984 l 676 984 l 596 334 m 601 852 q 611 901 603 874 l 115 334 l 538 334 l 601 852 z "},"5":{"ha":806,"x_min":72,"x_max":750,"o":"m 746 955 q 734 932 744 941 q 705 924 725 924 l 348 924 l 247 593 q 412 615 338 615 q 537 596 483 615 q 627 543 591 577 q 680 463 663 510 q 698 361 698 417 q 666 205 698 274 q 582 88 635 136 q 459 15 528 40 q 315 -11 390 -11 q 238 -4 274 -11 q 172 15 202 3 q 116 43 141 27 q 72 76 90 58 l 94 103 q 114 113 102 113 q 139 102 123 113 q 179 79 154 92 q 240 56 204 66 q 324 45 276 45 q 443 66 388 45 q 541 127 499 88 q 608 224 583 167 q 632 354 632 281 q 618 438 632 400 q 575 503 604 476 q 501 545 546 530 q 395 560 456 560 q 218 535 319 560 l 179 548 l 309 983 l 750 983 l 746 955 z "},"6":{"ha":806,"x_min":88,"x_max":724,"o":"m 465 587 q 571 568 524 587 q 653 517 619 550 q 706 436 687 483 q 724 333 724 390 q 696 194 724 258 q 619 86 668 131 q 503 15 570 40 q 360 -11 437 -11 q 248 8 298 -11 q 162 63 197 27 q 107 150 126 99 q 88 265 88 201 q 98 345 88 306 q 127 425 107 384 q 178 511 147 467 q 253 605 210 555 l 567 967 q 582 978 573 974 q 602 983 591 983 l 658 983 l 319 599 q 271 544 292 570 q 231 494 249 518 q 338 562 277 538 q 465 587 398 587 m 149 263 q 164 175 149 215 q 206 105 178 135 q 274 59 234 76 q 365 42 314 42 q 485 64 431 42 q 578 122 539 85 q 638 211 617 160 q 659 324 659 263 q 644 412 659 372 q 600 479 628 451 q 532 522 572 507 q 442 537 492 537 q 323 513 376 537 q 230 451 269 490 q 170 363 192 413 q 149 263 149 314 z "},"7":{"ha":806,"x_min":159,"x_max":823,"o":"m 823 983 l 820 958 q 816 939 819 949 q 810 924 813 930 l 242 20 q 229 6 237 11 q 209 0 221 0 l 159 0 l 724 892 q 736 908 730 901 q 749 924 742 916 l 181 924 q 168 928 173 924 q 164 940 164 933 l 169 983 l 823 983 z "},"8":{"ha":806,"x_min":71,"x_max":738,"o":"m 360 -11 q 241 6 294 -11 q 150 54 188 23 q 92 130 113 85 q 71 228 71 174 q 90 338 71 290 q 142 422 108 386 q 221 480 175 457 q 320 513 267 502 q 206 589 244 536 q 167 715 167 642 q 190 824 167 773 q 254 913 213 875 q 354 972 296 950 q 483 994 412 994 q 590 976 543 994 q 670 928 638 958 q 720 857 703 898 q 738 770 738 817 q 723 682 738 723 q 682 607 709 640 q 617 549 656 574 q 528 512 578 525 q 604 484 569 502 q 663 438 638 465 q 701 375 688 411 q 715 292 715 338 q 688 165 715 222 q 613 70 660 109 q 500 10 565 31 q 360 -11 435 -11 m 365 40 q 479 58 427 40 q 569 109 531 76 q 627 188 606 142 q 649 292 649 234 q 627 384 649 347 q 573 443 606 421 q 499 475 540 466 q 420 485 458 485 q 357 480 390 485 q 294 463 325 474 q 234 431 263 451 q 185 384 206 412 q 151 319 164 356 q 139 234 139 282 q 155 155 139 190 q 200 94 171 119 q 271 54 229 68 q 365 40 313 40 m 426 537 q 536 557 490 537 q 614 609 583 576 q 659 682 644 641 q 674 766 674 723 q 661 836 674 803 q 624 892 649 868 q 562 930 599 916 q 477 943 525 943 q 374 926 419 943 q 296 878 328 908 q 247 806 264 847 q 229 717 229 765 q 241 649 229 682 q 276 592 252 617 q 338 552 301 567 q 426 537 375 537 z "},"9":{"ha":806,"x_min":161,"x_max":774,"o":"m 409 418 q 308 436 353 418 q 229 485 262 453 q 179 563 197 517 q 161 663 161 608 q 189 794 161 733 q 264 899 216 855 q 376 968 312 943 q 513 994 440 994 q 620 974 572 994 q 702 919 668 955 q 755 835 737 884 q 774 726 774 785 q 763 639 774 678 q 733 561 753 599 q 683 482 713 522 q 615 394 653 442 l 309 15 q 275 0 297 0 l 217 0 l 557 406 q 601 459 579 433 q 642 514 622 485 q 535 443 597 468 q 409 418 474 418 m 712 728 q 697 814 712 774 q 655 881 682 853 q 590 925 628 909 q 506 940 551 940 q 395 920 446 940 q 306 865 344 901 q 248 780 269 829 q 226 670 226 730 q 241 586 226 624 q 282 523 255 549 q 347 483 308 497 q 432 469 385 469 q 548 491 497 469 q 636 550 600 514 q 692 633 673 587 q 712 728 712 680 z "},"\u0000":{"ha":0,"x_min":0,"x_max":0,"o":""},"\r":{"ha":0,"x_min":0,"x_max":0,"o":""}," ":{"ha":268,"x_min":0,"x_max":0,"o":""},"!":{"ha":414,"x_min":113,"x_max":319,"o":"m 319 983 l 271 585 q 263 526 267 554 q 253 470 258 499 q 243 409 249 441 q 230 338 237 377 l 187 338 q 192 409 190 377 q 196 470 194 441 q 201 526 199 499 q 208 585 204 554 l 256 983 l 319 983 m 113 53 q 118 78 113 67 q 132 99 123 90 q 152 113 140 108 q 177 118 163 118 q 202 113 190 118 q 223 99 214 108 q 236 78 231 90 q 242 53 242 67 q 236 28 242 40 q 223 8 231 17 q 202 -6 214 -1 q 177 -10 190 -10 q 132 8 150 -10 q 113 53 113 26 z "},"\"":{"ha":471,"x_min":160,"x_max":436,"o":"m 248 983 l 223 780 l 205 673 q 197 656 202 662 q 180 649 192 649 q 166 656 170 649 q 160 673 162 662 l 167 780 l 194 983 l 248 983 m 436 983 l 411 780 l 393 673 q 385 656 390 662 q 368 649 380 649 q 354 656 358 649 q 349 673 350 662 l 356 780 l 382 983 l 436 983 z "},"#":{"ha":806,"x_min":56,"x_max":790,"o":"m 517 308 l 414 0 l 387 0 q 373 5 378 0 q 367 19 367 10 q 369 30 367 24 l 463 308 l 254 308 l 161 27 q 147 6 156 13 q 126 0 138 0 l 98 0 l 201 308 l 74 308 q 56 324 56 308 q 56 330 56 327 q 57 335 56 332 l 62 356 l 214 356 l 304 627 l 128 627 l 135 653 q 169 674 140 674 l 317 674 l 413 956 q 426 976 417 969 q 447 983 435 983 l 475 983 l 372 674 l 579 674 l 683 983 l 712 983 q 725 978 720 983 q 731 965 731 974 q 728 954 731 960 l 633 674 l 790 674 l 782 649 q 771 633 778 638 q 750 627 764 627 l 620 627 l 530 356 l 687 356 q 706 338 706 356 q 706 333 706 335 q 705 328 706 331 l 699 308 l 517 308 m 267 356 l 476 356 l 567 627 l 358 627 l 267 356 z "},"$":{"ha":806,"x_min":79,"x_max":757,"o":"m 334 -10 q 184 28 245 -6 q 79 117 122 62 l 101 144 q 122 153 108 153 q 136 146 128 153 q 156 127 144 138 q 184 101 167 115 q 223 75 200 88 q 275 55 245 63 q 343 44 304 46 l 420 489 q 339 519 378 503 q 268 560 299 535 q 219 622 238 585 q 200 710 200 658 q 221 815 200 765 q 282 903 242 865 q 378 966 322 942 q 507 992 435 990 l 527 1108 q 535 1124 528 1118 q 550 1130 541 1130 l 574 1130 l 551 992 q 669 961 620 987 q 757 891 719 935 l 740 868 q 721 857 731 857 q 700 868 713 857 q 668 894 688 880 q 617 921 647 908 q 541 938 586 934 l 472 538 q 560 506 517 523 q 637 465 603 490 q 693 404 672 440 q 714 314 714 368 q 690 193 714 250 q 623 91 667 135 q 517 20 579 47 q 377 -10 455 -7 l 352 -158 q 344 -173 351 -167 q 329 -179 338 -179 l 305 -179 l 334 -10 m 651 299 q 635 367 651 339 q 593 414 619 394 q 533 448 567 434 q 461 475 499 463 l 387 44 q 498 69 449 47 q 581 125 547 90 q 633 204 615 159 q 651 299 651 249 m 261 724 q 275 660 261 687 q 312 614 288 633 q 366 579 335 594 q 431 552 397 565 l 498 938 q 395 917 440 935 q 322 869 351 898 q 276 802 292 840 q 261 724 261 765 z "},"%":{"ha":982,"x_min":87,"x_max":928,"o":"m 490 790 q 471 664 490 718 q 421 574 452 610 q 349 519 390 538 q 266 501 309 501 q 200 515 231 501 q 148 553 170 528 q 114 616 126 578 q 102 703 102 654 q 120 829 102 775 q 169 920 138 883 q 240 975 199 956 q 326 993 281 993 q 392 980 362 993 q 443 941 422 967 q 478 877 465 915 q 490 790 490 840 m 439 789 q 430 861 439 831 q 405 911 421 891 q 367 940 389 931 q 321 950 346 950 q 257 936 288 950 q 203 891 226 922 q 166 815 180 861 q 153 703 153 768 q 162 632 153 662 q 186 583 171 602 q 224 554 202 563 q 271 544 246 544 q 334 558 304 544 q 388 602 365 572 q 425 678 411 632 q 439 789 439 724 m 856 970 q 867 979 861 976 q 883 983 873 983 l 928 983 l 158 12 q 133 0 147 0 l 87 0 l 856 970 m 917 276 q 898 151 917 205 q 847 61 878 97 q 776 7 816 25 q 692 -12 735 -12 q 627 1 657 -12 q 575 40 597 15 q 541 103 553 66 q 529 190 529 141 q 547 316 529 262 q 596 407 565 371 q 667 462 626 444 q 753 481 708 481 q 818 467 788 481 q 870 428 848 454 q 904 364 892 402 q 917 276 917 326 m 865 276 q 856 348 865 318 q 831 398 847 378 q 794 427 815 418 q 748 437 773 437 q 684 423 715 437 q 630 378 653 408 q 593 301 607 348 q 579 190 579 255 q 588 119 579 149 q 613 70 597 90 q 651 41 629 51 q 698 32 673 32 q 761 46 731 32 q 815 90 792 60 q 851 166 838 119 q 865 276 865 212 z "},"&":{"ha":885,"x_min":53,"x_max":831,"o":"m 499 994 q 578 980 542 994 q 640 939 614 965 q 680 877 665 913 q 694 797 694 841 l 658 791 q 655 791 656 791 q 652 790 653 790 q 637 807 639 790 q 625 853 634 829 q 600 897 617 877 q 557 930 583 917 q 494 943 531 943 q 416 928 451 943 q 356 886 381 913 q 317 823 331 859 q 303 743 303 786 q 324 646 303 695 q 387 546 346 597 l 632 244 q 689 348 667 294 q 722 451 712 401 q 727 463 723 458 q 740 468 731 468 l 782 468 q 743 334 772 403 q 667 201 714 265 l 831 0 l 778 0 q 751 4 760 0 q 732 20 742 8 l 625 151 q 555 86 592 116 q 475 35 517 56 q 386 1 433 13 q 290 -11 340 -11 q 198 5 241 -11 q 123 50 155 20 q 72 122 91 79 q 53 219 53 165 q 74 327 53 276 q 128 419 94 377 q 209 493 163 461 q 309 546 256 525 q 258 641 275 594 q 242 735 242 687 q 260 838 242 791 q 313 920 279 885 q 394 974 347 955 q 499 994 442 994 m 119 228 q 135 147 119 182 q 177 88 151 112 q 236 53 203 65 q 303 41 269 41 q 386 52 347 41 q 463 84 426 64 q 532 132 499 104 q 592 192 565 160 l 334 512 q 245 461 285 491 q 178 395 206 431 q 135 316 150 358 q 119 228 119 274 z "},"'":{"ha":284,"x_min":160,"x_max":248,"o":"m 248 983 l 223 780 l 205 673 q 197 656 202 662 q 180 649 192 649 q 166 656 170 649 q 160 673 162 662 l 167 780 l 194 983 l 248 983 z "},"(":{"ha":383,"x_min":108,"x_max":406,"o":"m 166 313 q 172 199 166 258 q 189 83 177 141 q 217 -31 200 25 q 258 -137 235 -87 q 260 -149 260 -143 q 257 -159 260 -155 q 249 -166 254 -163 l 219 -183 q 169 -59 190 -122 q 134 66 148 4 q 115 189 121 128 q 108 304 108 249 q 112 421 108 364 q 126 536 115 478 q 154 653 136 594 q 202 776 172 713 q 273 910 231 840 q 372 1059 315 980 l 398 1042 q 406 1029 406 1037 q 399 1013 406 1023 q 298 851 342 930 q 225 688 254 772 q 181 513 196 605 q 166 313 166 421 z "},")":{"ha":383,"x_min":2,"x_max":299,"o":"m 242 563 q 236 676 242 618 q 218 793 230 735 q 190 907 207 851 q 150 1013 173 963 q 147 1024 147 1019 q 150 1035 147 1031 q 158 1042 153 1039 l 188 1059 q 239 934 218 997 q 273 809 260 872 q 293 687 287 747 q 299 572 299 627 q 296 455 299 512 q 282 340 292 397 q 253 223 272 282 q 206 99 235 163 q 135 -34 176 35 q 36 -183 93 -104 l 10 -166 q 2 -153 2 -161 q 8 -137 2 -147 q 110 25 66 -54 q 183 188 153 104 q 227 363 212 271 q 242 563 242 455 z "},"*":{"ha":511,"x_min":117,"x_max":491,"o":"m 261 624 l 280 772 q 284 793 281 784 q 293 813 287 802 q 277 798 285 803 q 259 786 268 792 l 131 710 l 117 740 l 246 816 q 265 825 256 822 q 288 830 274 828 q 266 835 274 832 q 249 844 258 838 l 138 920 l 159 951 l 270 874 q 285 861 280 868 q 299 842 291 854 q 294 859 296 851 q 293 875 293 867 q 293 881 293 878 q 294 888 293 884 l 312 1037 l 347 1037 l 328 888 q 324 866 327 876 q 314 844 321 856 q 331 862 323 856 q 350 874 339 868 l 478 951 l 491 920 l 363 844 q 343 834 352 838 q 321 829 333 831 q 341 825 333 828 q 359 816 349 822 l 470 740 l 450 710 l 339 786 q 324 797 330 792 q 311 813 318 802 q 314 798 313 804 q 315 783 315 791 q 315 778 315 781 q 315 772 315 776 l 296 624 l 261 624 z "},"+":{"ha":806,"x_min":89,"x_max":747,"o":"m 485 803 l 447 490 l 747 490 l 741 441 l 440 441 l 402 126 l 349 126 l 388 441 l 89 441 l 95 490 l 394 490 l 433 803 l 485 803 z "},",":{"ha":274,"x_min":44,"x_max":167,"o":"m 44 59 q 60 101 44 83 q 104 118 77 118 q 150 98 134 118 q 167 44 167 77 q 159 -14 167 15 q 138 -72 152 -44 q 105 -127 124 -101 q 62 -176 85 -153 l 51 -165 q 47 -159 47 -162 q 46 -153 46 -156 q 57 -134 46 -147 q 81 -102 67 -122 q 107 -56 94 -82 q 123 0 119 -31 q 114 -2 119 -1 q 102 -3 108 -3 q 60 15 76 -3 q 44 59 44 32 z "},"-":{"ha":425,"x_min":69,"x_max":374,"o":"m 76 439 l 374 439 l 367 385 l 69 385 l 76 439 z "},".":{"ha":274,"x_min":40,"x_max":169,"o":"m 40 53 q 45 78 40 67 q 59 99 50 90 q 79 113 67 108 q 104 118 90 118 q 130 113 117 118 q 150 99 142 108 q 164 78 159 90 q 169 53 169 67 q 150 8 169 26 q 104 -10 131 -10 q 59 8 77 -10 q 40 53 40 26 z "},"/":{"ha":458,"x_min":-51,"x_max":536,"o":"m 15 -33 q -2 -52 9 -46 q -25 -58 -14 -58 l -51 -58 l 470 978 q 509 1003 482 1003 l 536 1003 l 15 -33 z "},":":{"ha":274,"x_min":40,"x_max":240,"o":"m 40 53 q 45 78 40 67 q 59 99 50 90 q 79 113 67 108 q 104 118 90 118 q 130 113 117 118 q 150 99 142 108 q 164 78 159 90 q 169 53 169 67 q 150 8 169 26 q 104 -10 131 -10 q 59 8 77 -10 q 40 53 40 26 m 111 607 q 116 632 111 620 q 130 652 121 644 q 150 666 138 661 q 175 672 161 672 q 200 666 188 672 q 221 652 213 661 q 235 632 230 644 q 240 607 240 620 q 221 561 240 580 q 175 543 202 543 q 130 561 148 543 q 111 607 111 580 z "},";":{"ha":274,"x_min":42,"x_max":248,"o":"m 42 59 q 58 101 42 83 q 102 118 75 118 q 148 98 132 118 q 165 44 165 77 q 157 -14 165 15 q 136 -72 150 -44 q 103 -127 122 -101 q 60 -176 83 -153 l 49 -165 q 44 -159 45 -162 q 44 -153 44 -156 q 55 -134 44 -147 q 79 -102 65 -122 q 105 -56 92 -82 q 121 0 117 -31 q 111 -2 117 -1 q 100 -3 106 -3 q 58 15 74 -3 q 42 59 42 32 m 119 607 q 124 632 119 620 q 137 652 128 644 q 157 666 146 661 q 183 672 169 672 q 208 666 196 672 q 229 652 220 661 q 243 632 238 644 q 248 607 248 620 q 229 561 248 580 q 183 543 210 543 q 137 561 156 543 q 119 607 119 580 z "},"<":{"ha":741,"x_min":120,"x_max":677,"o":"m 124 481 l 677 748 l 672 703 q 650 678 669 688 l 242 484 q 217 474 230 478 q 190 466 204 469 q 238 449 218 459 l 598 253 q 613 233 613 246 q 613 231 613 232 q 613 225 613 230 q 611 211 612 221 q 608 184 610 201 l 120 452 l 124 481 z "},"=":{"ha":806,"x_min":111,"x_max":717,"o":"m 117 385 l 691 385 l 685 336 l 111 336 l 117 385 m 144 602 l 717 602 l 712 553 l 138 553 l 144 602 z "},">":{"ha":741,"x_min":97,"x_max":654,"o":"m 651 451 l 97 184 l 103 229 q 124 253 105 244 l 533 448 q 557 458 544 453 q 584 466 570 463 q 537 483 556 473 l 176 678 q 161 699 161 686 q 161 701 161 700 q 162 707 161 702 q 164 721 163 711 q 167 748 165 731 l 654 480 l 651 451 z "},"?":{"ha":476,"x_min":88,"x_max":508,"o":"m 88 896 q 132 932 108 915 q 184 964 156 950 q 244 985 213 977 q 313 994 276 994 q 391 981 355 994 q 452 943 426 967 q 493 885 478 919 q 508 810 508 851 q 491 712 508 753 q 447 640 474 671 q 390 587 421 610 q 331 544 359 565 q 282 501 303 523 q 256 452 261 480 l 233 338 l 189 338 l 201 456 q 223 511 203 487 q 270 556 243 535 q 328 600 297 578 q 386 649 360 622 q 430 713 413 677 q 447 799 447 749 q 436 858 447 832 q 405 902 425 884 q 359 931 385 921 q 301 940 332 940 q 226 928 258 940 q 172 901 194 916 q 136 875 150 887 q 115 863 122 863 q 102 871 107 863 l 88 896 m 126 53 q 131 78 126 67 q 144 99 135 90 q 164 113 153 108 q 190 118 176 118 q 215 113 203 118 q 235 99 226 108 q 249 78 244 90 q 254 53 254 67 q 249 28 254 40 q 235 8 244 17 q 215 -6 226 -1 q 190 -10 203 -10 q 144 8 163 -10 q 126 53 126 26 z "},"@":{"ha":1044,"x_min":67,"x_max":1000,"o":"m 717 131 q 641 158 666 131 q 617 235 617 185 q 617 244 617 240 q 617 255 617 249 q 525 162 574 191 q 424 133 476 133 q 369 144 392 133 q 332 175 347 156 q 310 222 317 195 q 303 278 303 248 q 314 363 303 319 q 347 446 326 406 q 400 522 369 486 q 470 583 431 557 q 557 625 510 610 q 658 640 604 640 q 722 634 692 640 q 774 617 751 628 l 685 376 q 663 302 669 333 q 656 249 656 271 q 663 211 656 226 q 679 188 669 197 q 702 177 689 180 q 731 174 716 174 q 811 199 772 174 q 883 271 851 224 q 933 384 914 318 q 952 533 952 451 q 926 684 952 619 q 853 792 899 749 q 745 857 808 835 q 611 879 683 879 q 486 860 547 879 q 369 806 424 841 q 268 719 314 770 q 188 605 222 669 q 135 466 154 541 q 116 306 116 390 q 146 124 116 203 q 229 -10 176 44 q 354 -92 282 -64 q 510 -119 426 -119 q 686 -96 606 -119 q 833 -29 767 -72 q 847 -24 841 -24 q 862 -37 860 -24 l 867 -58 q 700 -137 790 -110 q 506 -165 611 -165 q 329 -134 410 -165 q 191 -42 249 -102 q 100 105 133 18 q 67 301 67 191 q 88 472 67 391 q 146 622 109 553 q 234 747 183 691 q 346 842 285 803 q 475 902 407 881 q 616 924 544 924 q 764 898 694 924 q 886 823 833 873 q 969 701 939 774 q 1000 533 1000 628 q 976 369 1000 443 q 914 242 953 295 q 823 160 874 189 q 717 131 772 131 m 442 178 q 490 186 465 178 q 540 216 515 194 q 590 276 565 238 q 635 372 614 313 l 713 588 q 681 595 697 592 q 644 597 665 597 q 566 584 603 597 q 497 549 528 572 q 439 496 465 526 q 394 431 413 465 q 366 359 376 397 q 356 286 356 322 q 361 243 356 263 q 377 209 366 224 q 404 186 388 194 q 442 178 420 178 z "},"A":{"ha":819,"x_min":-36,"x_max":772,"o":"m 772 0 l 719 0 q 704 5 710 0 q 696 18 698 10 l 626 306 l 185 306 l 45 18 q 34 5 42 10 q 17 0 26 0 l -36 0 l 455 983 l 523 983 l 772 0 m 210 356 l 614 356 l 492 856 q 486 883 489 868 q 481 913 483 897 q 475 900 479 909 q 467 883 472 892 q 460 866 463 874 q 455 856 456 858 l 210 356 z "},"B":{"ha":819,"x_min":91,"x_max":748,"o":"m 91 0 l 212 983 l 474 983 q 596 968 544 983 q 681 926 647 953 q 732 859 715 899 q 748 769 748 819 q 733 679 748 722 q 689 601 717 636 q 621 541 661 566 q 530 503 581 515 q 676 434 626 487 q 727 298 727 382 q 704 175 727 230 q 636 81 681 119 q 529 21 592 42 q 386 0 466 0 l 91 0 m 218 472 l 167 55 l 392 55 q 590 118 521 55 q 658 296 658 181 q 644 368 658 336 q 602 424 630 401 q 535 459 575 447 q 444 472 495 472 l 218 472 m 224 522 l 418 522 q 535 542 485 522 q 616 595 584 562 q 663 670 648 628 q 678 758 678 713 q 627 884 678 840 q 467 928 575 928 l 274 928 l 224 522 z "},"C":{"ha":880,"x_min":91,"x_max":880,"o":"m 472 48 q 563 57 522 48 q 634 78 603 65 q 688 106 665 91 q 726 134 710 121 q 752 155 742 147 q 768 164 763 164 q 777 160 774 164 l 801 131 q 733 72 769 98 q 655 27 697 46 q 565 -1 613 9 q 461 -11 517 -11 q 308 19 376 -11 q 191 106 240 50 q 117 241 143 163 q 91 415 91 319 q 130 650 91 544 q 237 833 169 757 q 398 952 306 910 q 599 994 491 994 q 690 986 649 994 q 764 963 730 978 q 825 924 797 947 q 880 872 853 901 l 858 844 q 840 836 851 836 q 817 851 831 836 q 776 885 803 867 q 705 919 749 903 q 595 934 662 934 q 424 898 503 934 q 287 795 345 862 q 195 633 228 728 q 161 420 161 538 q 184 265 161 334 q 248 148 207 196 q 346 74 289 99 q 472 48 403 48 z "},"D":{"ha":971,"x_min":91,"x_max":920,"o":"m 920 566 q 903 403 920 479 q 855 265 886 328 q 778 153 823 202 q 678 69 733 103 q 558 18 622 35 q 422 0 493 0 l 91 0 l 212 983 l 542 983 q 699 953 629 983 q 818 869 769 924 q 894 738 867 815 q 920 566 920 661 m 849 565 q 827 716 849 649 q 764 830 805 783 q 666 901 724 876 q 535 926 608 926 l 274 926 l 167 56 l 428 56 q 597 91 519 56 q 730 190 674 125 q 817 350 786 256 q 849 565 849 444 z "},"E":{"ha":755,"x_min":91,"x_max":755,"o":"m 747 926 l 274 926 l 225 526 l 619 526 l 611 470 l 218 470 l 167 57 l 642 57 l 635 0 l 91 0 l 212 983 l 755 983 l 747 926 z "},"F":{"ha":731,"x_min":91,"x_max":755,"o":"m 747 926 l 274 926 l 223 510 l 633 510 l 625 452 l 216 452 l 160 0 l 91 0 l 212 983 l 755 983 l 747 926 z "},"G":{"ha":956,"x_min":91,"x_max":908,"o":"m 485 45 q 570 50 532 45 q 643 66 609 56 q 708 91 677 76 q 771 124 740 106 l 804 392 l 633 392 q 617 405 617 392 q 617 406 617 405 q 618 411 617 407 q 619 423 618 415 q 622 445 620 431 l 874 445 l 830 97 q 755 51 793 71 q 673 17 716 31 q 581 -4 629 3 q 475 -11 532 -11 q 316 20 387 -11 q 194 107 244 51 q 118 242 144 163 q 91 417 91 321 q 129 653 91 547 q 236 835 167 760 q 400 952 305 911 q 609 994 495 994 q 706 986 663 994 q 786 963 750 978 q 852 925 822 947 q 908 874 882 903 l 887 847 q 869 837 878 837 q 858 840 863 837 q 842 851 851 842 q 819 869 833 859 q 786 891 806 880 q 741 912 767 903 q 681 928 715 922 q 603 934 647 934 q 424 898 506 934 q 284 795 343 862 q 193 633 226 728 q 161 419 161 538 q 184 264 161 333 q 249 146 207 194 q 351 71 292 97 q 485 45 411 45 z "},"H":{"ha":967,"x_min":91,"x_max":912,"o":"m 791 0 l 722 0 l 779 472 l 218 472 l 160 0 l 91 0 l 212 983 l 281 983 l 224 524 l 785 524 l 842 983 l 912 983 l 791 0 z "},"I":{"ha":382,"x_min":115,"x_max":304,"o":"m 184 0 l 115 0 l 235 983 l 304 983 l 184 0 z "},"J":{"ha":579,"x_min":15,"x_max":526,"o":"m 442 306 q 407 165 432 225 q 344 66 382 106 q 255 8 306 27 q 144 -11 205 -11 q 76 -6 107 -11 q 15 9 45 -1 l 21 47 q 26 57 22 52 q 39 62 29 62 q 54 59 46 62 q 75 54 63 57 q 104 49 87 51 q 145 47 121 47 q 224 59 186 47 q 291 102 261 72 q 343 182 322 133 q 373 305 364 232 l 456 983 l 526 983 l 442 306 z "},"K":{"ha":844,"x_min":110,"x_max":876,"o":"m 243 528 l 297 528 q 334 533 320 528 q 364 554 348 538 l 775 963 q 797 978 787 974 q 819 983 806 983 l 876 983 l 430 540 q 407 519 417 528 q 385 507 397 511 q 406 494 397 503 q 425 472 415 485 l 780 0 l 724 0 q 700 5 706 0 q 687 18 693 10 l 360 444 q 349 458 354 452 q 337 467 344 463 q 320 473 330 471 q 295 474 310 474 l 237 474 l 178 0 l 110 0 l 230 984 l 299 984 l 243 528 z "},"L":{"ha":653,"x_min":91,"x_max":594,"o":"m 167 59 l 594 59 l 587 0 l 91 0 l 212 983 l 281 983 l 167 59 z "},"M":{"ha":1162,"x_min":91,"x_max":1108,"o":"m 565 278 q 570 262 567 270 q 574 246 572 254 q 590 278 581 261 l 1033 969 q 1045 981 1039 978 q 1060 983 1051 983 l 1108 983 l 988 0 l 927 0 l 1031 840 q 1033 857 1032 847 q 1037 876 1035 866 l 599 189 q 571 172 588 172 l 560 172 q 535 189 542 172 l 256 878 q 254 840 256 857 l 151 0 l 91 0 l 212 983 l 259 983 q 275 981 269 983 q 284 969 281 979 l 565 278 l 565 278 z "},"N":{"ha":965,"x_min":91,"x_max":912,"o":"m 246 983 q 260 980 256 983 q 269 969 265 978 l 746 114 q 747 132 747 124 q 749 149 747 141 l 851 983 l 912 983 l 791 0 l 759 0 q 733 15 742 0 l 256 871 l 254 840 l 151 0 l 91 0 l 212 983 l 246 983 l 246 983 z "},"O":{"ha":1017,"x_min":91,"x_max":967,"o":"m 967 567 q 930 331 967 437 q 824 149 892 224 q 665 31 757 73 q 467 -10 574 -10 q 311 20 381 -10 q 193 108 242 51 q 117 242 144 164 q 91 416 91 321 q 129 652 91 545 q 234 834 167 758 q 393 952 301 910 q 590 994 484 994 q 747 963 677 994 q 866 876 817 932 q 941 741 915 819 q 967 567 967 662 m 896 565 q 874 719 896 651 q 811 836 852 788 q 712 910 770 884 q 583 936 654 936 q 415 900 492 936 q 282 797 338 864 q 193 633 225 729 q 161 418 161 538 q 183 264 161 333 q 247 148 206 196 q 345 74 288 100 q 474 48 403 48 q 643 84 566 48 q 776 187 720 119 q 864 350 833 254 q 896 565 896 445 z "},"P":{"ha":760,"x_min":110,"x_max":755,"o":"m 227 397 l 178 0 l 110 0 l 230 983 l 466 983 q 683 918 610 983 q 755 735 755 853 q 729 598 755 660 q 656 491 703 536 q 542 422 609 447 q 394 397 476 397 l 227 397 m 292 928 l 234 452 l 401 452 q 518 473 466 452 q 608 531 571 494 q 665 618 645 567 q 685 728 685 669 q 629 875 685 823 q 459 928 572 928 l 292 928 z "},"Q":{"ha":1017,"x_min":91,"x_max":967,"o":"m 967 567 q 949 399 967 477 q 897 255 931 320 q 816 139 863 190 q 709 53 768 88 l 911 -217 l 857 -217 q 833 -213 843 -217 q 816 -200 823 -210 l 651 24 q 467 -10 565 -10 q 311 20 381 -10 q 193 108 242 51 q 117 242 144 164 q 91 416 91 321 q 129 652 91 545 q 234 834 167 758 q 393 952 301 910 q 590 994 484 994 q 747 963 677 994 q 866 876 817 932 q 941 741 915 819 q 967 567 967 662 m 896 565 q 874 719 896 651 q 811 836 852 788 q 712 910 770 884 q 583 936 654 936 q 415 900 492 936 q 282 797 338 864 q 193 633 225 729 q 161 418 161 538 q 183 264 161 333 q 247 148 206 196 q 345 74 288 100 q 474 48 403 48 q 643 84 566 48 q 776 187 720 119 q 864 350 833 254 q 896 565 896 445 z "},"R":{"ha":807,"x_min":110,"x_max":747,"o":"m 233 445 l 178 0 l 110 0 l 230 983 l 463 983 q 676 926 606 983 q 747 762 747 869 q 726 645 747 698 q 667 552 705 592 q 575 487 628 512 q 456 453 521 462 q 480 426 470 443 l 736 0 l 677 0 q 646 17 656 0 l 409 417 q 388 439 399 433 q 351 445 376 445 l 233 445 m 293 928 l 240 497 l 394 497 q 513 515 460 497 q 602 566 565 533 q 658 647 639 599 q 678 751 678 694 q 622 884 678 840 q 457 928 565 928 l 293 928 z "},"S":{"ha":668,"x_min":27,"x_max":656,"o":"m 636 864 q 618 852 628 852 q 598 865 610 852 q 566 894 586 878 q 513 923 545 910 q 432 936 481 936 q 338 919 379 936 q 268 873 297 902 q 224 804 239 843 q 208 720 208 765 q 226 649 208 678 q 271 600 243 620 q 335 564 299 579 q 409 535 371 549 q 482 504 447 521 q 546 463 518 487 q 592 403 574 438 q 609 318 609 369 q 586 191 609 251 q 520 86 563 131 q 417 15 478 42 q 280 -11 356 -11 q 130 23 191 -11 q 27 117 69 58 l 50 147 q 69 157 60 157 q 84 149 76 157 q 103 128 92 140 q 130 102 115 116 q 168 75 146 88 q 220 55 190 63 q 288 47 249 47 q 394 66 347 47 q 474 121 441 86 q 525 202 508 156 q 543 303 543 249 q 526 375 543 347 q 480 424 508 404 q 416 458 452 444 q 343 486 381 472 q 269 517 306 500 q 205 558 233 533 q 160 618 177 583 q 143 706 143 654 q 163 815 143 763 q 221 907 183 867 q 314 970 259 947 q 439 994 369 994 q 563 968 510 994 q 656 892 617 942 l 636 864 z "},"T":{"ha":748,"x_min":94,"x_max":804,"o":"m 804 983 l 797 924 l 481 924 l 367 0 l 299 0 l 412 924 l 94 924 l 101 983 l 804 983 z "},"U":{"ha":937,"x_min":124,"x_max":892,"o":"m 433 49 q 551 74 497 49 q 646 142 606 99 q 713 246 687 186 q 748 374 740 306 l 822 983 l 892 983 l 817 374 q 774 223 806 293 q 691 100 742 152 q 572 18 640 48 q 425 -12 505 -12 q 298 13 353 -12 q 203 81 242 38 q 144 183 165 124 q 124 313 124 242 q 128 374 124 343 l 203 983 l 272 983 l 197 375 q 195 347 196 361 q 194 319 194 333 q 209 211 194 261 q 255 126 225 162 q 330 69 285 90 q 433 49 374 49 z "},"V":{"ha":827,"x_min":88,"x_max":896,"o":"m 88 983 l 143 983 q 158 977 153 983 q 165 965 163 972 l 369 144 q 376 113 373 130 q 382 78 380 97 q 395 113 388 97 q 409 144 401 130 l 814 965 q 825 977 817 972 q 842 983 832 983 l 896 983 l 403 0 l 341 0 l 88 983 z "},"W":{"ha":1263,"x_min":90,"x_max":1332,"o":"m 90 983 l 144 983 q 166 965 164 983 l 296 148 q 299 120 298 135 q 301 91 299 106 q 311 120 306 106 q 322 148 316 135 l 676 965 q 687 977 680 972 q 703 983 694 983 l 719 983 q 741 965 738 983 l 895 148 q 899 121 897 135 q 901 92 900 107 q 911 121 906 107 q 920 148 915 135 l 1250 965 q 1261 977 1253 972 q 1278 983 1269 983 l 1332 983 l 926 0 l 865 0 l 704 856 q 702 873 703 864 q 699 892 701 882 q 693 873 696 882 q 686 856 690 864 l 315 0 l 253 0 l 90 983 z "},"X":{"ha":769,"x_min":-46,"x_max":811,"o":"m 360 525 l 117 983 l 178 983 q 193 979 188 983 q 201 968 197 976 l 410 560 q 420 578 415 570 l 720 970 q 742 983 730 983 l 811 983 l 456 528 l 731 0 l 669 0 q 655 6 659 0 q 647 17 650 11 l 407 488 q 403 480 405 484 q 397 472 401 476 l 50 17 q 37 5 44 9 q 22 0 31 0 l -46 0 l 360 525 z "},"Y":{"ha":769,"x_min":94,"x_max":832,"o":"m 427 405 l 376 0 l 308 0 l 358 406 l 94 983 l 155 983 q 170 978 165 983 q 178 965 175 973 l 386 501 q 394 478 392 490 q 399 456 397 467 q 411 478 405 467 q 425 501 417 490 l 747 965 q 758 978 752 973 q 774 983 765 983 l 832 983 l 427 405 z "},"Z":{"ha":809,"x_min":31,"x_max":823,"o":"m 823 983 l 819 960 q 816 949 818 953 q 808 938 813 944 l 132 57 l 704 57 l 697 0 l 31 0 l 33 23 q 37 33 34 28 q 44 43 40 38 l 722 926 l 161 926 l 169 983 l 823 983 z "},"[":{"ha":383,"x_min":47,"x_max":403,"o":"m 47 -183 l 199 1053 l 403 1053 l 400 1028 q 393 1015 399 1020 q 378 1010 387 1010 l 248 1010 l 106 -139 l 237 -139 q 250 -143 245 -139 q 255 -156 255 -148 q 255 -160 255 -156 q 251 -183 254 -164 l 47 -183 z "},"\\":{"ha":458,"x_min":78,"x_max":406,"o":"m 78 1003 l 106 1003 q 139 978 133 1003 l 406 -58 l 380 -58 q 358 -52 368 -58 q 344 -33 348 -46 l 78 1003 z "},"]":{"ha":383,"x_min":3,"x_max":360,"o":"m 155 1053 l 360 1053 l 208 -183 l 3 -183 l 6 -158 q 14 -144 8 -150 q 29 -139 19 -139 l 159 -139 l 300 1010 l 170 1010 q 152 1026 152 1010 l 155 1053 z "},"^":{"ha":806,"x_min":183,"x_max":697,"o":"m 419 983 l 460 983 l 697 556 l 651 556 q 637 560 643 556 q 627 572 631 565 l 460 874 q 440 917 447 896 q 432 896 437 906 q 422 874 428 885 l 256 572 q 247 561 252 566 q 231 556 241 556 l 183 556 l 419 983 z "},"_":{"ha":504,"x_min":-65,"x_max":444,"o":"m 444 -144 l 438 -189 l -65 -189 l -60 -144 l 444 -144 z "},"`":{"ha":375,"x_min":88,"x_max":265,"o":"m 150 994 q 173 989 166 994 q 185 972 180 983 l 265 806 l 228 806 q 206 817 214 806 l 88 994 l 150 994 z "},"a":{"ha":681,"x_min":42,"x_max":613,"o":"m 532 0 l 500 0 q 482 6 487 0 q 476 22 476 13 l 499 239 q 441 138 473 183 q 374 60 410 92 q 299 9 338 27 q 217 -9 259 -9 q 140 8 173 -9 q 86 56 108 25 q 53 132 64 88 q 42 232 42 176 q 57 350 42 292 q 100 460 72 408 q 167 556 128 513 q 253 632 206 600 q 353 682 300 664 q 464 700 407 700 q 542 693 506 700 q 613 667 578 685 l 532 0 m 238 46 q 316 68 278 46 q 390 131 355 90 q 455 229 424 172 q 510 356 486 286 l 545 637 q 456 651 504 651 q 366 635 410 651 q 284 592 322 619 q 213 526 245 564 q 157 442 181 488 q 120 346 133 397 q 108 242 108 295 q 139 98 108 149 q 238 46 171 46 z "},"b":{"ha":708,"x_min":71,"x_max":663,"o":"m 71 0 l 193 1010 l 258 1010 l 190 458 q 251 557 217 513 q 321 634 284 602 q 398 684 358 666 q 481 701 439 701 q 560 684 526 701 q 617 635 594 667 q 651 558 640 603 q 663 458 663 513 q 652 349 663 404 q 620 242 641 294 q 570 144 600 190 q 503 65 541 99 q 421 11 466 31 q 326 -9 376 -9 q 219 18 267 -9 q 141 97 170 44 l 128 22 q 121 5 126 10 q 103 0 116 0 l 71 0 m 459 648 q 380 626 419 648 q 302 563 340 603 q 233 466 265 523 q 176 340 201 409 l 151 142 q 185 96 166 115 q 226 65 204 77 q 271 48 248 53 q 319 43 294 43 q 400 61 363 43 q 469 109 438 78 q 524 180 500 140 q 564 266 548 221 q 589 359 581 311 q 598 451 598 406 q 563 596 598 544 q 459 648 527 648 z "},"c":{"ha":598,"x_min":50,"x_max":582,"o":"m 553 126 q 484 59 517 85 q 419 17 451 33 q 355 -3 388 2 q 285 -9 322 -9 q 182 11 226 -9 q 108 69 138 32 q 65 156 79 106 q 50 267 50 207 q 61 375 50 322 q 94 478 73 429 q 147 567 116 526 q 215 638 177 608 q 298 685 253 668 q 394 702 343 702 q 455 695 428 702 q 506 677 483 689 q 547 647 528 665 q 582 608 566 630 l 563 585 q 548 578 556 578 q 531 589 541 578 q 504 613 521 600 q 460 637 487 626 q 392 648 433 648 q 283 617 333 648 q 195 533 233 585 q 137 411 158 480 q 116 267 116 342 q 127 178 116 219 q 160 107 138 137 q 217 60 183 77 q 297 44 251 44 q 363 52 334 44 q 415 72 392 60 q 455 98 438 83 q 485 124 472 112 q 507 143 498 135 q 524 151 517 151 q 539 144 532 151 l 553 126 l 553 126 z "},"d":{"ha":709,"x_min":44,"x_max":677,"o":"m 522 0 q 503 6 508 0 q 498 22 498 13 l 521 242 q 460 139 494 185 q 389 60 426 93 q 310 9 351 27 q 227 -9 269 -9 q 148 8 182 -9 q 91 58 114 26 q 56 135 68 90 q 44 236 44 180 q 56 344 44 289 q 87 451 67 399 q 137 548 108 503 q 204 628 167 594 q 286 682 242 662 q 381 701 331 701 q 485 677 438 701 q 563 603 532 652 l 613 1010 l 677 1010 l 553 0 l 522 0 m 249 44 q 328 66 288 44 q 405 128 367 88 q 474 225 442 169 q 531 351 506 282 l 556 551 q 481 627 526 605 q 389 649 437 649 q 307 632 345 649 q 239 583 269 614 q 184 513 208 553 q 143 427 160 472 q 118 334 127 382 q 110 242 110 286 q 145 97 110 149 q 249 44 181 44 z "},"e":{"ha":622,"x_min":49,"x_max":582,"o":"m 582 559 q 574 505 582 531 q 547 456 567 479 q 494 413 528 433 q 409 375 461 392 q 285 345 357 358 q 115 321 213 331 q 113 292 114 306 q 113 264 113 278 q 159 102 113 160 q 301 44 206 44 q 367 52 338 44 q 420 72 397 60 q 461 99 443 85 q 492 125 478 113 q 516 145 506 138 q 535 153 526 153 q 549 147 543 153 l 565 128 q 498 66 531 92 q 433 24 466 40 q 365 -1 400 7 q 289 -9 329 -9 q 186 10 231 -9 q 111 64 142 29 q 65 150 81 99 q 49 263 49 200 q 59 367 49 315 q 90 469 69 420 q 141 560 110 517 q 210 633 171 602 q 296 683 249 665 q 398 701 343 701 q 484 686 449 701 q 541 651 519 672 q 572 605 563 630 q 582 559 582 581 m 394 652 q 294 628 339 652 q 215 566 249 605 q 157 475 181 526 q 123 367 134 423 q 275 389 211 376 q 383 416 339 402 q 455 447 428 431 q 498 482 483 464 q 518 518 513 499 q 524 557 524 537 q 517 589 524 572 q 495 619 510 606 q 455 643 480 633 q 394 652 431 652 z "},"f":{"ha":394,"x_min":46,"x_max":467,"o":"m 213 621 l 139 15 l 110 -145 q 98 -167 107 -160 q 76 -174 89 -174 l 51 -174 l 149 620 l 61 626 q 46 641 46 627 q 46 645 46 642 q 49 669 47 649 l 154 669 l 165 757 q 192 861 172 816 q 243 935 213 906 q 311 980 273 965 q 393 995 349 995 q 432 991 413 995 q 467 981 451 988 l 460 947 q 449 940 459 940 q 428 942 442 940 q 396 945 414 945 q 336 935 365 945 q 286 902 308 924 q 249 843 265 879 q 227 755 233 807 l 216 669 l 412 669 l 405 621 l 213 621 z "},"g":{"ha":612,"x_min":-41,"x_max":638,"o":"m 529 511 q 519 442 528 473 q 496 384 510 410 q 466 336 482 358 q 435 292 449 313 q 413 248 422 270 q 403 201 403 226 q 412 162 403 180 q 432 128 420 144 q 459 94 444 111 q 486 58 474 77 q 506 17 498 40 q 515 -32 515 -5 q 492 -116 515 -76 q 430 -188 470 -157 q 333 -238 390 -219 q 207 -257 276 -257 q 107 -246 152 -257 q 28 -214 61 -235 q -23 -162 -5 -192 q -41 -92 -41 -131 q -15 -4 -41 -42 q 56 61 11 35 q 160 101 101 88 q 288 115 219 115 q 335 114 311 115 q 383 108 358 112 q 363 142 371 124 q 355 183 355 160 q 363 232 355 207 q 395 292 372 257 q 335 263 367 273 q 266 252 303 252 q 192 265 226 252 q 134 302 158 277 q 95 362 109 326 q 81 445 81 398 q 98 539 81 493 q 148 622 115 585 q 227 680 180 658 q 335 701 274 701 q 401 693 370 701 q 457 667 433 684 l 638 667 l 635 644 q 630 632 634 638 q 615 626 625 627 l 503 617 q 522 569 515 595 q 529 511 529 542 m 454 -36 q 443 22 454 -2 q 416 67 432 47 l 417 65 q 352 72 383 70 q 293 74 322 74 q 174 61 224 74 q 89 27 123 49 q 39 -24 56 5 q 22 -85 22 -53 q 35 -139 22 -115 q 74 -177 49 -162 q 134 -201 99 -193 q 213 -210 169 -210 q 311 -195 267 -210 q 387 -156 356 -181 q 436 -101 419 -132 q 454 -36 453 -69 m 281 295 q 361 314 326 295 q 420 363 396 333 q 457 432 444 393 q 469 509 469 470 q 431 618 469 581 q 328 654 393 654 q 249 636 284 654 q 191 590 215 619 q 154 523 167 560 q 142 445 142 485 q 179 333 142 372 q 281 295 217 295 z "},"h":{"ha":715,"x_min":71,"x_max":636,"o":"m 71 0 l 193 1010 l 258 1010 l 194 483 q 256 575 222 535 q 327 644 290 616 q 403 687 364 672 q 481 701 442 701 q 598 651 559 701 q 636 508 636 601 q 636 495 636 502 q 634 470 635 488 q 628 420 632 453 q 619 334 625 388 q 603 198 613 279 q 580 0 594 116 l 515 0 l 567 442 q 571 502 571 474 q 544 610 571 573 q 460 647 517 647 q 383 627 422 647 q 308 573 344 608 q 239 486 272 537 q 181 373 206 435 l 136 0 l 71 0 z "},"i":{"ha":316,"x_min":83,"x_max":283,"o":"m 232 691 l 148 0 l 83 0 l 167 691 l 232 691 m 283 929 q 278 906 283 917 q 265 887 273 895 q 245 874 256 878 q 224 869 235 869 q 201 874 212 869 q 183 887 191 878 q 170 906 175 895 q 165 929 165 917 q 170 953 165 942 q 183 973 175 964 q 201 986 191 981 q 224 991 212 991 q 245 986 235 991 q 265 973 256 981 q 278 953 273 965 q 283 929 283 942 z "},"j":{"ha":306,"x_min":-102,"x_max":281,"o":"m 229 691 l 133 -88 q 115 -155 129 -124 q 80 -208 101 -185 q 27 -243 58 -231 q -40 -256 -3 -256 q -74 -253 -60 -256 q -102 -242 -88 -249 l -99 -226 q -93 -206 -95 -211 q -85 -200 -90 -200 q -70 -203 -79 -200 q -46 -206 -61 -206 q 34 -175 6 -206 q 69 -88 63 -144 l 165 691 l 229 691 m 281 929 q 276 906 281 917 q 263 887 271 895 q 243 874 254 878 q 222 869 233 869 q 199 874 210 869 q 181 887 189 878 q 169 906 174 895 q 164 929 164 917 q 169 953 164 942 q 182 973 174 964 q 200 986 190 981 q 222 991 210 991 q 244 986 233 991 q 263 973 255 981 q 276 953 272 965 q 281 929 281 942 z "},"k":{"ha":617,"x_min":69,"x_max":624,"o":"m 257 1010 l 181 394 l 207 394 q 227 398 219 394 q 245 410 235 401 l 531 674 q 547 686 540 681 q 567 691 555 691 l 624 691 l 308 401 q 293 389 300 394 q 279 378 287 383 q 295 365 289 373 q 308 349 301 358 l 560 0 l 505 0 q 489 3 495 0 q 476 16 483 7 l 247 327 q 228 344 238 340 q 201 349 219 349 l 176 349 l 133 0 l 69 0 l 192 1010 l 257 1010 z "},"l":{"ha":311,"x_min":81,"x_max":268,"o":"m 81 0 l 203 1010 l 268 1010 l 145 0 l 81 0 z "},"m":{"ha":1077,"x_min":65,"x_max":999,"o":"m 65 0 l 149 693 l 178 693 q 203 668 203 693 l 183 475 q 308 642 238 583 q 458 701 379 701 q 557 658 527 701 q 586 532 586 614 q 584 481 586 508 q 643 578 611 537 q 711 647 676 619 q 785 688 747 674 q 859 701 822 701 q 966 655 933 701 q 999 521 999 608 q 998 505 999 514 q 996 478 998 497 q 991 426 994 459 q 981 338 988 393 q 965 200 975 282 q 942 0 956 117 l 877 0 l 929 442 q 933 482 932 463 q 935 519 935 501 q 913 614 935 581 q 838 646 892 646 q 769 630 804 646 q 700 583 734 615 q 636 505 667 552 q 582 394 606 458 l 535 0 l 471 0 l 523 442 q 529 527 529 490 q 509 616 529 585 q 438 646 489 646 q 291 574 358 646 q 174 369 224 501 l 130 0 l 65 0 z "},"n":{"ha":711,"x_min":65,"x_max":632,"o":"m 65 0 l 149 693 l 178 693 q 202 668 202 693 l 182 468 q 245 566 210 523 q 317 640 279 610 q 396 686 356 670 q 477 701 436 701 q 593 651 554 701 q 632 506 632 600 q 632 491 632 499 q 630 466 631 483 q 624 417 628 449 q 615 332 621 385 q 599 197 608 278 q 576 0 590 116 l 510 0 l 563 442 q 567 502 567 474 q 540 609 567 572 q 456 646 513 646 q 377 626 417 646 q 300 570 338 606 q 231 482 263 533 q 173 365 198 430 l 131 0 l 65 0 z "},"o":{"ha":686,"x_min":49,"x_max":637,"o":"m 301 43 q 411 75 362 43 q 497 159 461 106 q 551 279 532 211 q 570 418 570 347 q 521 590 570 529 q 384 650 472 650 q 308 636 344 650 q 243 596 273 622 q 189 535 213 570 q 149 458 165 500 q 124 370 133 417 q 115 275 115 324 q 164 104 115 165 q 301 43 213 43 m 296 -9 q 195 10 240 -9 q 117 67 149 30 q 67 156 85 103 q 49 275 49 208 q 74 436 49 359 q 145 573 99 514 q 253 667 190 632 q 390 702 315 702 q 491 682 446 702 q 569 626 537 663 q 619 537 601 590 q 637 419 637 484 q 611 258 637 335 q 541 121 586 181 q 433 26 496 62 q 296 -9 371 -9 z "},"p":{"ha":701,"x_min":35,"x_max":658,"o":"m 35 -244 l 149 693 l 178 693 q 203 668 203 693 l 181 451 q 241 553 208 507 q 313 632 275 599 q 392 683 351 665 q 475 701 433 701 q 554 684 520 701 q 611 635 588 667 q 646 558 634 603 q 658 458 658 513 q 647 349 658 404 q 615 242 635 294 q 565 144 594 190 q 498 65 535 99 q 416 11 460 31 q 321 -9 371 -9 q 217 16 265 -9 q 140 90 169 41 l 99 -244 l 35 -244 m 453 648 q 374 626 414 648 q 297 564 334 604 q 228 467 260 524 q 170 341 195 410 l 146 142 q 221 65 176 88 q 313 43 265 43 q 395 61 357 43 q 464 109 433 78 q 518 180 494 140 q 559 266 542 221 q 584 359 575 311 q 592 451 592 406 q 557 596 592 544 q 453 648 522 648 z "},"q":{"ha":681,"x_min":42,"x_max":613,"o":"m 501 -244 l 464 -244 q 444 -237 450 -244 q 438 -217 438 -229 q 439 -208 438 -211 l 494 228 q 436 131 467 174 q 370 56 406 88 q 297 8 335 25 q 217 -9 258 -9 q 140 8 173 -9 q 86 56 108 25 q 53 132 64 88 q 42 232 42 176 q 57 350 42 292 q 100 460 72 408 q 167 556 128 513 q 253 632 206 600 q 353 682 300 664 q 464 700 407 700 q 542 693 506 700 q 613 667 578 685 l 501 -244 m 238 46 q 316 68 278 46 q 388 130 353 90 q 453 226 423 170 q 508 351 484 283 l 509 353 l 545 637 q 456 651 504 651 q 366 635 410 651 q 284 592 322 619 q 213 526 245 564 q 157 442 181 488 q 120 346 133 397 q 108 242 108 295 q 139 98 108 149 q 238 46 171 46 z "},"r":{"ha":467,"x_min":65,"x_max":478,"o":"m 65 0 l 149 693 l 178 693 q 203 668 203 693 l 183 463 q 291 637 230 576 q 420 699 351 699 q 478 687 449 699 l 467 625 q 407 637 435 637 q 273 564 333 637 q 172 352 214 490 l 130 0 l 65 0 z "},"s":{"ha":536,"x_min":23,"x_max":510,"o":"m 494 606 q 478 597 488 597 q 461 605 472 597 q 434 625 451 614 q 391 644 417 635 q 327 653 365 653 q 260 641 292 653 q 205 609 228 629 q 168 564 182 590 q 155 508 155 538 q 168 460 155 480 q 203 427 181 441 q 252 402 225 413 q 309 381 280 392 q 366 358 338 371 q 415 327 393 345 q 450 283 437 309 q 463 220 463 257 q 445 134 463 176 q 395 60 428 92 q 316 8 363 28 q 213 -11 270 -11 q 101 12 146 -11 q 23 73 56 35 l 39 97 q 47 105 43 102 q 58 108 51 108 q 75 97 65 108 q 104 72 85 85 q 151 47 122 58 q 222 36 179 36 q 297 50 263 36 q 355 87 331 63 q 392 141 378 110 q 405 207 405 172 q 392 258 405 238 q 357 294 378 279 q 308 319 335 309 q 251 340 280 330 q 194 362 222 350 q 145 392 167 374 q 110 434 124 409 q 97 495 97 459 q 115 573 97 535 q 163 639 132 610 q 238 684 194 667 q 332 701 281 701 q 433 683 390 701 q 510 629 476 665 l 494 606 z "},"t":{"ha":457,"x_min":75,"x_max":451,"o":"m 122 116 q 122 126 122 120 q 123 145 122 133 q 127 177 124 158 q 133 228 129 197 l 180 620 l 89 620 q 75 633 75 620 l 78 662 l 188 670 l 233 917 q 240 928 235 924 q 251 933 244 933 l 283 933 l 251 669 l 451 669 l 445 620 l 245 620 l 197 230 q 192 183 194 201 q 188 154 190 165 q 186 137 187 142 q 186 128 186 131 q 207 63 186 83 q 262 43 228 43 q 302 50 285 43 q 333 66 320 58 q 355 82 347 75 q 367 90 363 90 q 374 88 372 90 q 378 83 376 86 l 390 53 q 323 7 363 24 q 244 -11 283 -11 q 155 20 187 -11 q 122 116 122 51 z "},"u":{"ha":710,"x_min":79,"x_max":645,"o":"m 201 691 l 149 251 q 144 191 144 219 q 171 83 144 120 q 256 46 198 46 q 333 65 294 46 q 408 121 372 85 q 478 209 445 158 q 535 324 510 260 l 580 691 l 645 691 l 562 0 l 531 0 q 512 7 518 0 q 506 26 506 14 l 527 222 q 464 124 499 167 q 392 52 430 81 q 314 7 354 22 q 233 -9 274 -9 q 118 42 156 -9 q 79 188 79 93 q 80 201 79 194 q 82 226 80 208 q 87 275 83 244 q 97 360 90 306 q 112 494 103 414 q 135 691 122 575 l 201 691 z "},"v":{"ha":627,"x_min":58,"x_max":651,"o":"m 58 691 l 108 691 q 123 686 118 691 q 130 674 128 681 l 271 129 q 275 98 274 113 q 278 67 277 83 q 302 129 288 96 l 578 674 q 588 686 581 682 q 602 691 594 691 l 651 691 l 297 0 l 243 0 l 58 691 z "},"w":{"ha":947,"x_min":60,"x_max":972,"o":"m 60 691 l 106 691 q 127 674 124 691 l 220 129 q 223 100 223 114 q 224 72 224 85 q 235 100 229 85 q 247 129 240 114 l 484 679 q 505 694 490 694 l 530 694 q 547 679 545 694 l 649 129 q 654 99 653 113 q 656 69 655 84 q 665 99 660 84 q 677 129 670 113 l 903 674 q 913 686 907 682 q 926 691 919 691 l 972 691 l 676 0 l 629 0 q 616 15 619 0 l 510 576 q 506 608 506 593 q 494 576 501 592 l 249 15 q 233 0 244 0 l 187 0 l 60 691 z "},"x":{"ha":593,"x_min":-30,"x_max":593,"o":"m 258 369 l 83 691 l 139 691 q 152 689 148 691 q 160 681 156 686 l 305 404 q 316 423 310 415 l 516 679 q 525 688 521 685 q 535 691 528 691 l 593 691 l 340 369 l 533 0 l 478 0 q 464 4 469 0 q 455 15 458 8 l 292 332 q 281 313 288 322 l 49 14 q 39 4 44 8 q 26 0 34 0 l -30 0 l 258 369 z "},"y":{"ha":627,"x_min":60,"x_max":654,"o":"m 174 -225 q 146 -244 165 -244 l 99 -244 l 245 26 l 60 691 l 111 691 q 125 686 121 691 q 132 674 130 682 l 278 137 q 282 116 281 126 q 284 95 283 106 q 293 116 288 106 q 303 137 297 127 l 581 676 q 591 688 585 684 q 603 691 597 691 l 654 691 l 174 -225 z "},"z":{"ha":582,"x_min":6,"x_max":575,"o":"m 571 663 q 558 637 569 649 l 92 52 l 481 52 l 474 0 l 6 0 l 9 26 q 13 39 10 32 q 22 52 17 46 l 490 639 l 105 639 l 112 691 l 575 691 l 571 663 z "},"{":{"ha":383,"x_min":49,"x_max":404,"o":"m 136 324 q 113 389 136 364 q 49 415 89 415 l 54 456 q 138 496 106 456 q 169 619 169 536 q 165 709 169 660 q 160 799 160 757 q 175 905 160 858 q 217 984 190 951 q 282 1035 244 1017 q 369 1053 321 1053 l 404 1053 l 401 1025 q 394 1014 400 1017 q 382 1010 388 1010 l 362 1010 q 294 992 322 1010 q 249 944 266 974 q 225 876 232 915 q 217 798 217 838 q 220 706 217 752 q 224 617 224 660 q 218 557 224 586 q 199 503 213 528 q 164 461 185 479 q 110 435 142 444 q 141 421 126 431 q 166 398 156 412 q 184 365 177 383 q 190 324 190 347 q 178 241 190 282 q 152 159 167 200 q 126 75 138 117 q 115 -13 115 32 q 122 -65 115 -42 q 143 -104 130 -87 q 176 -130 157 -121 q 220 -139 196 -139 l 242 -139 q 251 -142 247 -139 q 256 -153 256 -146 q 256 -153 256 -153 q 256 -157 256 -154 q 255 -166 256 -160 q 253 -183 254 -172 l 217 -183 q 149 -170 178 -183 q 99 -134 119 -157 q 69 -80 79 -111 q 58 -13 58 -49 q 70 77 58 34 q 97 160 83 119 q 124 241 112 201 q 136 324 136 281 z "},"|":{"ha":417,"x_min":140,"x_max":192,"o":"m 140 1053 l 192 1053 l 192 -244 l 140 -244 l 140 1053 z "},"}":{"ha":383,"x_min":2,"x_max":357,"o":"m 270 546 q 294 481 270 506 q 357 456 317 456 l 352 415 q 269 374 301 415 q 237 251 237 334 q 242 161 237 210 q 247 72 247 113 q 232 -34 247 13 q 190 -114 217 -81 q 124 -165 163 -147 q 38 -183 85 -183 l 2 -183 l 5 -155 q 13 -143 6 -147 q 24 -140 19 -140 l 44 -140 q 113 -122 85 -140 q 157 -74 140 -104 q 182 -7 174 -44 q 189 72 189 31 q 186 164 189 118 q 183 253 183 210 q 188 313 183 284 q 207 367 194 342 q 242 409 221 391 q 297 435 264 426 q 265 449 280 440 q 240 472 251 458 q 223 505 229 486 q 216 546 216 524 q 228 629 216 588 q 254 711 240 670 q 280 795 268 753 q 292 883 292 838 q 284 934 292 911 q 263 974 276 958 q 230 1000 249 991 q 186 1009 210 1009 l 165 1009 q 155 1013 160 1009 q 150 1023 150 1016 q 150 1024 150 1023 q 150 1027 150 1024 q 151 1036 151 1031 q 153 1053 152 1042 l 189 1053 q 257 1040 227 1053 q 307 1004 287 1027 q 338 950 327 981 q 348 883 348 919 q 336 793 348 836 q 309 710 324 751 q 282 629 294 669 q 270 546 270 589 z "},"~":{"ha":806,"x_min":56,"x_max":667,"o":"m 499 394 q 546 403 525 394 q 582 429 567 413 q 605 469 597 446 q 613 519 613 492 l 667 519 q 656 448 667 481 q 624 391 644 415 q 572 353 603 367 q 503 339 542 339 q 430 352 467 339 q 357 383 393 366 q 286 413 320 399 q 222 426 252 426 q 175 417 196 426 q 140 391 155 408 q 118 351 126 374 q 109 301 110 328 l 56 301 q 67 372 56 340 q 99 429 78 405 q 150 467 119 453 q 219 481 180 481 q 292 468 255 481 q 365 438 329 454 q 435 407 401 421 q 499 394 469 394 z "}," ":{"ha":268,"x_min":0,"x_max":0,"o":""},"¡":{"ha":414,"x_min":119,"x_max":307,"o":"m 119 -244 l 166 138 q 174 197 170 169 q 181 253 177 224 q 190 314 185 282 q 200 385 194 346 l 228 385 q 221 314 224 346 q 215 253 218 282 q 209 197 212 224 q 202 138 206 169 l 156 -244 l 119 -244 m 178 637 q 196 683 178 664 q 242 702 215 702 q 267 697 255 702 q 288 683 279 692 q 302 662 297 674 q 307 637 307 650 q 288 591 307 610 q 242 573 269 573 q 196 591 215 573 q 178 637 178 610 z "},"¢":{"ha":806,"x_min":108,"x_max":714,"o":"m 367 -8 q 260 18 308 -4 q 178 79 212 40 q 126 171 144 117 q 108 292 108 225 q 134 456 108 381 q 210 585 160 531 q 330 669 259 639 q 489 701 400 700 l 513 845 q 521 860 515 853 q 536 867 527 867 l 560 867 l 532 700 q 637 674 592 694 q 714 622 682 653 l 695 600 q 688 594 692 597 q 679 592 685 592 q 663 600 673 592 q 634 618 652 608 q 589 637 616 628 q 523 650 562 647 l 419 41 q 508 54 471 42 q 571 80 546 66 q 611 104 597 93 q 633 115 626 115 q 645 109 641 115 l 660 88 q 616 52 642 69 q 558 22 590 35 q 488 1 526 9 q 410 -8 451 -7 l 385 -155 q 378 -170 384 -164 q 363 -176 372 -176 l 339 -176 l 367 -8 m 171 295 q 185 194 171 239 q 226 117 199 149 q 290 66 252 85 q 376 42 328 47 l 480 651 q 350 623 407 649 q 253 551 292 597 q 192 440 213 505 q 171 295 171 375 z "},"£":{"ha":806,"x_min":22,"x_max":784,"o":"m 601 459 q 593 445 599 451 q 577 440 587 440 l 247 440 l 220 216 q 209 161 217 185 q 189 117 201 137 q 161 81 177 97 q 123 51 144 65 q 152 55 138 53 q 183 56 167 56 l 732 56 l 729 29 q 718 9 728 19 q 696 0 709 0 l 22 0 l 27 44 q 73 66 52 53 q 111 96 94 78 q 138 139 127 114 q 153 201 149 165 l 182 440 l 60 440 l 63 465 q 70 478 64 473 q 86 484 76 484 l 188 484 l 213 690 q 247 810 220 755 q 315 907 273 866 q 415 970 358 947 q 544 994 473 994 q 640 981 599 994 q 709 946 681 968 q 755 894 737 924 q 784 831 773 865 l 756 816 q 742 813 748 813 q 722 824 730 813 q 698 867 711 847 q 664 904 685 888 q 613 930 644 920 q 538 939 583 939 q 438 921 483 939 q 360 870 393 903 q 305 791 326 837 q 278 691 284 746 l 253 484 l 603 484 l 601 459 l 601 459 z "},"¤":{"ha":806,"x_min":138,"x_max":722,"o":"m 192 466 q 206 547 192 509 q 244 616 220 585 l 138 723 l 172 758 l 278 650 q 348 690 310 676 q 430 705 386 705 q 511 691 473 705 q 581 651 549 676 l 688 758 l 722 724 l 615 617 q 655 548 640 586 q 669 466 669 510 q 655 385 669 423 q 616 316 640 347 l 722 209 l 688 174 l 581 281 q 512 242 550 256 q 430 228 474 228 q 349 242 387 228 q 281 281 311 256 l 173 174 l 139 208 l 246 315 q 207 384 221 347 q 192 466 192 422 m 242 466 q 257 393 242 427 q 298 334 272 359 q 357 293 323 308 q 430 278 391 278 q 504 293 469 278 q 564 334 538 308 q 605 393 590 359 q 619 466 619 427 q 605 539 619 505 q 564 599 590 574 q 504 640 538 625 q 430 655 469 655 q 357 640 391 655 q 298 599 323 625 q 257 539 272 574 q 242 466 242 505 z "},"¥":{"ha":806,"x_min":103,"x_max":817,"o":"m 122 428 l 363 428 l 139 983 l 192 983 q 216 965 210 983 l 401 501 q 409 475 406 488 q 413 451 411 463 q 422 475 417 463 q 436 501 427 488 l 735 965 q 747 978 740 973 q 763 983 753 983 l 817 983 l 456 428 l 697 428 l 692 388 l 437 388 l 426 306 l 681 306 l 677 267 l 422 267 l 390 0 l 325 0 l 358 267 l 103 267 l 108 306 l 362 306 l 372 388 l 118 388 l 122 428 z "},"¦":{"ha":417,"x_min":140,"x_max":192,"o":"m 140 1053 l 192 1053 l 192 513 l 140 513 l 140 1053 m 140 295 l 192 295 l 192 -244 l 140 -244 l 140 295 z "},"§":{"ha":640,"x_min":61,"x_max":601,"o":"m 585 897 q 569 888 579 888 q 552 897 562 888 q 525 916 542 906 q 482 936 508 927 q 419 944 457 944 q 350 932 381 944 q 295 900 318 920 q 259 853 272 880 q 247 797 247 826 q 260 747 247 768 q 297 707 274 725 q 350 674 320 690 q 410 643 379 659 q 470 610 440 628 q 522 570 499 592 q 559 519 545 547 q 573 452 573 490 q 540 339 573 387 q 443 265 508 291 q 488 211 471 241 q 506 141 506 182 q 488 52 506 94 q 439 -22 471 10 q 359 -73 406 -54 q 254 -91 313 -91 q 141 -68 187 -91 q 61 -8 94 -45 l 79 16 q 99 26 86 26 q 118 15 108 26 q 147 -9 129 4 q 193 -33 165 -22 q 264 -44 221 -44 q 341 -30 307 -44 q 399 7 375 -17 q 435 61 422 30 q 447 126 447 92 q 422 198 447 169 q 359 249 397 226 q 276 291 321 271 q 194 336 232 311 q 131 394 156 360 q 106 477 106 428 q 140 584 106 536 q 253 660 175 632 q 206 713 224 683 q 188 786 188 743 q 206 865 188 827 q 254 931 223 902 q 329 976 285 959 q 425 993 372 993 q 525 975 483 993 q 601 920 568 957 l 585 897 m 164 493 q 175 446 164 467 q 206 408 187 425 q 251 375 226 390 q 304 347 276 360 q 360 318 332 333 q 414 286 389 303 q 491 350 468 313 q 515 435 515 387 q 504 484 515 463 q 476 524 494 506 q 436 556 459 542 q 387 584 413 571 q 335 610 361 597 q 284 639 308 624 q 191 573 217 609 q 164 493 164 538 z "},"¨":{"ha":375,"x_min":82,"x_max":434,"o":"m 197 907 q 192 886 197 896 q 179 868 187 876 q 160 856 171 860 q 139 851 150 851 q 117 856 127 851 q 99 868 107 860 q 86 886 91 876 q 82 907 82 896 q 86 929 82 919 q 99 948 91 940 q 117 960 107 956 q 139 965 127 965 q 160 960 150 965 q 179 948 171 956 q 192 929 187 940 q 197 907 197 919 m 434 907 q 429 886 434 896 q 417 868 424 876 q 399 856 409 860 q 377 851 388 851 q 355 856 365 851 q 337 868 344 860 q 325 886 329 876 q 320 907 320 896 q 337 948 320 931 q 377 965 353 965 q 399 960 388 965 q 417 948 409 956 q 429 929 424 940 q 434 907 434 919 z "},"©":{"ha":1120,"x_min":74,"x_max":1077,"o":"m 773 292 q 777 295 774 294 q 781 297 779 297 q 787 295 785 297 q 790 293 789 294 l 813 269 q 717 203 772 228 q 581 179 661 179 q 458 202 514 179 q 363 265 403 224 q 301 364 323 306 q 278 492 278 422 q 302 619 278 562 q 366 718 325 677 q 465 783 408 760 q 592 806 523 806 q 658 800 628 806 q 714 785 688 795 q 762 761 740 775 q 806 728 785 747 l 790 705 q 775 697 785 697 q 757 706 769 697 q 725 726 746 715 q 673 746 705 737 q 594 755 642 755 q 490 736 537 755 q 409 684 442 718 q 357 601 375 650 q 338 492 338 553 q 357 381 338 430 q 408 299 375 333 q 486 248 441 265 q 583 230 531 230 q 655 236 625 230 q 707 252 685 243 q 744 273 728 262 q 773 292 760 283 m 74 492 q 92 625 74 560 q 143 744 110 689 q 222 846 176 800 q 323 924 267 892 q 442 975 378 957 q 576 993 506 993 q 709 975 644 993 q 828 924 773 957 q 930 846 884 892 q 1008 744 976 800 q 1059 625 1041 689 q 1077 492 1077 560 q 1059 358 1077 422 q 1008 239 1041 294 q 930 138 976 183 q 828 59 884 92 q 709 8 773 26 q 576 -10 644 -10 q 443 8 507 -10 q 323 59 378 26 q 222 138 267 92 q 143 239 176 183 q 92 358 110 294 q 74 492 74 422 m 116 492 q 152 311 116 395 q 250 164 188 226 q 396 65 313 101 q 576 28 480 28 q 699 45 640 28 q 809 91 758 61 q 902 164 860 122 q 975 257 944 206 q 1021 368 1005 308 q 1038 492 1038 427 q 1001 673 1038 588 q 902 820 965 757 q 756 920 840 883 q 576 956 672 956 q 396 920 480 956 q 250 820 313 883 q 152 673 188 757 q 116 492 116 588 z "},"ª":{"ha":430,"x_min":108,"x_max":425,"o":"m 370 583 q 358 585 363 583 q 354 595 354 588 l 354 642 q 284 593 318 610 q 203 576 249 576 q 167 582 184 576 q 136 598 149 588 q 115 626 123 609 q 108 666 108 643 q 122 720 108 695 q 168 764 136 745 q 250 795 199 783 q 372 808 300 806 q 375 835 374 824 q 377 852 376 846 q 378 863 378 859 q 378 869 378 867 q 301 952 378 952 q 254 944 274 952 q 220 928 235 937 q 197 911 206 919 q 181 903 188 903 q 172 906 175 903 q 167 913 168 909 l 160 928 q 231 977 194 961 q 311 992 267 992 q 362 983 340 992 q 398 956 383 973 q 418 916 412 939 q 425 869 425 894 q 425 864 425 867 q 424 851 425 860 q 421 824 423 842 q 415 775 419 806 q 406 697 411 744 q 392 583 400 650 l 370 583 m 221 612 q 295 630 263 612 q 356 677 326 649 l 367 774 q 206 744 256 770 q 155 672 155 718 q 175 626 155 640 q 221 612 194 612 z "},"«":{"ha":568,"x_min":101,"x_max":483,"o":"m 101 356 l 103 365 l 290 627 l 309 617 q 318 603 318 612 q 310 585 318 594 l 170 380 q 152 360 158 365 q 165 341 158 355 l 256 136 q 259 123 259 128 q 246 103 259 110 l 224 93 l 101 356 m 266 356 l 267 365 l 454 627 l 474 617 q 483 603 483 612 q 475 585 483 594 l 335 380 q 317 360 323 365 q 329 341 323 355 l 420 136 q 424 123 424 128 q 410 103 424 110 l 388 93 l 266 356 z "},"¬":{"ha":806,"x_min":128,"x_max":708,"o":"m 133 490 l 708 490 l 676 236 l 622 236 l 647 441 l 128 441 l 133 490 z "},"­":{"ha":425,"x_min":69,"x_max":374,"o":"m 76 439 l 374 439 l 367 385 l 69 385 l 76 439 z "},"®":{"ha":1120,"x_min":78,"x_max":1081,"o":"m 78 492 q 97 625 78 560 q 147 744 115 689 q 226 846 180 800 q 327 924 272 892 q 447 975 383 957 q 580 993 510 993 q 713 975 649 993 q 833 924 777 957 q 934 846 888 892 q 1013 744 980 800 q 1063 625 1045 689 q 1081 492 1081 560 q 1063 358 1081 422 q 1013 239 1045 294 q 934 138 980 183 q 833 59 888 92 q 713 8 777 26 q 580 -10 649 -10 q 447 8 511 -10 q 327 59 383 26 q 226 138 272 92 q 147 239 180 183 q 97 358 115 294 q 78 492 78 422 m 120 492 q 156 311 120 395 q 254 164 192 226 q 400 65 317 101 q 580 28 484 28 q 703 45 644 28 q 813 91 762 61 q 907 164 865 122 q 979 257 949 206 q 1025 368 1009 308 q 1042 492 1042 427 q 1006 673 1042 588 q 907 820 969 757 q 760 920 844 883 q 580 956 676 956 q 400 920 484 956 q 254 820 317 883 q 156 673 192 757 q 120 492 120 588 m 453 456 l 453 185 l 394 185 l 394 799 l 565 799 q 726 759 672 799 q 781 638 781 719 q 736 524 781 568 q 610 468 692 479 q 624 456 618 463 q 638 440 631 449 l 835 185 l 781 185 q 759 196 767 185 l 571 440 q 557 452 565 447 q 529 456 549 456 l 453 456 m 453 501 l 556 501 q 681 534 640 501 q 722 631 722 568 q 685 724 722 695 q 565 753 648 753 l 453 753 l 453 501 z "},"¯":{"ha":375,"x_min":79,"x_max":434,"o":"m 84 914 l 434 914 l 428 869 l 79 869 l 84 914 z "},"°":{"ha":527,"x_min":112,"x_max":529,"o":"m 112 788 q 128 868 112 831 q 173 934 145 906 q 239 978 201 963 q 320 994 277 994 q 402 978 364 994 q 468 934 440 963 q 513 868 497 906 q 529 788 529 831 q 513 707 529 744 q 468 641 497 669 q 402 597 440 613 q 320 581 364 581 q 239 597 277 581 q 173 641 201 613 q 128 707 145 669 q 112 788 112 744 m 160 788 q 172 725 160 754 q 206 674 185 696 q 257 640 228 653 q 320 628 287 628 q 383 640 353 628 q 433 674 412 653 q 467 725 454 696 q 479 788 479 754 q 467 850 479 821 q 433 901 454 879 q 383 935 412 923 q 320 948 353 948 q 257 935 287 948 q 206 901 228 923 q 172 850 185 879 q 160 788 160 821 z "},"±":{"ha":806,"x_min":42,"x_max":750,"o":"m 484 799 l 449 517 l 750 517 l 744 468 l 443 468 l 409 188 l 356 188 l 390 468 l 92 468 l 98 517 l 397 517 l 431 799 l 484 799 m 47 105 l 699 105 l 693 56 l 42 56 l 47 105 z "},"²":{"ha":460,"x_min":99,"x_max":461,"o":"m 331 1126 q 382 1119 358 1126 q 424 1096 406 1111 q 451 1059 442 1081 q 461 1008 461 1037 q 450 950 461 976 q 422 900 440 924 q 381 855 404 876 q 332 810 358 833 l 169 663 q 196 668 182 666 q 223 669 210 669 l 416 669 q 431 656 431 669 q 431 649 431 654 q 429 639 430 644 l 428 625 l 99 625 l 101 642 q 113 663 102 653 l 297 827 q 342 869 321 849 q 378 911 363 890 q 403 955 394 933 q 412 1002 412 977 q 405 1039 412 1024 q 386 1065 398 1055 q 357 1081 374 1076 q 323 1086 341 1086 q 252 1063 283 1086 q 205 998 221 1040 q 197 988 202 990 q 185 985 192 985 q 178 985 181 985 l 153 990 q 218 1091 171 1056 q 331 1126 266 1126 z "},"³":{"ha":460,"x_min":122,"x_max":472,"o":"m 343 1126 q 394 1119 371 1126 q 435 1097 418 1111 q 463 1062 453 1083 q 472 1015 472 1041 q 443 930 472 963 q 365 883 413 897 q 432 847 410 873 q 455 781 455 821 q 440 715 455 744 q 400 664 425 685 q 342 631 375 642 q 274 619 310 619 q 206 630 233 619 q 161 658 178 640 q 136 699 144 676 q 122 747 127 722 l 144 756 q 156 758 151 758 q 173 743 170 758 q 179 721 174 735 q 194 693 183 707 q 225 670 206 680 q 277 660 245 660 q 332 670 308 660 q 372 697 356 681 q 397 734 388 714 q 406 776 406 755 q 399 811 406 795 q 377 838 392 826 q 339 856 363 849 q 282 862 315 862 l 286 897 q 389 926 353 898 q 424 1005 424 955 q 417 1041 424 1026 q 398 1066 410 1056 q 370 1081 386 1076 q 335 1085 354 1085 q 263 1063 292 1085 q 217 999 233 1040 q 199 985 211 985 q 193 985 195 985 l 168 990 q 193 1048 176 1023 q 233 1091 210 1074 q 284 1117 256 1108 q 343 1126 312 1126 z "},"´":{"ha":375,"x_min":189,"x_max":414,"o":"m 414 994 l 253 817 q 227 806 242 806 l 189 806 l 309 972 q 326 989 318 983 q 351 994 335 994 l 414 994 z "},"µ":{"ha":692,"x_min":18,"x_max":632,"o":"m 194 691 l 138 226 q 137 218 137 223 q 137 200 137 213 q 171 82 137 124 q 279 40 206 40 q 397 74 340 40 q 504 169 454 108 l 569 691 l 632 691 l 547 0 l 512 0 q 494 16 494 0 q 495 19 494 16 q 495 33 495 22 q 497 64 496 44 q 501 120 499 85 q 391 27 449 59 q 269 -4 334 -4 q 170 22 208 -4 q 114 94 132 47 q 110 37 113 65 q 104 -16 108 8 l 76 -244 l 44 -244 q 26 -238 33 -244 q 18 -217 18 -231 l 131 691 l 194 691 z "},"¶":{"ha":878,"x_min":84,"x_max":925,"o":"m 925 983 l 919 926 l 762 926 l 632 -132 l 573 -132 l 703 926 l 475 926 l 345 -132 l 285 -132 l 361 485 q 246 501 297 485 q 159 545 195 517 q 103 616 123 574 q 84 709 84 657 q 108 819 84 769 q 176 905 132 869 q 283 962 221 942 q 422 983 346 983 l 925 983 z "},"·":{"ha":369,"x_min":133,"x_max":274,"o":"m 133 411 q 139 439 133 426 q 154 462 144 452 q 176 477 163 472 q 202 483 188 483 q 230 477 217 483 q 253 462 243 472 q 268 439 263 452 q 274 411 274 426 q 268 384 274 397 q 253 362 263 372 q 230 347 243 353 q 202 342 217 342 q 176 347 188 342 q 154 362 163 353 q 139 384 144 372 q 133 411 133 397 z "},"¸":{"ha":375,"x_min":16,"x_max":236,"o":"m 36 -190 q 45 -194 40 -190 q 58 -202 50 -198 q 78 -211 66 -207 q 108 -215 90 -215 q 164 -197 144 -215 q 184 -151 184 -180 q 176 -125 184 -135 q 155 -108 169 -115 q 122 -97 141 -101 q 78 -90 102 -93 l 117 3 l 158 3 l 131 -64 q 209 -93 182 -74 q 236 -147 236 -112 q 226 -189 236 -170 q 199 -220 216 -207 q 157 -240 181 -233 q 106 -247 133 -247 q 56 -239 79 -247 q 16 -217 32 -231 l 25 -198 q 36 -190 31 -190 z "},"¹":{"ha":460,"x_min":167,"x_max":431,"o":"m 172 662 l 282 662 l 328 1035 l 334 1061 l 223 973 q 212 969 217 969 q 199 974 203 969 l 187 996 l 349 1123 l 388 1123 l 331 662 l 431 662 l 426 625 l 167 625 l 172 662 z "},"º":{"ha":478,"x_min":108,"x_max":479,"o":"m 319 992 q 387 980 358 992 q 437 944 417 967 q 468 889 458 921 q 479 817 479 856 q 464 717 479 762 q 422 641 449 672 q 356 592 394 609 q 269 574 317 574 q 200 587 230 574 q 150 622 170 599 q 118 677 129 645 q 108 749 108 710 q 123 849 108 804 q 165 926 138 894 q 232 975 192 958 q 319 992 271 992 m 274 613 q 341 628 312 613 q 390 669 370 642 q 419 733 409 696 q 429 817 429 771 q 401 916 429 878 q 315 953 372 953 q 245 938 275 953 q 197 896 216 923 q 168 831 177 869 q 158 749 158 794 q 187 650 158 687 q 274 613 215 613 z "},"»":{"ha":568,"x_min":88,"x_max":468,"o":"m 117 93 l 98 103 q 88 118 88 109 q 94 136 88 126 l 237 341 q 253 360 245 354 q 241 380 247 365 l 149 585 q 147 596 147 590 q 160 617 147 610 l 182 627 l 303 365 l 303 356 l 117 93 m 281 93 l 263 103 q 253 118 253 109 q 259 136 253 126 l 401 341 q 417 360 410 354 q 406 380 412 365 l 314 585 q 311 596 311 590 q 325 617 311 610 l 347 627 l 468 365 l 467 356 l 281 93 z "},"¼":{"ha":1024,"x_min":148,"x_max":956,"o":"m 867 174 l 956 174 l 953 147 q 940 136 952 136 l 863 136 l 847 0 l 804 0 l 821 136 l 594 136 q 578 147 578 136 l 577 171 l 862 496 l 907 496 l 867 174 m 291 22 q 273 4 283 8 q 251 0 263 0 l 225 0 l 855 958 q 895 983 870 983 l 923 983 l 291 22 m 153 524 l 263 524 l 309 897 l 315 923 l 211 840 q 199 832 203 833 q 192 831 194 831 q 180 836 183 831 l 167 858 l 329 985 l 369 985 l 312 524 l 411 524 l 407 487 l 148 487 l 153 524 m 854 406 q 857 424 856 415 q 861 444 858 433 l 628 174 l 826 174 l 854 406 z "},"½":{"ha":1024,"x_min":148,"x_max":939,"o":"m 260 22 q 242 4 252 8 q 221 0 233 0 l 194 0 l 824 958 q 865 983 840 983 l 892 983 l 260 22 m 808 501 q 860 494 836 501 q 902 471 884 486 q 929 434 919 456 q 939 383 939 412 q 928 325 939 351 q 900 275 917 299 q 859 230 882 251 q 810 185 835 208 l 647 38 q 674 43 660 41 q 701 44 688 44 l 894 44 q 909 31 909 44 q 909 29 909 31 q 908 22 909 28 l 906 0 l 577 0 l 578 17 q 582 27 580 22 q 590 38 585 33 l 775 202 q 820 244 799 224 q 856 286 841 265 q 881 330 872 308 q 890 377 890 352 q 883 414 890 399 q 864 440 876 430 q 835 456 851 451 q 801 461 819 461 q 727 437 758 461 q 683 373 697 413 q 663 360 678 360 q 658 360 662 360 q 648 362 653 360 l 631 365 q 696 466 649 431 q 808 501 744 501 m 153 524 l 263 524 l 309 897 l 315 923 l 211 840 q 199 832 203 833 q 192 831 194 831 q 180 836 183 831 l 167 858 l 329 985 l 369 985 l 312 524 l 411 524 l 407 487 l 148 487 l 153 524 z "},"¾":{"ha":1024,"x_min":114,"x_max":968,"o":"m 880 174 l 968 174 l 966 147 q 961 139 965 142 q 952 136 958 136 l 876 136 l 859 0 l 817 0 l 833 136 l 607 136 q 591 147 591 136 l 590 171 l 874 496 l 919 496 l 880 174 m 309 22 q 291 4 301 8 q 269 0 281 0 l 243 0 l 873 958 q 913 983 888 983 l 941 983 l 309 22 m 335 988 q 386 981 363 988 q 427 959 410 973 q 454 924 444 944 q 464 876 464 903 q 434 791 464 824 q 357 745 405 758 q 424 709 401 735 q 447 643 447 683 q 432 577 447 606 q 392 526 417 547 q 334 493 367 504 q 266 481 301 481 q 197 492 224 481 q 153 520 170 502 q 127 561 136 538 q 114 609 119 584 l 136 618 q 148 620 142 620 q 158 618 153 620 q 163 610 162 615 q 173 579 167 594 q 190 550 178 563 q 221 530 202 538 q 269 522 240 522 q 323 532 299 522 q 364 559 347 542 q 389 596 380 576 q 397 638 397 617 q 391 673 397 657 q 369 700 384 688 q 331 717 354 711 q 274 724 307 724 l 278 758 q 380 788 345 760 q 415 867 415 817 q 408 902 415 888 q 390 927 401 917 q 362 942 378 938 q 327 947 346 947 q 253 923 283 947 q 209 860 224 899 q 192 847 203 847 q 188 847 190 847 q 179 848 185 847 l 160 851 q 185 910 168 885 q 225 953 202 935 q 276 979 248 970 q 335 988 303 988 m 867 406 q 869 424 868 415 q 874 444 871 433 l 640 174 l 838 174 l 867 406 z "},"¿":{"ha":476,"x_min":-22,"x_max":397,"o":"m 397 -156 q 353 -192 376 -174 q 301 -223 329 -210 q 242 -245 274 -237 q 174 -253 210 -253 q 97 -240 133 -253 q 35 -203 61 -227 q -7 -146 8 -180 q -22 -69 -22 -112 q -5 28 -22 -12 q 39 98 13 69 q 96 148 65 126 q 155 188 127 169 q 203 226 183 206 q 228 271 224 245 l 251 385 l 294 385 l 283 266 q 262 214 281 236 q 216 173 243 192 q 159 133 190 153 q 102 87 128 113 q 59 26 76 61 q 42 -58 42 -9 q 54 -118 42 -92 q 85 -163 65 -144 q 130 -191 104 -181 q 185 -200 156 -200 q 259 -187 227 -200 q 315 -160 292 -175 q 351 -133 338 -146 q 369 -121 365 -121 q 378 -123 375 -121 q 383 -129 381 -126 l 397 -156 m 238 638 q 243 663 238 651 q 257 683 248 674 q 277 697 265 692 q 302 702 288 702 q 327 697 315 702 q 348 683 339 692 q 361 663 356 674 q 367 638 367 651 q 361 612 367 624 q 348 592 356 601 q 327 578 339 583 q 302 574 315 574 q 257 592 275 574 q 238 638 238 610 z "},"À":{"ha":819,"x_min":-36,"x_max":772,"o":"m 772 0 l 719 0 q 704 5 710 0 q 696 18 698 10 l 626 306 l 185 306 l 45 18 q 34 5 42 10 q 17 0 26 0 l -36 0 l 455 983 l 523 983 l 772 0 m 210 356 l 614 356 l 492 856 q 486 883 489 868 q 481 913 483 897 q 475 900 479 909 q 467 883 472 892 q 460 866 463 874 q 455 856 456 858 l 210 356 m 383 1229 q 406 1226 399 1229 q 421 1214 413 1223 l 548 1071 l 497 1071 q 484 1073 489 1071 q 473 1081 479 1076 l 308 1229 l 383 1229 z "},"Á":{"ha":819,"x_min":-36,"x_max":772,"o":"m 772 0 l 719 0 q 704 5 710 0 q 696 18 698 10 l 626 306 l 185 306 l 45 18 q 34 5 42 10 q 17 0 26 0 l -36 0 l 455 983 l 523 983 l 772 0 m 210 356 l 614 356 l 492 856 q 486 883 489 868 q 481 913 483 897 q 475 900 479 909 q 467 883 472 892 q 460 866 463 874 q 455 856 456 858 l 210 356 m 716 1229 l 514 1081 q 501 1073 506 1076 q 487 1071 495 1071 l 436 1071 l 599 1214 q 616 1226 608 1223 q 640 1229 624 1229 l 716 1229 z "},"Â":{"ha":819,"x_min":-36,"x_max":772,"o":"m 772 0 l 719 0 q 704 5 710 0 q 696 18 698 10 l 626 306 l 185 306 l 45 18 q 34 5 42 10 q 17 0 26 0 l -36 0 l 455 983 l 523 983 l 772 0 m 210 356 l 614 356 l 492 856 q 486 883 489 868 q 481 913 483 897 q 475 900 479 909 q 467 883 472 892 q 460 866 463 874 q 455 856 456 858 l 210 356 m 674 1071 l 624 1071 q 614 1073 619 1071 q 604 1078 608 1074 l 511 1169 q 508 1172 510 1170 q 506 1174 507 1173 q 501 1169 504 1171 l 385 1078 q 374 1073 380 1074 q 362 1071 367 1071 l 313 1071 l 480 1209 l 540 1209 l 674 1071 z "},"Ã":{"ha":819,"x_min":-36,"x_max":772,"o":"m 772 0 l 719 0 q 704 5 710 0 q 696 18 698 10 l 626 306 l 185 306 l 45 18 q 34 5 42 10 q 17 0 26 0 l -36 0 l 455 983 l 523 983 l 772 0 m 210 356 l 614 356 l 492 856 q 486 883 489 868 q 481 913 483 897 q 475 900 479 909 q 467 883 472 892 q 460 866 463 874 q 455 856 456 858 l 210 356 m 582 1122 q 625 1141 608 1122 q 646 1190 641 1160 l 682 1190 q 670 1145 678 1166 q 649 1109 663 1124 q 618 1085 636 1094 q 578 1076 600 1076 q 539 1088 556 1076 q 505 1112 521 1099 q 473 1136 488 1125 q 440 1147 457 1147 q 398 1127 414 1147 q 377 1078 381 1108 l 339 1078 q 350 1123 342 1102 q 373 1159 359 1144 q 404 1183 386 1174 q 444 1192 422 1192 q 484 1181 466 1192 q 518 1157 502 1169 q 550 1133 534 1144 q 582 1122 565 1122 z "},"Ä":{"ha":819,"x_min":-36,"x_max":772,"o":"m 772 0 l 719 0 q 704 5 710 0 q 696 18 698 10 l 626 306 l 185 306 l 45 18 q 34 5 42 10 q 17 0 26 0 l -36 0 l 455 983 l 523 983 l 772 0 m 210 356 l 614 356 l 492 856 q 486 883 489 868 q 481 913 483 897 q 475 900 479 909 q 467 883 472 892 q 460 866 463 874 q 455 856 456 858 l 210 356 m 436 1156 q 420 1119 436 1135 q 382 1104 403 1104 q 345 1119 361 1104 q 329 1156 329 1135 q 345 1194 329 1178 q 382 1210 361 1210 q 420 1194 403 1210 q 436 1156 436 1178 m 669 1156 q 653 1119 669 1135 q 615 1104 637 1104 q 578 1119 594 1104 q 563 1156 563 1135 q 578 1194 563 1178 q 615 1210 594 1210 q 653 1194 637 1210 q 669 1156 669 1178 z "},"Å":{"ha":819,"x_min":-36,"x_max":772,"o":"m 772 0 l 719 0 q 704 5 710 0 q 696 18 698 10 l 626 306 l 185 306 l 45 18 q 34 5 42 10 q 17 0 26 0 l -36 0 l 455 983 l 523 983 l 772 0 m 210 356 l 614 356 l 492 856 q 486 883 489 868 q 481 913 483 897 q 475 900 479 909 q 467 883 472 892 q 460 866 463 874 q 455 856 456 858 l 210 356 m 380 1132 q 389 1176 380 1156 q 414 1211 399 1197 q 451 1234 430 1226 q 495 1242 472 1242 q 540 1234 519 1242 q 577 1211 562 1226 q 602 1176 593 1197 q 612 1132 612 1156 q 602 1088 612 1108 q 577 1053 593 1067 q 540 1030 562 1038 q 495 1022 519 1022 q 451 1030 472 1022 q 414 1053 430 1038 q 389 1088 399 1067 q 380 1132 380 1108 m 417 1132 q 439 1075 417 1097 q 496 1053 460 1053 q 553 1075 531 1053 q 575 1132 575 1097 q 553 1189 575 1167 q 496 1211 531 1211 q 439 1189 460 1211 q 417 1132 417 1167 z "},"Æ":{"ha":1179,"x_min":-56,"x_max":1178,"o":"m 1172 926 l 650 926 l 650 525 l 1043 525 l 1035 469 l 650 469 l 650 57 l 1066 57 l 1058 0 l 585 0 l 585 306 l 207 306 l 28 18 q 15 5 23 10 q -2 0 8 0 l -56 0 l 560 983 l 1178 983 l 1172 926 m 238 356 l 585 356 l 585 926 q 571 894 578 909 q 555 865 563 879 l 238 356 z "},"Ç":{"ha":880,"x_min":91,"x_max":880,"o":"m 361 -190 q 370 -194 365 -190 q 383 -202 375 -198 q 403 -211 391 -207 q 433 -215 415 -215 q 489 -197 469 -215 q 509 -151 509 -180 q 501 -125 509 -135 q 480 -108 494 -115 q 447 -97 466 -101 q 403 -90 427 -93 l 436 -10 q 293 26 357 -6 q 184 115 229 59 q 115 247 140 170 q 91 415 91 323 q 130 650 91 544 q 237 833 169 757 q 398 952 306 910 q 599 994 491 994 q 690 986 649 994 q 764 963 730 978 q 825 924 797 947 q 880 872 853 901 l 858 844 q 840 836 851 836 q 817 851 831 836 q 776 885 803 867 q 705 919 749 903 q 595 934 662 934 q 424 898 503 934 q 287 795 345 862 q 195 633 228 728 q 161 420 161 538 q 184 265 161 334 q 248 148 207 196 q 346 74 289 99 q 472 48 403 48 q 563 57 522 48 q 634 78 603 65 q 688 106 665 91 q 726 134 710 121 q 752 155 742 147 q 768 164 763 164 q 777 160 774 164 l 801 131 q 735 74 770 99 q 661 30 701 49 q 575 1 621 12 q 476 -11 529 -10 l 456 -64 q 534 -93 507 -74 q 561 -147 561 -112 q 551 -189 561 -170 q 524 -220 541 -207 q 482 -240 506 -233 q 431 -247 458 -247 q 381 -239 404 -247 q 341 -217 357 -231 l 350 -198 q 361 -190 356 -190 z "},"È":{"ha":755,"x_min":91,"x_max":755,"o":"m 747 926 l 274 926 l 225 526 l 619 526 l 611 470 l 218 470 l 167 57 l 642 57 l 635 0 l 91 0 l 212 983 l 755 983 l 747 926 m 388 1229 q 411 1226 403 1229 q 426 1214 418 1223 l 553 1071 l 502 1071 q 489 1073 494 1071 q 478 1081 484 1076 l 313 1229 l 388 1229 z "},"É":{"ha":755,"x_min":91,"x_max":755,"o":"m 747 926 l 274 926 l 225 526 l 619 526 l 611 470 l 218 470 l 167 57 l 642 57 l 635 0 l 91 0 l 212 983 l 755 983 l 747 926 m 715 1229 l 513 1081 q 500 1073 506 1076 q 486 1071 494 1071 l 435 1071 l 598 1214 q 616 1226 608 1223 q 640 1229 624 1229 l 715 1229 z "},"Ê":{"ha":755,"x_min":91,"x_max":755,"o":"m 747 926 l 274 926 l 225 526 l 619 526 l 611 470 l 218 470 l 167 57 l 642 57 l 635 0 l 91 0 l 212 983 l 755 983 l 747 926 m 678 1071 l 629 1071 q 618 1073 624 1071 q 609 1078 613 1074 l 516 1169 q 513 1172 515 1170 q 511 1174 512 1173 q 506 1169 509 1171 l 390 1078 q 378 1073 385 1074 q 367 1071 372 1071 l 317 1071 l 485 1209 l 545 1209 l 678 1071 z "},"Ë":{"ha":755,"x_min":91,"x_max":755,"o":"m 747 926 l 274 926 l 225 526 l 619 526 l 611 470 l 218 470 l 167 57 l 642 57 l 635 0 l 91 0 l 212 983 l 755 983 l 747 926 m 441 1156 q 425 1119 441 1135 q 387 1104 408 1104 q 350 1119 366 1104 q 334 1156 334 1135 q 350 1194 334 1178 q 387 1210 366 1210 q 425 1194 408 1210 q 441 1156 441 1178 m 674 1156 q 658 1119 674 1135 q 620 1104 642 1104 q 583 1119 599 1104 q 567 1156 567 1135 q 583 1194 567 1178 q 620 1210 599 1210 q 658 1194 642 1210 q 674 1156 674 1178 z "},"Ì":{"ha":382,"x_min":90,"x_max":330,"o":"m 184 0 l 115 0 l 235 983 l 304 983 l 184 0 m 165 1229 q 188 1226 181 1229 q 203 1214 195 1223 l 330 1071 l 279 1071 q 266 1073 271 1071 q 255 1081 261 1076 l 90 1229 l 165 1229 z "},"Í":{"ha":382,"x_min":115,"x_max":492,"o":"m 184 0 l 115 0 l 235 983 l 304 983 l 184 0 m 492 1229 l 290 1081 q 277 1073 283 1076 q 263 1071 272 1071 l 213 1071 l 375 1214 q 393 1226 385 1223 q 417 1229 401 1229 l 492 1229 z "},"Î":{"ha":382,"x_min":94,"x_max":456,"o":"m 184 0 l 115 0 l 235 983 l 304 983 l 184 0 m 456 1071 l 406 1071 q 395 1073 401 1071 q 386 1078 390 1074 l 293 1169 q 290 1172 292 1170 q 288 1174 289 1173 q 283 1169 286 1171 l 167 1078 q 156 1073 162 1074 q 144 1071 149 1071 l 94 1071 l 262 1209 l 322 1209 l 456 1071 z "},"Ï":{"ha":382,"x_min":111,"x_max":451,"o":"m 184 0 l 115 0 l 235 983 l 304 983 l 184 0 m 218 1156 q 202 1119 218 1135 q 164 1104 185 1104 q 127 1119 143 1104 q 111 1156 111 1135 q 127 1194 111 1178 q 164 1210 143 1210 q 202 1194 185 1210 q 218 1156 218 1178 m 451 1156 q 435 1119 451 1135 q 397 1104 419 1104 q 360 1119 376 1104 q 344 1156 344 1135 q 360 1194 344 1178 q 397 1210 376 1210 q 435 1194 419 1210 q 451 1156 451 1178 z "},"Ð":{"ha":1006,"x_min":48,"x_max":956,"o":"m 53 519 l 191 519 l 248 983 l 578 983 q 735 953 665 983 q 854 869 805 924 q 929 738 903 815 q 956 566 956 661 q 918 331 956 436 q 814 153 881 226 q 656 40 747 79 q 458 0 565 0 l 127 0 l 185 476 l 48 476 l 53 519 m 884 565 q 862 716 884 649 q 800 830 840 783 q 701 901 759 876 q 572 926 643 926 l 310 926 l 260 519 l 517 519 l 513 476 l 255 476 l 203 56 l 465 56 q 633 91 556 56 q 766 190 710 125 q 853 350 822 256 q 884 565 884 444 z "},"Ñ":{"ha":965,"x_min":91,"x_max":912,"o":"m 246 983 q 260 980 256 983 q 269 969 265 978 l 746 114 q 747 132 747 124 q 749 149 747 141 l 851 983 l 912 983 l 791 0 l 759 0 q 733 15 742 0 l 256 871 l 254 840 l 151 0 l 91 0 l 212 983 l 246 983 l 246 983 m 656 1122 q 698 1141 682 1122 q 719 1190 715 1160 l 756 1190 q 744 1145 752 1166 q 723 1109 736 1124 q 692 1085 710 1094 q 651 1076 674 1076 q 612 1088 630 1076 q 578 1112 594 1099 q 546 1136 562 1125 q 514 1147 531 1147 q 471 1127 488 1147 q 451 1078 455 1108 l 413 1078 q 424 1123 415 1102 q 446 1159 433 1144 q 478 1183 460 1174 q 518 1192 496 1192 q 558 1181 540 1192 q 592 1157 576 1169 q 623 1133 608 1144 q 656 1122 639 1122 z "},"Ò":{"ha":1017,"x_min":91,"x_max":967,"o":"m 967 567 q 930 331 967 437 q 824 149 892 224 q 665 31 757 73 q 467 -10 574 -10 q 311 20 381 -10 q 193 108 242 51 q 117 242 144 164 q 91 416 91 321 q 129 652 91 545 q 234 834 167 758 q 393 952 301 910 q 590 994 484 994 q 747 963 677 994 q 866 876 817 932 q 941 741 915 819 q 967 567 967 662 m 896 565 q 874 719 896 651 q 811 836 852 788 q 712 910 770 884 q 583 936 654 936 q 415 900 492 936 q 282 797 338 864 q 193 633 225 729 q 161 418 161 538 q 183 264 161 333 q 247 148 206 196 q 345 74 288 100 q 474 48 403 48 q 643 84 566 48 q 776 187 720 119 q 864 350 833 254 q 896 565 896 445 m 480 1229 q 503 1226 496 1229 q 518 1214 510 1223 l 645 1071 l 594 1071 q 581 1073 586 1071 q 570 1081 576 1076 l 405 1229 l 480 1229 z "},"Ó":{"ha":1017,"x_min":91,"x_max":967,"o":"m 967 567 q 930 331 967 437 q 824 149 892 224 q 665 31 757 73 q 467 -10 574 -10 q 311 20 381 -10 q 193 108 242 51 q 117 242 144 164 q 91 416 91 321 q 129 652 91 545 q 234 834 167 758 q 393 952 301 910 q 590 994 484 994 q 747 963 677 994 q 866 876 817 932 q 941 741 915 819 q 967 567 967 662 m 896 565 q 874 719 896 651 q 811 836 852 788 q 712 910 770 884 q 583 936 654 936 q 415 900 492 936 q 282 797 338 864 q 193 633 225 729 q 161 418 161 538 q 183 264 161 333 q 247 148 206 196 q 345 74 288 100 q 474 48 403 48 q 643 84 566 48 q 776 187 720 119 q 864 350 833 254 q 896 565 896 445 m 808 1229 l 606 1081 q 592 1073 598 1076 q 578 1071 587 1071 l 528 1071 l 690 1214 q 708 1226 700 1223 q 732 1229 716 1229 l 808 1229 z "},"Ô":{"ha":1017,"x_min":91,"x_max":967,"o":"m 967 567 q 930 331 967 437 q 824 149 892 224 q 665 31 757 73 q 467 -10 574 -10 q 311 20 381 -10 q 193 108 242 51 q 117 242 144 164 q 91 416 91 321 q 129 652 91 545 q 234 834 167 758 q 393 952 301 910 q 590 994 484 994 q 747 963 677 994 q 866 876 817 932 q 941 741 915 819 q 967 567 967 662 m 896 565 q 874 719 896 651 q 811 836 852 788 q 712 910 770 884 q 583 936 654 936 q 415 900 492 936 q 282 797 338 864 q 193 633 225 729 q 161 418 161 538 q 183 264 161 333 q 247 148 206 196 q 345 74 288 100 q 474 48 403 48 q 643 84 566 48 q 776 187 720 119 q 864 350 833 254 q 896 565 896 445 m 771 1071 l 722 1071 q 711 1073 717 1071 q 701 1078 705 1074 l 608 1169 q 606 1172 607 1170 q 603 1174 604 1173 q 598 1169 601 1171 l 482 1078 q 471 1073 477 1074 q 459 1071 465 1071 l 410 1071 l 577 1209 l 638 1209 l 771 1071 z "},"Õ":{"ha":1017,"x_min":91,"x_max":967,"o":"m 967 567 q 930 331 967 437 q 824 149 892 224 q 665 31 757 73 q 467 -10 574 -10 q 311 20 381 -10 q 193 108 242 51 q 117 242 144 164 q 91 416 91 321 q 129 652 91 545 q 234 834 167 758 q 393 952 301 910 q 590 994 484 994 q 747 963 677 994 q 866 876 817 932 q 941 741 915 819 q 967 567 967 662 m 896 565 q 874 719 896 651 q 811 836 852 788 q 712 910 770 884 q 583 936 654 936 q 415 900 492 936 q 282 797 338 864 q 193 633 225 729 q 161 418 161 538 q 183 264 161 333 q 247 148 206 196 q 345 74 288 100 q 474 48 403 48 q 643 84 566 48 q 776 187 720 119 q 864 350 833 254 q 896 565 896 445 m 679 1122 q 722 1141 706 1122 q 743 1190 738 1160 l 779 1190 q 768 1145 776 1166 q 747 1109 760 1124 q 715 1085 733 1094 q 675 1076 697 1076 q 636 1088 653 1076 q 602 1112 618 1099 q 570 1136 585 1125 q 538 1147 554 1147 q 495 1127 511 1147 q 474 1078 478 1108 l 436 1078 q 448 1123 439 1102 q 470 1159 456 1144 q 501 1183 483 1174 q 542 1192 519 1192 q 581 1181 563 1192 q 615 1157 599 1169 q 647 1133 631 1144 q 679 1122 663 1122 z "},"Ö":{"ha":1017,"x_min":91,"x_max":967,"o":"m 967 567 q 930 331 967 437 q 824 149 892 224 q 665 31 757 73 q 467 -10 574 -10 q 311 20 381 -10 q 193 108 242 51 q 117 242 144 164 q 91 416 91 321 q 129 652 91 545 q 234 834 167 758 q 393 952 301 910 q 590 994 484 994 q 747 963 677 994 q 866 876 817 932 q 941 741 915 819 q 967 567 967 662 m 896 565 q 874 719 896 651 q 811 836 852 788 q 712 910 770 884 q 583 936 654 936 q 415 900 492 936 q 282 797 338 864 q 193 633 225 729 q 161 418 161 538 q 183 264 161 333 q 247 148 206 196 q 345 74 288 100 q 474 48 403 48 q 643 84 566 48 q 776 187 720 119 q 864 350 833 254 q 896 565 896 445 m 533 1156 q 517 1119 533 1135 q 479 1104 501 1104 q 442 1119 458 1104 q 426 1156 426 1135 q 442 1194 426 1178 q 479 1210 458 1210 q 517 1194 501 1210 q 533 1156 533 1178 m 766 1156 q 750 1119 766 1135 q 713 1104 734 1104 q 675 1119 691 1104 q 660 1156 660 1135 q 675 1194 660 1178 q 713 1210 691 1210 q 750 1194 734 1210 q 766 1156 766 1178 z "},"×":{"ha":806,"x_min":90,"x_max":740,"o":"m 740 720 l 453 465 l 679 207 l 642 172 l 414 431 l 121 170 l 90 206 l 383 466 l 158 722 l 197 758 l 422 501 l 708 756 l 740 720 z "},"Ø":{"ha":1017,"x_min":55,"x_max":997,"o":"m 967 567 q 930 331 967 437 q 824 149 892 224 q 665 31 757 73 q 467 -10 574 -10 q 334 11 394 -10 q 228 72 274 33 l 128 -51 q 106 -68 118 -63 q 83 -73 94 -73 l 55 -73 l 197 103 q 118 239 145 159 q 91 416 91 318 q 129 652 91 545 q 234 834 167 758 q 393 952 301 910 q 590 994 484 994 q 729 970 666 994 q 840 902 792 946 l 924 1007 q 940 1023 933 1019 q 960 1027 947 1027 l 997 1027 l 870 870 q 942 737 917 814 q 967 567 967 660 m 161 418 q 181 270 161 336 q 239 156 201 204 l 798 850 q 703 914 758 892 q 583 936 649 936 q 415 900 492 936 q 282 797 338 864 q 193 633 225 729 q 161 418 161 538 m 896 565 q 878 705 896 642 q 826 816 860 768 l 269 124 q 360 67 308 86 q 474 48 412 48 q 643 84 566 48 q 776 187 720 119 q 864 350 833 254 q 896 565 896 445 z "},"Ù":{"ha":937,"x_min":124,"x_max":892,"o":"m 433 49 q 551 74 497 49 q 646 142 606 99 q 713 246 687 186 q 748 374 740 306 l 822 983 l 892 983 l 817 374 q 774 223 806 293 q 691 100 742 152 q 572 18 640 48 q 425 -12 505 -12 q 298 13 353 -12 q 203 81 242 38 q 144 183 165 124 q 124 313 124 242 q 128 374 124 343 l 203 983 l 272 983 l 197 375 q 195 347 196 361 q 194 319 194 333 q 209 211 194 261 q 255 126 225 162 q 330 69 285 90 q 433 49 374 49 m 442 1229 q 466 1226 458 1229 q 481 1214 473 1223 l 608 1071 l 557 1071 q 544 1073 549 1071 q 533 1081 539 1076 l 367 1229 l 442 1229 z "},"Ú":{"ha":937,"x_min":124,"x_max":892,"o":"m 433 49 q 551 74 497 49 q 646 142 606 99 q 713 246 687 186 q 748 374 740 306 l 822 983 l 892 983 l 817 374 q 774 223 806 293 q 691 100 742 152 q 572 18 640 48 q 425 -12 505 -12 q 298 13 353 -12 q 203 81 242 38 q 144 183 165 124 q 124 313 124 242 q 128 374 124 343 l 203 983 l 272 983 l 197 375 q 195 347 196 361 q 194 319 194 333 q 209 211 194 261 q 255 126 225 162 q 330 69 285 90 q 433 49 374 49 m 770 1229 l 568 1081 q 555 1073 560 1076 q 541 1071 549 1071 l 490 1071 l 653 1214 q 670 1226 663 1223 q 694 1229 678 1229 l 770 1229 z "},"Û":{"ha":937,"x_min":124,"x_max":892,"o":"m 433 49 q 551 74 497 49 q 646 142 606 99 q 713 246 687 186 q 748 374 740 306 l 822 983 l 892 983 l 817 374 q 774 223 806 293 q 691 100 742 152 q 572 18 640 48 q 425 -12 505 -12 q 298 13 353 -12 q 203 81 242 38 q 144 183 165 124 q 124 313 124 242 q 128 374 124 343 l 203 983 l 272 983 l 197 375 q 195 347 196 361 q 194 319 194 333 q 209 211 194 261 q 255 126 225 162 q 330 69 285 90 q 433 49 374 49 m 733 1071 l 684 1071 q 673 1073 679 1071 q 664 1078 667 1074 l 571 1169 q 568 1172 569 1170 q 566 1174 567 1173 q 560 1169 564 1171 l 444 1078 q 433 1073 440 1074 q 422 1071 427 1071 l 372 1071 l 540 1209 l 600 1209 l 733 1071 z "},"Ü":{"ha":937,"x_min":124,"x_max":892,"o":"m 433 49 q 551 74 497 49 q 646 142 606 99 q 713 246 687 186 q 748 374 740 306 l 822 983 l 892 983 l 817 374 q 774 223 806 293 q 691 100 742 152 q 572 18 640 48 q 425 -12 505 -12 q 298 13 353 -12 q 203 81 242 38 q 144 183 165 124 q 124 313 124 242 q 128 374 124 343 l 203 983 l 272 983 l 197 375 q 195 347 196 361 q 194 319 194 333 q 209 211 194 261 q 255 126 225 162 q 330 69 285 90 q 433 49 374 49 m 496 1156 q 480 1119 496 1135 q 442 1104 463 1104 q 405 1119 421 1104 q 389 1156 389 1135 q 405 1194 389 1178 q 442 1210 421 1210 q 480 1194 463 1210 q 496 1156 496 1178 m 728 1156 q 713 1119 728 1135 q 675 1104 697 1104 q 638 1119 653 1104 q 622 1156 622 1135 q 638 1194 622 1178 q 675 1210 653 1210 q 713 1194 697 1210 q 728 1156 728 1178 z "},"Ý":{"ha":769,"x_min":94,"x_max":832,"o":"m 427 405 l 376 0 l 308 0 l 358 406 l 94 983 l 155 983 q 170 978 165 983 q 178 965 175 973 l 386 501 q 394 478 392 490 q 399 456 397 467 q 411 478 405 467 q 425 501 417 490 l 747 965 q 758 978 752 973 q 774 983 765 983 l 832 983 l 427 405 m 692 1229 l 490 1081 q 477 1073 483 1076 q 463 1071 472 1071 l 413 1071 l 575 1214 q 593 1226 585 1223 q 617 1229 601 1229 l 692 1229 z "},"Þ":{"ha":760,"x_min":151,"x_max":773,"o":"m 316 784 l 484 784 q 700 719 628 784 q 773 538 773 655 q 747 400 773 463 q 674 293 722 338 q 560 224 626 249 q 412 199 493 199 l 244 199 l 220 0 l 151 0 l 272 983 l 341 983 l 316 784 m 310 729 l 251 254 l 419 254 q 536 275 484 254 q 626 333 589 296 q 683 420 663 369 q 703 531 703 471 q 647 677 703 626 q 476 729 591 729 l 310 729 z "},"ß":{"ha":711,"x_min":41,"x_max":685,"o":"m 481 994 q 570 979 532 994 q 634 938 608 963 q 673 881 660 913 q 685 817 685 849 q 667 733 685 768 q 623 672 649 699 q 565 625 596 646 q 507 584 533 604 q 462 541 480 564 q 444 489 444 519 q 460 443 444 460 q 500 411 476 425 q 552 385 524 398 q 604 352 580 372 q 644 304 628 333 q 660 229 660 275 q 641 132 660 176 q 589 56 622 88 q 511 7 556 24 q 412 -11 465 -11 q 303 12 347 -11 q 226 73 260 35 l 244 96 q 264 106 252 106 q 283 95 272 106 q 311 71 294 84 q 356 47 329 58 q 422 36 382 36 q 495 50 463 36 q 551 88 528 64 q 586 144 574 112 q 599 213 599 176 q 582 276 599 252 q 541 317 566 301 q 488 346 516 334 q 434 374 459 358 q 393 413 409 390 q 376 472 376 435 q 395 540 376 511 q 441 591 413 568 q 500 636 468 615 q 560 682 533 657 q 606 738 588 706 q 624 813 624 769 q 617 856 624 833 q 591 900 609 880 q 544 933 573 919 q 472 946 515 946 q 384 923 427 946 q 307 859 342 900 q 249 762 273 818 q 217 641 225 706 l 139 15 l 110 -145 q 98 -167 107 -160 q 76 -174 89 -174 l 51 -174 l 149 619 l 58 626 q 41 641 41 626 l 44 669 l 156 669 q 198 794 168 735 q 272 898 228 853 q 368 968 315 942 q 481 994 422 994 z "},"à":{"ha":681,"x_min":42,"x_max":613,"o":"m 532 0 l 500 0 q 482 6 487 0 q 476 22 476 13 l 499 239 q 441 138 473 183 q 374 60 410 92 q 299 9 338 27 q 217 -9 259 -9 q 140 8 173 -9 q 86 56 108 25 q 53 132 64 88 q 42 232 42 176 q 57 350 42 292 q 100 460 72 408 q 167 556 128 513 q 253 632 206 600 q 353 682 300 664 q 464 700 407 700 q 542 693 506 700 q 613 667 578 685 l 532 0 m 238 46 q 316 68 278 46 q 390 131 355 90 q 455 229 424 172 q 510 356 486 286 l 545 637 q 456 651 504 651 q 366 635 410 651 q 284 592 322 619 q 213 526 245 564 q 157 442 181 488 q 120 346 133 397 q 108 242 108 295 q 139 98 108 149 q 238 46 171 46 m 386 994 q 409 989 402 994 q 422 972 416 983 l 501 806 l 465 806 q 442 817 450 806 l 324 994 l 386 994 z "},"á":{"ha":681,"x_min":42,"x_max":623,"o":"m 532 0 l 500 0 q 482 6 487 0 q 476 22 476 13 l 499 239 q 441 138 473 183 q 374 60 410 92 q 299 9 338 27 q 217 -9 259 -9 q 140 8 173 -9 q 86 56 108 25 q 53 132 64 88 q 42 232 42 176 q 57 350 42 292 q 100 460 72 408 q 167 556 128 513 q 253 632 206 600 q 353 682 300 664 q 464 700 407 700 q 542 693 506 700 q 613 667 578 685 l 532 0 m 238 46 q 316 68 278 46 q 390 131 355 90 q 455 229 424 172 q 510 356 486 286 l 545 637 q 456 651 504 651 q 366 635 410 651 q 284 592 322 619 q 213 526 245 564 q 157 442 181 488 q 120 346 133 397 q 108 242 108 295 q 139 98 108 149 q 238 46 171 46 m 623 994 l 462 817 q 436 806 451 806 l 398 806 l 518 972 q 535 989 527 983 q 560 994 544 994 l 623 994 z "},"â":{"ha":681,"x_min":42,"x_max":613,"o":"m 532 0 l 500 0 q 482 6 487 0 q 476 22 476 13 l 499 239 q 441 138 473 183 q 374 60 410 92 q 299 9 338 27 q 217 -9 259 -9 q 140 8 173 -9 q 86 56 108 25 q 53 132 64 88 q 42 232 42 176 q 57 350 42 292 q 100 460 72 408 q 167 556 128 513 q 253 632 206 600 q 353 682 300 664 q 464 700 407 700 q 542 693 506 700 q 613 667 578 685 l 532 0 m 238 46 q 316 68 278 46 q 390 131 355 90 q 455 229 424 172 q 510 356 486 286 l 545 637 q 456 651 504 651 q 366 635 410 651 q 284 592 322 619 q 213 526 245 564 q 157 442 181 488 q 120 346 133 397 q 108 242 108 295 q 139 98 108 149 q 238 46 171 46 m 611 812 l 569 812 q 552 820 558 812 l 467 934 l 461 942 l 453 934 l 340 820 q 331 814 336 817 q 321 812 326 812 l 276 812 l 436 983 l 494 983 l 611 812 z "},"ã":{"ha":681,"x_min":42,"x_max":631,"o":"m 532 0 l 500 0 q 482 6 487 0 q 476 22 476 13 l 499 239 q 441 138 473 183 q 374 60 410 92 q 299 9 338 27 q 217 -9 259 -9 q 140 8 173 -9 q 86 56 108 25 q 53 132 64 88 q 42 232 42 176 q 57 350 42 292 q 100 460 72 408 q 167 556 128 513 q 253 632 206 600 q 353 682 300 664 q 464 700 407 700 q 542 693 506 700 q 613 667 578 685 l 532 0 m 238 46 q 316 68 278 46 q 390 131 355 90 q 455 229 424 172 q 510 356 486 286 l 545 637 q 456 651 504 651 q 366 635 410 651 q 284 592 322 619 q 213 526 245 564 q 157 442 181 488 q 120 346 133 397 q 108 242 108 295 q 139 98 108 149 q 238 46 171 46 m 526 888 q 570 907 554 888 q 591 959 586 926 l 631 959 q 619 913 628 934 q 597 875 610 891 q 564 850 583 859 q 523 841 545 841 q 484 852 501 841 q 452 878 467 864 q 421 903 436 892 q 390 915 406 915 q 347 894 363 915 q 325 843 330 874 l 285 843 q 297 890 288 868 q 320 927 306 912 q 353 952 335 943 q 394 961 372 961 q 433 950 415 961 q 465 925 450 938 q 495 900 481 911 q 526 888 510 888 z "},"ä":{"ha":681,"x_min":42,"x_max":633,"o":"m 532 0 l 500 0 q 482 6 487 0 q 476 22 476 13 l 499 239 q 441 138 473 183 q 374 60 410 92 q 299 9 338 27 q 217 -9 259 -9 q 140 8 173 -9 q 86 56 108 25 q 53 132 64 88 q 42 232 42 176 q 57 350 42 292 q 100 460 72 408 q 167 556 128 513 q 253 632 206 600 q 353 682 300 664 q 464 700 407 700 q 542 693 506 700 q 613 667 578 685 l 532 0 m 238 46 q 316 68 278 46 q 390 131 355 90 q 455 229 424 172 q 510 356 486 286 l 545 637 q 456 651 504 651 q 366 635 410 651 q 284 592 322 619 q 213 526 245 564 q 157 442 181 488 q 120 346 133 397 q 108 242 108 295 q 139 98 108 149 q 238 46 171 46 m 395 907 q 390 886 395 896 q 377 868 385 876 q 359 856 369 860 q 338 851 349 851 q 316 856 326 851 q 298 868 306 860 q 285 886 290 876 q 281 907 281 896 q 285 929 281 919 q 298 948 290 940 q 316 960 306 956 q 338 965 326 965 q 359 960 349 965 q 377 948 369 956 q 390 929 385 940 q 395 907 395 919 m 633 907 q 628 886 633 896 q 615 868 623 876 q 597 856 608 860 q 576 851 587 851 q 553 856 564 851 q 535 868 543 860 q 523 886 528 876 q 519 907 519 896 q 535 948 519 931 q 576 965 552 965 q 597 960 587 965 q 615 948 608 956 q 628 929 623 940 q 633 907 633 919 z "},"å":{"ha":681,"x_min":42,"x_max":613,"o":"m 532 0 l 500 0 q 482 6 487 0 q 476 22 476 13 l 499 239 q 441 138 473 183 q 374 60 410 92 q 299 9 338 27 q 217 -9 259 -9 q 140 8 173 -9 q 86 56 108 25 q 53 132 64 88 q 42 232 42 176 q 57 350 42 292 q 100 460 72 408 q 167 556 128 513 q 253 632 206 600 q 353 682 300 664 q 464 700 407 700 q 542 693 506 700 q 613 667 578 685 l 532 0 m 238 46 q 316 68 278 46 q 390 131 355 90 q 455 229 424 172 q 510 356 486 286 l 545 637 q 456 651 504 651 q 366 635 410 651 q 284 592 322 619 q 213 526 245 564 q 157 442 181 488 q 120 346 133 397 q 108 242 108 295 q 139 98 108 149 q 238 46 171 46 m 350 904 q 359 950 350 929 q 385 986 369 971 q 423 1009 401 1001 q 469 1018 445 1018 q 516 1009 494 1018 q 554 986 538 1001 q 580 950 570 971 q 590 904 590 929 q 580 859 590 879 q 554 823 570 838 q 516 799 538 808 q 469 791 494 791 q 423 799 445 791 q 385 823 401 808 q 359 859 369 838 q 350 904 350 879 m 390 904 q 413 847 390 869 q 470 825 435 825 q 527 847 505 825 q 549 904 549 869 q 527 961 549 939 q 470 983 505 983 q 413 961 435 983 q 390 904 390 939 z "},"æ":{"ha":993,"x_min":35,"x_max":963,"o":"m 774 702 q 844 691 812 702 q 900 659 876 680 q 937 611 924 639 q 950 549 950 583 q 928 473 950 509 q 857 410 907 437 q 724 366 807 383 q 520 349 642 349 q 518 292 518 320 q 566 108 518 172 q 699 44 615 44 q 765 52 735 44 q 818 72 794 60 q 859 99 842 85 q 891 125 877 113 q 915 145 905 138 q 933 153 925 153 q 947 147 941 153 l 963 128 q 897 67 929 93 q 832 24 865 41 q 763 -1 799 7 q 687 -9 727 -9 q 552 40 606 -9 q 477 181 497 89 q 426 91 458 128 q 358 32 394 54 q 282 -1 321 9 q 210 -11 244 -11 q 139 -2 172 -11 q 84 27 107 8 q 48 77 60 47 q 35 149 35 107 q 59 244 35 201 q 135 319 83 288 q 269 369 188 351 q 467 391 351 388 l 474 450 q 477 476 476 464 q 478 500 478 488 q 446 611 478 573 q 351 649 414 649 q 271 635 305 649 q 213 605 238 622 q 173 575 189 589 q 147 561 157 561 q 128 574 133 561 l 119 593 q 232 675 176 647 q 358 703 289 703 q 477 661 437 703 q 525 545 517 619 q 627 660 565 619 q 774 702 690 702 m 461 348 q 297 331 365 344 q 184 293 228 317 q 118 235 140 269 q 97 158 97 201 q 106 103 97 126 q 132 65 115 80 q 172 43 149 50 q 222 35 194 35 q 302 51 264 35 q 372 96 341 67 q 424 169 403 126 q 451 267 444 212 l 461 348 m 767 653 q 677 634 717 653 q 606 581 637 615 q 555 498 575 547 q 525 389 534 449 q 700 406 630 392 q 813 440 770 419 q 874 488 856 461 q 892 547 892 515 q 858 625 892 597 q 767 653 824 653 z "},"ç":{"ha":598,"x_min":50,"x_max":582,"o":"m 189 -190 q 198 -194 192 -190 q 211 -202 203 -198 q 231 -211 219 -207 q 261 -215 243 -215 q 317 -197 297 -215 q 337 -151 337 -180 q 329 -125 337 -135 q 308 -108 322 -115 q 274 -97 294 -101 q 231 -90 255 -93 l 265 -8 q 170 17 210 -5 q 103 75 130 39 q 63 160 76 112 q 50 267 50 209 q 61 375 50 322 q 94 478 73 429 q 147 567 116 526 q 215 638 177 608 q 298 685 253 668 q 394 702 343 702 q 455 695 428 702 q 506 677 483 689 q 547 647 528 665 q 582 608 566 630 l 563 585 q 548 578 556 578 q 531 589 541 578 q 504 613 521 600 q 460 637 487 626 q 392 648 433 648 q 283 617 333 648 q 195 533 233 585 q 137 411 158 480 q 116 267 116 342 q 127 178 116 219 q 160 107 138 137 q 217 60 183 77 q 297 44 251 44 q 363 52 334 44 q 415 72 392 60 q 455 98 438 83 q 485 124 472 112 q 507 143 498 135 q 524 151 517 151 q 539 144 533 151 l 553 126 q 488 63 519 88 q 428 22 458 38 q 368 0 398 7 q 306 -8 338 -7 l 283 -64 q 362 -93 335 -74 q 389 -147 389 -112 q 379 -189 389 -170 q 351 -220 369 -207 q 310 -240 334 -233 q 258 -247 286 -247 q 208 -239 232 -247 q 169 -217 185 -231 l 178 -198 q 189 -190 183 -190 z "},"è":{"ha":622,"x_min":49,"x_max":582,"o":"m 582 559 q 574 505 582 531 q 547 456 567 479 q 494 413 528 433 q 409 375 461 392 q 285 345 357 358 q 115 321 213 331 q 113 292 114 306 q 113 264 113 278 q 159 102 113 160 q 301 44 206 44 q 367 52 338 44 q 420 72 397 60 q 461 99 443 85 q 492 125 478 113 q 516 145 506 138 q 535 153 526 153 q 549 147 543 153 l 565 128 q 498 66 531 92 q 433 24 466 40 q 365 -1 400 7 q 289 -9 329 -9 q 186 10 231 -9 q 111 64 142 29 q 65 150 81 99 q 49 263 49 200 q 59 367 49 315 q 90 469 69 420 q 141 560 110 517 q 210 633 171 602 q 296 683 249 665 q 398 701 343 701 q 484 686 449 701 q 541 651 519 672 q 572 605 563 630 q 582 559 582 581 m 394 652 q 294 628 339 652 q 215 566 249 605 q 157 475 181 526 q 123 367 134 423 q 275 389 211 376 q 383 416 339 402 q 455 447 428 431 q 498 482 483 464 q 518 518 513 499 q 524 557 524 537 q 517 589 524 572 q 495 619 510 606 q 455 643 480 633 q 394 652 431 652 m 315 994 q 338 989 331 994 q 351 972 345 983 l 431 806 l 394 806 q 371 817 379 806 l 253 994 l 315 994 z "},"é":{"ha":622,"x_min":49,"x_max":582,"o":"m 582 559 q 574 505 582 531 q 547 456 567 479 q 494 413 528 433 q 409 375 461 392 q 285 345 357 358 q 115 321 213 331 q 113 292 114 306 q 113 264 113 278 q 159 102 113 160 q 301 44 206 44 q 367 52 338 44 q 420 72 397 60 q 461 99 443 85 q 492 125 478 113 q 516 145 506 138 q 535 153 526 153 q 549 147 543 153 l 565 128 q 498 66 531 92 q 433 24 466 40 q 365 -1 400 7 q 289 -9 329 -9 q 186 10 231 -9 q 111 64 142 29 q 65 150 81 99 q 49 263 49 200 q 59 367 49 315 q 90 469 69 420 q 141 560 110 517 q 210 633 171 602 q 296 683 249 665 q 398 701 343 701 q 484 686 449 701 q 541 651 519 672 q 572 605 563 630 q 582 559 582 581 m 394 652 q 294 628 339 652 q 215 566 249 605 q 157 475 181 526 q 123 367 134 423 q 275 389 211 376 q 383 416 339 402 q 455 447 428 431 q 498 482 483 464 q 518 518 513 499 q 524 557 524 537 q 517 589 524 572 q 495 619 510 606 q 455 643 480 633 q 394 652 431 652 m 569 994 l 408 817 q 383 806 398 806 l 344 806 l 465 972 q 482 989 474 983 q 506 994 490 994 l 569 994 z "},"ê":{"ha":622,"x_min":49,"x_max":582,"o":"m 582 559 q 574 505 582 531 q 547 456 567 479 q 494 413 528 433 q 409 375 461 392 q 285 345 357 358 q 115 321 213 331 q 113 292 114 306 q 113 264 113 278 q 159 102 113 160 q 301 44 206 44 q 367 52 338 44 q 420 72 397 60 q 461 99 443 85 q 492 125 478 113 q 516 145 506 138 q 535 153 526 153 q 549 147 543 153 l 565 128 q 498 66 531 92 q 433 24 466 40 q 365 -1 400 7 q 289 -9 329 -9 q 186 10 231 -9 q 111 64 142 29 q 65 150 81 99 q 49 263 49 200 q 59 367 49 315 q 90 469 69 420 q 141 560 110 517 q 210 633 171 602 q 296 683 249 665 q 398 701 343 701 q 484 686 449 701 q 541 651 519 672 q 572 605 563 630 q 582 559 582 581 m 394 652 q 294 628 339 652 q 215 566 249 605 q 157 475 181 526 q 123 367 134 423 q 275 389 211 376 q 383 416 339 402 q 455 447 428 431 q 498 482 483 464 q 518 518 513 499 q 524 557 524 537 q 517 589 524 572 q 495 619 510 606 q 455 643 480 633 q 394 652 431 652 m 568 812 l 526 812 q 509 820 515 812 l 424 934 l 418 942 l 410 934 l 297 820 q 288 814 293 817 q 278 812 283 812 l 233 812 l 393 983 l 451 983 l 568 812 z "},"ë":{"ha":622,"x_min":49,"x_max":590,"o":"m 582 559 q 574 505 582 531 q 547 456 567 479 q 494 413 528 433 q 409 375 461 392 q 285 345 357 358 q 115 321 213 331 q 113 292 114 306 q 113 264 113 278 q 159 102 113 160 q 301 44 206 44 q 367 52 338 44 q 420 72 397 60 q 461 99 443 85 q 492 125 478 113 q 516 145 506 138 q 535 153 526 153 q 549 147 543 153 l 565 128 q 498 66 531 92 q 433 24 466 40 q 365 -1 400 7 q 289 -9 329 -9 q 186 10 231 -9 q 111 64 142 29 q 65 150 81 99 q 49 263 49 200 q 59 367 49 315 q 90 469 69 420 q 141 560 110 517 q 210 633 171 602 q 296 683 249 665 q 398 701 343 701 q 484 686 449 701 q 541 651 519 672 q 572 605 563 630 q 582 559 582 581 m 394 652 q 294 628 339 652 q 215 566 249 605 q 157 475 181 526 q 123 367 134 423 q 275 389 211 376 q 383 416 339 402 q 455 447 428 431 q 498 482 483 464 q 518 518 513 499 q 524 557 524 537 q 517 589 524 572 q 495 619 510 606 q 455 643 480 633 q 394 652 431 652 m 352 907 q 347 886 352 896 q 334 868 342 876 q 316 856 326 860 q 294 851 306 851 q 273 856 283 851 q 255 868 263 860 q 242 886 247 876 q 238 907 238 896 q 242 929 238 919 q 255 948 247 940 q 273 960 263 956 q 294 965 283 965 q 316 960 306 965 q 334 948 326 956 q 347 929 342 940 q 352 907 352 919 m 590 907 q 585 886 590 896 q 572 868 580 876 q 554 856 565 860 q 533 851 544 851 q 510 856 521 851 q 492 868 500 860 q 480 886 485 876 q 476 907 476 896 q 492 948 476 931 q 533 965 509 965 q 554 960 544 965 q 572 948 565 956 q 585 929 580 940 q 590 907 590 919 z "},"ì":{"ha":316,"x_min":67,"x_max":244,"o":"m 232 691 l 148 0 l 83 0 l 167 691 l 232 691 m 129 994 q 152 989 145 994 q 165 972 159 983 l 244 806 l 208 806 q 185 817 193 806 l 67 994 l 129 994 z "},"í":{"ha":316,"x_min":83,"x_max":383,"o":"m 232 691 l 148 0 l 83 0 l 167 691 l 232 691 m 383 994 l 222 817 q 196 806 211 806 l 158 806 l 278 972 q 295 989 287 983 q 319 994 303 994 l 383 994 z "},"î":{"ha":316,"x_min":46,"x_max":381,"o":"m 232 691 l 148 0 l 83 0 l 167 691 l 232 691 m 381 812 l 339 812 q 322 820 328 812 l 237 934 l 231 942 l 224 934 l 110 820 q 101 814 106 817 q 91 812 97 812 l 46 812 l 206 983 l 264 983 l 381 812 z "},"ï":{"ha":316,"x_min":51,"x_max":403,"o":"m 232 691 l 148 0 l 83 0 l 167 691 l 232 691 m 165 907 q 160 886 165 896 q 148 868 156 876 q 129 856 140 860 q 108 851 119 851 q 86 856 96 851 q 68 868 76 860 q 55 886 60 876 q 51 907 51 896 q 55 929 51 919 q 68 948 60 940 q 86 960 76 956 q 108 965 96 965 q 129 960 119 965 q 148 948 140 956 q 160 929 156 940 q 165 907 165 919 m 403 907 q 398 886 403 896 q 385 868 393 876 q 367 856 378 860 q 346 851 357 851 q 324 856 334 851 q 306 868 313 860 q 293 886 298 876 q 289 907 289 896 q 306 948 289 931 q 346 965 322 965 q 367 960 357 965 q 385 948 378 956 q 398 929 393 940 q 403 907 403 919 z "},"ð":{"ha":688,"x_min":51,"x_max":647,"o":"m 341 743 q 338 752 338 749 q 344 764 338 758 l 441 848 q 365 889 406 872 q 276 917 324 906 q 260 933 260 922 q 263 945 260 940 l 272 966 q 382 935 328 956 q 483 878 436 914 l 594 973 l 606 953 q 608 944 608 949 q 601 931 608 937 l 512 853 q 567 790 542 826 q 610 711 592 755 q 638 615 628 667 q 647 501 647 563 q 625 298 647 391 q 558 136 603 204 q 448 30 514 68 q 295 -8 383 -8 q 198 11 242 -8 q 120 67 153 31 q 69 155 88 103 q 51 269 51 206 q 73 412 51 345 q 138 530 96 479 q 239 610 180 581 q 372 640 299 640 q 439 630 406 640 q 501 601 472 621 q 555 551 531 581 q 594 478 578 520 q 594 489 594 483 q 594 501 594 495 q 563 692 594 613 q 472 824 531 772 l 353 723 l 341 743 m 302 42 q 485 130 415 42 q 579 395 556 218 q 558 465 573 431 q 518 527 543 500 q 459 572 494 555 q 376 589 424 589 q 265 564 314 589 q 183 496 216 539 q 132 395 149 453 q 115 273 115 338 q 129 177 115 219 q 169 104 144 134 q 228 58 194 74 q 302 42 263 42 z "},"ñ":{"ha":711,"x_min":65,"x_max":632,"o":"m 65 0 l 149 693 l 178 693 q 202 668 202 693 l 182 468 q 245 566 210 523 q 317 640 279 610 q 396 686 356 670 q 477 701 436 701 q 593 651 554 701 q 632 506 632 600 q 632 491 632 499 q 630 466 631 483 q 624 417 628 449 q 615 332 621 385 q 599 197 608 278 q 576 0 590 116 l 510 0 l 563 442 q 567 502 567 474 q 540 609 567 572 q 456 646 513 646 q 377 626 417 646 q 300 570 338 606 q 231 482 263 533 q 173 365 198 430 l 131 0 l 65 0 m 507 890 q 551 909 535 890 q 572 960 567 928 l 611 960 q 600 914 608 935 q 577 876 591 892 q 544 851 563 860 q 503 842 526 842 q 465 854 482 842 q 432 879 448 865 q 402 905 417 893 q 370 916 387 916 q 327 896 344 916 q 306 844 310 876 l 265 844 q 277 891 268 869 q 301 929 287 913 q 334 953 315 944 q 374 963 352 963 q 413 951 396 963 q 446 926 431 940 q 476 901 461 913 q 507 890 490 890 z "},"ò":{"ha":686,"x_min":49,"x_max":637,"o":"m 301 43 q 411 75 362 43 q 497 159 461 106 q 551 279 532 211 q 570 418 570 347 q 521 590 570 529 q 384 650 472 650 q 308 636 344 650 q 243 596 273 622 q 189 535 213 570 q 149 458 165 500 q 124 370 133 417 q 115 275 115 324 q 164 104 115 165 q 301 43 213 43 m 296 -9 q 195 10 240 -9 q 117 67 149 30 q 67 156 85 103 q 49 275 49 208 q 74 436 49 359 q 145 573 99 514 q 253 667 190 632 q 390 702 315 702 q 491 682 446 702 q 569 626 537 663 q 619 537 601 590 q 637 419 637 484 q 611 258 637 335 q 541 121 586 181 q 433 26 496 62 q 296 -9 371 -9 m 313 995 q 336 990 329 995 q 349 973 343 985 l 428 808 l 392 808 q 369 819 377 808 l 251 995 l 313 995 z "},"ó":{"ha":686,"x_min":49,"x_max":637,"o":"m 301 43 q 411 75 362 43 q 497 159 461 106 q 551 279 532 211 q 570 418 570 347 q 521 590 570 529 q 384 650 472 650 q 308 636 344 650 q 243 596 273 622 q 189 535 213 570 q 149 458 165 500 q 124 370 133 417 q 115 275 115 324 q 164 104 115 165 q 301 43 213 43 m 296 -9 q 195 10 240 -9 q 117 67 149 30 q 67 156 85 103 q 49 275 49 208 q 74 436 49 359 q 145 573 99 514 q 253 667 190 632 q 390 702 315 702 q 491 682 446 702 q 569 626 537 663 q 619 537 601 590 q 637 419 637 484 q 611 258 637 335 q 541 121 586 181 q 433 26 496 62 q 296 -9 371 -9 m 567 995 l 406 819 q 380 808 395 808 l 342 808 l 462 973 q 479 990 471 985 q 503 995 488 995 l 567 995 z "},"ô":{"ha":686,"x_min":49,"x_max":637,"o":"m 301 43 q 411 75 362 43 q 497 159 461 106 q 551 279 532 211 q 570 418 570 347 q 521 590 570 529 q 384 650 472 650 q 308 636 344 650 q 243 596 273 622 q 189 535 213 570 q 149 458 165 500 q 124 370 133 417 q 115 275 115 324 q 164 104 115 165 q 301 43 213 43 m 296 -9 q 195 10 240 -9 q 117 67 149 30 q 67 156 85 103 q 49 275 49 208 q 74 436 49 359 q 145 573 99 514 q 253 667 190 632 q 390 702 315 702 q 491 682 446 702 q 569 626 537 663 q 619 537 601 590 q 637 419 637 484 q 611 258 637 335 q 541 121 586 181 q 433 26 496 62 q 296 -9 371 -9 m 565 813 l 523 813 q 506 822 513 813 l 421 935 l 415 944 l 408 935 l 294 822 q 285 816 290 818 q 275 813 281 813 l 230 813 l 390 984 l 448 984 l 565 813 z "},"õ":{"ha":686,"x_min":49,"x_max":637,"o":"m 301 43 q 411 75 362 43 q 497 159 461 106 q 551 279 532 211 q 570 418 570 347 q 521 590 570 529 q 384 650 472 650 q 308 636 344 650 q 243 596 273 622 q 189 535 213 570 q 149 458 165 500 q 124 370 133 417 q 115 275 115 324 q 164 104 115 165 q 301 43 213 43 m 296 -9 q 195 10 240 -9 q 117 67 149 30 q 67 156 85 103 q 49 275 49 208 q 74 436 49 359 q 145 573 99 514 q 253 667 190 632 q 390 702 315 702 q 491 682 446 702 q 569 626 537 663 q 619 537 601 590 q 637 419 637 484 q 611 258 637 335 q 541 121 586 181 q 433 26 496 62 q 296 -9 371 -9 m 481 890 q 524 909 508 890 q 545 960 540 928 l 585 960 q 573 914 582 935 q 551 876 565 892 q 518 851 537 860 q 477 842 499 842 q 439 854 456 842 q 406 879 422 865 q 375 905 390 893 q 344 916 360 916 q 301 896 317 916 q 279 844 284 876 l 239 844 q 251 891 242 869 q 275 929 260 913 q 307 953 289 944 q 348 963 326 963 q 387 951 369 963 q 419 926 404 940 q 449 901 435 913 q 481 890 464 890 z "},"ö":{"ha":686,"x_min":49,"x_max":637,"o":"m 301 43 q 411 75 362 43 q 497 159 461 106 q 551 279 532 211 q 570 418 570 347 q 521 590 570 529 q 384 650 472 650 q 308 636 344 650 q 243 596 273 622 q 189 535 213 570 q 149 458 165 500 q 124 370 133 417 q 115 275 115 324 q 164 104 115 165 q 301 43 213 43 m 296 -9 q 195 10 240 -9 q 117 67 149 30 q 67 156 85 103 q 49 275 49 208 q 74 436 49 359 q 145 573 99 514 q 253 667 190 632 q 390 702 315 702 q 491 682 446 702 q 569 626 537 663 q 619 537 601 590 q 637 419 637 484 q 611 258 637 335 q 541 121 586 181 q 433 26 496 62 q 296 -9 371 -9 m 349 908 q 344 887 349 897 q 332 869 340 877 q 313 857 324 862 q 292 853 303 853 q 270 857 280 853 q 252 869 260 862 q 239 887 244 877 q 235 908 235 897 q 239 931 235 920 q 252 949 244 941 q 270 961 260 957 q 292 966 280 966 q 313 961 303 966 q 332 949 324 957 q 344 931 340 941 q 349 908 349 920 m 587 908 q 582 887 587 897 q 569 869 577 877 q 551 857 562 862 q 530 853 541 853 q 508 857 518 853 q 490 869 497 862 q 477 887 482 877 q 473 908 473 897 q 490 949 473 932 q 530 966 506 966 q 551 961 541 966 q 569 949 562 957 q 582 931 577 941 q 587 908 587 920 z "},"÷":{"ha":806,"x_min":89,"x_max":747,"o":"m 95 490 l 747 490 l 741 441 l 89 441 l 95 490 m 384 704 q 390 732 384 719 q 405 755 395 745 q 427 771 415 765 q 455 776 440 776 q 496 759 480 776 q 512 718 512 742 q 506 691 512 703 q 490 668 500 678 q 467 654 480 659 q 440 649 453 649 q 399 665 415 649 q 384 704 384 681 m 323 210 q 328 238 323 224 q 344 261 334 251 q 366 276 353 271 q 394 282 379 282 q 435 265 419 282 q 451 224 451 248 q 445 196 451 209 q 429 174 439 183 q 406 159 419 165 q 378 154 393 154 q 339 170 354 154 q 323 210 323 187 z "},"ø":{"ha":686,"x_min":22,"x_max":659,"o":"m 296 -9 q 141 43 203 -9 l 92 -24 q 72 -41 83 -35 q 49 -46 60 -46 l 22 -46 l 110 74 q 65 161 81 110 q 49 275 49 212 q 74 436 49 359 q 145 573 99 514 q 253 667 190 632 q 390 702 315 702 q 477 688 438 702 q 547 648 516 674 l 590 706 q 604 722 598 717 q 624 726 610 726 l 659 726 l 578 616 q 622 530 606 579 q 637 419 637 480 q 611 258 637 335 q 541 121 586 181 q 433 26 496 62 q 296 -9 371 -9 m 112 275 q 150 119 112 180 l 510 604 q 384 653 460 653 q 274 623 324 653 q 188 540 224 592 q 132 419 151 488 q 112 275 112 350 m 301 40 q 412 71 362 40 q 498 155 463 102 q 554 275 534 207 q 574 418 574 344 q 564 502 574 464 q 538 569 555 540 l 178 85 q 301 40 227 40 z "},"ù":{"ha":710,"x_min":79,"x_max":645,"o":"m 201 691 l 149 251 q 144 191 144 219 q 171 83 144 120 q 256 46 198 46 q 333 65 294 46 q 408 121 372 85 q 478 209 445 158 q 535 324 510 260 l 580 691 l 645 691 l 562 0 l 531 0 q 512 7 518 0 q 506 26 506 14 l 527 222 q 464 124 499 167 q 392 52 430 81 q 314 7 354 22 q 233 -9 274 -9 q 118 42 156 -9 q 79 188 79 93 q 80 201 79 194 q 82 226 80 208 q 87 275 83 244 q 97 360 90 306 q 112 494 103 414 q 135 691 122 575 l 201 691 m 310 995 q 333 990 326 995 q 346 973 340 985 l 426 808 l 389 808 q 366 819 374 808 l 249 995 l 310 995 z "},"ú":{"ha":710,"x_min":79,"x_max":645,"o":"m 201 691 l 149 251 q 144 191 144 219 q 171 83 144 120 q 256 46 198 46 q 333 65 294 46 q 408 121 372 85 q 478 209 445 158 q 535 324 510 260 l 580 691 l 645 691 l 562 0 l 531 0 q 512 7 518 0 q 506 26 506 14 l 527 222 q 464 124 499 167 q 392 52 430 81 q 314 7 354 22 q 233 -9 274 -9 q 118 42 156 -9 q 79 188 79 93 q 80 201 79 194 q 82 226 80 208 q 87 275 83 244 q 97 360 90 306 q 112 494 103 414 q 135 691 122 575 l 201 691 m 564 995 l 403 819 q 377 808 392 808 l 339 808 l 459 973 q 476 990 468 985 q 501 995 485 995 l 564 995 z "},"û":{"ha":710,"x_min":79,"x_max":645,"o":"m 201 691 l 149 251 q 144 191 144 219 q 171 83 144 120 q 256 46 198 46 q 333 65 294 46 q 408 121 372 85 q 478 209 445 158 q 535 324 510 260 l 580 691 l 645 691 l 562 0 l 531 0 q 512 7 518 0 q 506 26 506 14 l 527 222 q 464 124 499 167 q 392 52 430 81 q 314 7 354 22 q 233 -9 274 -9 q 118 42 156 -9 q 79 188 79 93 q 80 201 79 194 q 82 226 80 208 q 87 275 83 244 q 97 360 90 306 q 112 494 103 414 q 135 691 122 575 l 201 691 m 563 813 l 520 813 q 503 822 510 813 l 418 935 l 413 944 l 405 935 l 291 822 q 283 816 288 818 q 272 813 278 813 l 227 813 l 388 984 l 445 984 l 563 813 z "},"ü":{"ha":710,"x_min":79,"x_max":645,"o":"m 201 691 l 149 251 q 144 191 144 219 q 171 83 144 120 q 256 46 198 46 q 333 65 294 46 q 408 121 372 85 q 478 209 445 158 q 535 324 510 260 l 580 691 l 645 691 l 562 0 l 531 0 q 512 7 518 0 q 506 26 506 14 l 527 222 q 464 124 499 167 q 392 52 430 81 q 314 7 354 22 q 233 -9 274 -9 q 118 42 156 -9 q 79 188 79 93 q 80 201 79 194 q 82 226 80 208 q 87 275 83 244 q 97 360 90 306 q 112 494 103 414 q 135 691 122 575 l 201 691 m 347 908 q 342 887 347 897 q 329 869 337 877 q 310 857 321 862 q 289 853 300 853 q 267 857 277 853 q 249 869 257 862 q 236 887 241 877 q 232 908 232 897 q 236 931 232 920 q 249 949 241 941 q 267 961 257 957 q 289 966 277 966 q 310 961 300 966 q 329 949 321 957 q 342 931 337 941 q 347 908 347 920 m 584 908 q 579 887 584 897 q 567 869 574 877 q 549 857 559 862 q 527 853 538 853 q 505 857 515 853 q 487 869 494 862 q 475 887 479 877 q 470 908 470 897 q 487 949 470 932 q 527 966 503 966 q 549 961 538 966 q 567 949 559 957 q 579 931 574 941 q 584 908 584 920 z "},"ý":{"ha":627,"x_min":60,"x_max":654,"o":"m 174 -225 q 146 -244 165 -244 l 99 -244 l 245 26 l 60 691 l 111 691 q 125 686 121 691 q 132 674 130 682 l 278 137 q 282 116 281 126 q 284 95 283 106 q 293 116 288 106 q 303 137 297 127 l 581 676 q 591 688 585 684 q 603 691 597 691 l 654 691 l 174 -225 m 537 995 l 376 819 q 350 808 365 808 l 312 808 l 432 973 q 449 990 441 985 q 474 995 458 995 l 537 995 z "},"þ":{"ha":707,"x_min":41,"x_max":664,"o":"m 41 -244 l 194 1010 l 259 1010 l 191 458 q 251 557 218 513 q 322 634 285 602 q 399 684 359 666 q 481 701 440 701 q 560 684 526 701 q 617 635 594 667 q 652 558 640 603 q 664 458 664 513 q 653 349 664 404 q 621 242 642 294 q 571 144 601 190 q 504 65 542 99 q 422 11 467 31 q 327 -9 377 -9 q 223 16 271 -9 q 146 90 176 41 l 108 -217 q 99 -237 107 -229 q 79 -244 91 -244 l 41 -244 m 460 648 q 380 626 420 648 q 303 563 340 603 q 234 465 266 522 q 176 339 201 408 l 152 142 q 186 96 167 115 q 227 65 206 77 q 272 48 249 53 q 319 43 295 43 q 401 61 363 43 q 470 109 439 78 q 525 180 501 140 q 566 266 549 221 q 591 359 582 311 q 599 451 599 406 q 564 596 599 544 q 460 648 528 648 z "},"ÿ":{"ha":627,"x_min":60,"x_max":654,"o":"m 174 -225 q 146 -244 165 -244 l 99 -244 l 245 26 l 60 691 l 111 691 q 125 686 121 691 q 132 674 130 682 l 278 137 q 282 116 281 126 q 284 95 283 106 q 293 116 288 106 q 303 137 297 127 l 581 676 q 591 688 585 684 q 603 691 597 691 l 654 691 l 174 -225 m 319 908 q 315 887 319 897 q 302 869 310 877 q 283 857 294 862 q 262 853 273 853 q 240 857 250 853 q 222 869 230 862 q 209 887 214 877 q 205 908 205 897 q 209 931 205 920 q 222 949 214 941 q 240 961 230 957 q 262 966 250 966 q 283 961 273 966 q 302 949 294 957 q 315 931 310 941 q 319 908 319 920 m 557 908 q 552 887 557 897 q 540 869 547 877 q 522 857 532 862 q 500 853 511 853 q 478 857 488 853 q 460 869 467 862 q 448 887 452 877 q 443 908 443 897 q 460 949 443 932 q 500 966 476 966 q 522 961 511 966 q 540 949 532 957 q 552 931 547 941 q 557 908 557 920 z "},"Ą":{"ha":819,"x_min":-36,"x_max":817,"o":"m 802 -169 q 810 -175 808 -169 l 817 -198 q 770 -225 798 -215 q 712 -235 742 -235 q 640 -212 666 -235 q 614 -149 614 -189 q 623 -103 614 -125 q 646 -63 631 -82 q 679 -28 660 -44 q 718 0 698 -12 q 703 6 708 1 q 696 18 699 10 l 626 306 l 185 306 l 45 18 q 34 5 41 10 q 17 0 26 0 l -36 0 l 455 983 l 523 983 l 772 0 q 736 -21 755 -8 q 701 -50 717 -33 q 674 -87 685 -67 q 664 -132 664 -108 q 682 -177 664 -160 q 728 -194 699 -194 q 759 -190 747 -194 q 780 -182 772 -186 q 794 -173 789 -177 q 802 -169 799 -169 m 210 356 l 614 356 l 492 856 q 486 883 489 868 q 481 914 483 898 q 467 883 474 898 q 455 856 460 867 l 210 356 z "},"ą":{"ha":677,"x_min":42,"x_max":613,"o":"m 564 -169 q 572 -175 570 -169 l 579 -198 q 532 -225 560 -215 q 474 -235 503 -235 q 402 -212 428 -235 q 376 -149 376 -189 q 385 -102 376 -124 q 410 -61 394 -80 q 445 -25 426 -42 q 485 3 465 -9 q 478 13 480 7 q 476 25 476 18 l 499 239 q 441 138 473 183 q 374 60 410 92 q 299 9 338 27 q 217 -9 259 -9 q 140 8 173 -9 q 86 56 108 25 q 53 132 64 88 q 42 232 42 176 q 57 350 42 292 q 100 460 72 408 q 167 556 128 513 q 253 632 206 600 q 353 682 300 664 q 464 700 407 700 q 542 693 506 700 q 613 667 578 685 l 532 0 l 526 0 q 494 -21 512 -8 q 461 -50 476 -33 q 436 -87 447 -67 q 426 -132 426 -108 q 443 -177 426 -160 q 490 -194 461 -194 q 521 -190 508 -194 q 542 -182 533 -186 q 556 -173 551 -177 q 564 -169 560 -169 m 238 46 q 316 68 278 46 q 390 131 355 90 q 455 229 424 172 q 510 356 486 286 l 545 637 q 456 651 504 651 q 366 635 410 651 q 284 592 322 619 q 213 526 245 564 q 157 442 181 488 q 120 346 133 397 q 108 242 108 295 q 139 98 108 149 q 238 46 171 46 z "},"Ć":{"ha":897,"x_min":91,"x_max":880,"o":"m 472 48 q 563 57 522 48 q 634 78 603 65 q 688 106 665 91 q 726 134 710 121 q 752 155 742 147 q 768 164 763 164 q 777 160 774 164 l 801 131 q 733 72 769 98 q 655 27 697 46 q 565 -1 613 9 q 461 -11 517 -11 q 308 19 376 -11 q 191 106 240 50 q 117 241 143 163 q 91 415 91 319 q 130 650 91 544 q 237 833 169 757 q 398 952 306 910 q 599 994 491 994 q 690 986 649 994 q 764 963 730 978 q 825 924 797 947 q 880 872 853 901 l 858 844 q 840 836 851 836 q 817 851 831 836 q 776 885 803 867 q 705 919 749 903 q 595 934 662 934 q 424 898 503 934 q 287 795 345 862 q 195 633 228 728 q 161 420 161 538 q 184 265 161 334 q 248 148 207 196 q 346 74 289 99 q 472 48 403 48 m 813 1229 l 611 1081 q 598 1073 603 1076 q 584 1071 592 1071 l 533 1071 l 696 1214 q 714 1226 706 1223 q 738 1229 722 1229 l 813 1229 z "},"ć":{"ha":598,"x_min":50,"x_max":582,"o":"m 553 126 q 484 59 517 85 q 419 17 451 33 q 355 -3 388 2 q 285 -9 322 -9 q 182 11 226 -9 q 108 69 138 32 q 65 156 79 106 q 50 267 50 207 q 61 375 50 322 q 94 478 73 429 q 147 567 116 526 q 215 638 177 608 q 298 685 253 668 q 394 702 343 702 q 455 695 428 702 q 506 677 483 689 q 547 647 528 665 q 582 608 566 630 l 563 585 q 548 578 556 578 q 531 589 541 578 q 504 613 521 600 q 460 637 487 626 q 392 648 433 648 q 283 617 333 648 q 195 533 233 585 q 137 411 158 480 q 116 267 116 342 q 127 178 116 219 q 160 107 138 137 q 217 60 183 77 q 297 44 251 44 q 363 52 334 44 q 415 72 392 60 q 455 98 438 83 q 485 124 472 112 q 507 143 498 135 q 524 151 517 151 q 539 144 532 151 l 553 126 l 553 126 m 565 995 l 404 819 q 378 808 394 808 l 340 808 l 460 973 q 478 990 469 985 q 502 995 486 995 l 565 995 z "},"Ę":{"ha":755,"x_min":91,"x_max":755,"o":"m 594 -169 q 603 -175 601 -169 l 610 -198 q 562 -225 590 -215 q 504 -235 534 -235 q 432 -212 458 -235 q 406 -149 406 -189 q 415 -103 406 -125 q 438 -63 424 -82 q 472 -28 453 -44 q 510 0 490 -12 l 91 0 l 212 983 l 755 983 l 747 926 l 274 926 l 225 526 l 619 526 l 611 470 l 218 470 l 167 57 l 642 57 l 635 0 l 557 0 q 525 -21 542 -8 q 492 -50 507 -33 q 467 -87 477 -67 q 456 -132 456 -108 q 474 -177 456 -160 q 521 -194 492 -194 q 551 -190 539 -194 q 573 -182 564 -186 q 586 -173 581 -177 q 594 -169 591 -169 z "},"ę":{"ha":622,"x_min":49,"x_max":582,"o":"m 402 -169 q 410 -175 408 -169 l 417 -198 q 370 -225 398 -215 q 312 -235 342 -235 q 240 -212 266 -235 q 214 -149 214 -189 q 222 -107 214 -127 q 242 -70 229 -87 q 270 -36 254 -52 q 305 -8 287 -21 q 297 -9 301 -9 q 289 -9 293 -9 q 186 10 231 -9 q 111 64 142 29 q 65 150 81 99 q 49 263 49 200 q 59 367 49 315 q 90 469 69 420 q 141 560 110 517 q 210 633 171 602 q 296 683 249 665 q 398 701 343 701 q 484 686 449 701 q 541 651 519 672 q 572 605 563 630 q 582 559 582 581 q 574 505 582 531 q 547 456 567 479 q 494 413 528 433 q 409 375 461 392 q 285 345 357 358 q 115 321 213 331 q 113 292 114 306 q 113 264 113 278 q 159 102 113 160 q 301 44 206 44 q 367 52 338 44 q 420 72 397 60 q 461 99 443 85 q 492 125 478 113 q 516 145 506 138 q 535 153 526 153 q 549 147 543 153 l 565 128 q 501 69 532 94 q 440 28 471 44 q 375 2 408 11 q 305 -8 342 -7 l 333 9 l 365 0 q 332 -21 350 -8 q 300 -50 315 -33 q 274 -87 285 -67 q 264 -132 264 -108 q 282 -177 264 -160 q 328 -194 299 -194 q 359 -190 347 -194 q 380 -182 372 -186 q 394 -173 389 -177 q 402 -169 399 -169 m 394 652 q 294 628 339 652 q 215 566 249 605 q 157 475 181 526 q 123 367 134 423 q 275 389 211 376 q 383 416 339 402 q 455 447 428 431 q 498 482 483 464 q 518 518 513 499 q 524 557 524 537 q 517 589 524 572 q 495 619 510 606 q 455 643 480 633 q 394 652 431 652 z "},"ı":{"ha":316,"x_min":83,"x_max":232,"o":"m 232 691 l 148 0 l 83 0 l 167 691 l 232 691 z "},"Ł":{"ha":682,"x_min":33,"x_max":623,"o":"m 249 501 l 530 651 l 525 608 q 521 597 524 601 q 510 588 518 592 l 242 443 l 195 59 l 623 59 l 615 0 l 119 0 l 169 409 l 33 338 l 40 383 q 44 395 41 390 q 53 403 47 399 l 177 468 l 240 983 l 309 983 l 249 501 z "},"ł":{"ha":390,"x_min":58,"x_max":394,"o":"m 58 494 q 60 507 58 502 q 70 515 63 511 l 194 573 l 247 1010 l 311 1010 l 261 600 l 394 660 l 394 626 q 392 613 394 618 q 381 604 390 608 l 254 544 l 188 0 l 124 0 l 187 518 l 58 458 l 58 494 z "},"Ń":{"ha":965,"x_min":91,"x_max":912,"o":"m 246 983 q 260 980 256 983 q 269 969 265 978 l 746 114 q 747 132 747 124 q 749 149 747 141 l 851 983 l 912 983 l 791 0 l 759 0 q 733 15 742 0 l 256 871 l 254 840 l 151 0 l 91 0 l 212 983 l 246 983 l 246 983 m 784 1229 l 582 1081 q 569 1073 574 1076 q 555 1071 563 1071 l 504 1071 l 667 1214 q 684 1226 676 1223 q 708 1229 692 1229 l 784 1229 z "},"ń":{"ha":711,"x_min":65,"x_max":632,"o":"m 65 0 l 149 693 l 178 693 q 202 668 202 693 l 182 468 q 245 566 210 523 q 317 640 279 610 q 396 686 356 670 q 477 701 436 701 q 593 651 554 701 q 632 506 632 600 q 632 491 632 499 q 630 466 631 483 q 624 417 628 449 q 615 332 621 385 q 599 197 608 278 q 576 0 590 116 l 510 0 l 563 442 q 567 502 567 474 q 540 609 567 572 q 456 646 513 646 q 377 626 417 646 q 300 570 338 606 q 231 482 263 533 q 173 365 198 430 l 131 0 l 65 0 m 593 995 l 432 819 q 406 808 422 808 l 368 808 l 488 973 q 506 990 497 985 q 530 995 514 995 l 593 995 z "},"Œ":{"ha":1422,"x_min":91,"x_max":1422,"o":"m 1422 983 l 1416 926 l 945 926 l 896 525 l 1286 525 l 1280 469 l 889 469 l 839 57 l 1309 57 l 1301 0 l 769 0 l 796 221 q 727 124 766 167 q 640 52 688 81 q 539 7 593 22 q 424 -9 484 -9 q 286 21 347 -9 q 181 106 224 51 q 114 238 138 161 q 91 409 91 315 q 126 648 91 540 q 223 832 161 756 q 367 951 284 909 q 547 994 450 994 q 657 975 607 994 q 747 923 708 957 q 815 841 787 890 q 859 733 843 793 l 890 983 l 1422 983 m 825 572 q 806 723 825 656 q 751 838 787 790 q 664 911 715 885 q 548 938 613 938 q 394 900 465 938 q 272 794 324 863 q 191 628 220 726 q 161 411 161 531 q 181 260 161 328 q 236 145 200 193 q 324 73 272 98 q 439 47 375 47 q 593 84 522 47 q 715 189 664 121 q 796 354 767 257 q 825 572 825 451 z "},"œ":{"ha":1063,"x_min":38,"x_max":1032,"o":"m 851 702 q 927 691 893 702 q 984 660 960 680 q 1020 613 1008 640 q 1032 552 1032 585 q 1024 502 1032 526 q 997 456 1017 478 q 945 414 978 433 q 863 378 913 394 q 744 348 813 361 q 585 324 676 334 q 584 308 584 316 q 584 292 584 300 q 632 108 584 172 q 765 44 681 44 q 831 52 801 44 q 884 72 860 60 q 925 99 908 85 q 957 125 943 113 q 981 145 971 138 q 999 153 991 153 q 1013 147 1007 153 l 1028 128 q 963 67 995 93 q 898 24 931 41 q 829 -1 865 7 q 753 -9 793 -9 q 614 44 669 -9 q 540 197 558 97 q 489 110 519 149 q 423 46 460 72 q 343 5 387 19 q 250 -9 299 -9 q 155 11 195 -9 q 89 65 115 31 q 50 143 63 99 q 38 235 38 187 q 64 433 38 347 q 138 580 91 520 q 248 671 185 640 q 384 702 311 702 q 518 655 467 702 q 584 526 568 607 q 692 655 624 608 q 851 702 760 702 m 266 42 q 355 59 315 42 q 425 106 394 76 q 476 176 455 136 q 512 260 498 216 q 532 352 526 305 q 538 442 538 399 q 528 527 538 489 q 499 593 519 566 q 448 636 478 621 q 377 651 418 651 q 264 622 315 651 q 177 539 213 592 q 122 409 141 485 q 102 239 102 333 q 111 166 102 201 q 139 103 119 131 q 190 58 158 75 q 266 42 221 42 m 842 653 q 749 633 792 653 q 673 576 706 613 q 618 486 640 539 q 588 367 597 433 q 785 401 709 381 q 904 445 861 421 q 962 496 947 469 q 978 550 978 523 q 970 590 978 571 q 945 623 962 608 q 903 645 928 637 q 842 653 877 653 z "},"Ś":{"ha":668,"x_min":27,"x_max":671,"o":"m 636 864 q 618 852 628 852 q 598 865 610 852 q 566 894 586 878 q 513 923 545 910 q 432 936 481 936 q 338 919 379 936 q 268 873 297 902 q 224 804 239 843 q 208 720 208 765 q 226 649 208 678 q 271 600 243 620 q 335 564 299 579 q 409 535 371 549 q 482 504 447 521 q 546 463 518 487 q 592 403 574 438 q 609 318 609 369 q 586 191 609 251 q 520 86 563 131 q 417 15 478 42 q 280 -11 356 -11 q 130 23 191 -11 q 27 117 69 58 l 50 147 q 69 157 60 157 q 84 149 76 157 q 103 128 92 140 q 130 102 115 116 q 168 75 146 88 q 220 55 190 63 q 288 47 249 47 q 394 66 347 47 q 474 121 441 86 q 525 202 508 156 q 543 303 543 249 q 526 375 543 347 q 480 424 508 404 q 416 458 452 444 q 343 486 381 472 q 269 517 306 500 q 205 558 233 533 q 160 618 177 583 q 143 706 143 654 q 163 815 143 763 q 221 907 183 867 q 314 970 259 947 q 439 994 369 994 q 563 968 510 994 q 656 892 617 942 l 636 864 m 671 1229 l 469 1081 q 456 1073 461 1076 q 442 1071 450 1071 l 391 1071 l 553 1214 q 571 1226 563 1223 q 595 1229 579 1229 l 671 1229 z "},"ś":{"ha":536,"x_min":23,"x_max":510,"o":"m 494 606 q 478 597 488 597 q 461 605 472 597 q 434 625 451 614 q 391 644 417 635 q 327 653 365 653 q 260 641 292 653 q 205 609 228 629 q 168 564 182 590 q 155 508 155 538 q 168 460 155 480 q 203 427 181 441 q 252 402 225 413 q 309 381 280 392 q 366 358 338 371 q 415 327 393 345 q 450 283 437 309 q 463 220 463 257 q 445 134 463 176 q 395 60 428 92 q 316 8 363 28 q 213 -11 270 -11 q 101 12 146 -11 q 23 73 56 35 l 39 97 q 47 105 43 102 q 58 108 51 108 q 75 97 65 108 q 104 72 85 85 q 151 47 122 58 q 222 36 179 36 q 297 50 263 36 q 355 87 331 63 q 392 141 378 110 q 405 207 405 172 q 392 258 405 238 q 357 294 378 279 q 308 319 335 309 q 251 340 280 330 q 194 362 222 350 q 145 392 167 374 q 110 434 124 409 q 97 495 97 459 q 115 573 97 535 q 163 639 132 610 q 238 684 194 667 q 332 701 281 701 q 433 683 390 701 q 510 629 476 665 l 494 606 m 507 995 l 346 819 q 320 808 335 808 l 282 808 l 402 973 q 419 990 411 985 q 444 995 428 995 l 507 995 z "},"Š":{"ha":668,"x_min":27,"x_max":656,"o":"m 636 864 q 618 852 628 852 q 598 865 610 852 q 566 894 586 878 q 513 923 545 910 q 432 936 481 936 q 338 919 379 936 q 268 873 297 902 q 224 804 239 843 q 208 720 208 765 q 226 649 208 678 q 271 600 243 620 q 335 564 299 579 q 409 535 371 549 q 482 504 447 521 q 546 463 518 487 q 592 403 574 438 q 609 318 609 369 q 586 191 609 251 q 520 86 563 131 q 417 15 478 42 q 280 -11 356 -11 q 130 23 191 -11 q 27 117 69 58 l 50 147 q 69 157 60 157 q 84 149 76 157 q 103 128 92 140 q 130 102 115 116 q 168 75 146 88 q 220 55 190 63 q 288 47 249 47 q 394 66 347 47 q 474 121 441 86 q 525 202 508 156 q 543 303 543 249 q 526 375 543 347 q 480 424 508 404 q 416 458 452 444 q 343 486 381 472 q 269 517 306 500 q 205 558 233 533 q 160 618 177 583 q 143 706 143 654 q 163 815 143 763 q 221 907 183 867 q 314 970 259 947 q 439 994 369 994 q 563 968 510 994 q 656 892 617 942 l 636 864 m 295 1209 l 344 1209 q 355 1207 349 1209 q 365 1202 361 1206 l 458 1111 q 460 1108 459 1110 q 463 1106 462 1107 q 468 1111 465 1109 l 584 1202 q 595 1207 589 1206 q 607 1209 601 1209 l 656 1209 l 489 1071 l 428 1071 l 295 1209 z "},"š":{"ha":536,"x_min":23,"x_max":527,"o":"m 494 606 q 478 597 488 597 q 461 605 472 597 q 434 625 451 614 q 391 644 417 635 q 327 653 365 653 q 260 641 292 653 q 205 609 228 629 q 168 564 182 590 q 155 508 155 538 q 168 460 155 480 q 203 427 181 441 q 252 402 225 413 q 309 381 280 392 q 366 358 338 371 q 415 327 393 345 q 450 283 437 309 q 463 220 463 257 q 445 134 463 176 q 395 60 428 92 q 316 8 363 28 q 213 -11 270 -11 q 101 12 146 -11 q 23 73 56 35 l 39 97 q 47 105 43 102 q 58 108 51 108 q 75 97 65 108 q 104 72 85 85 q 151 47 122 58 q 222 36 179 36 q 297 50 263 36 q 355 87 331 63 q 392 141 378 110 q 405 207 405 172 q 392 258 405 238 q 357 294 378 279 q 308 319 335 309 q 251 340 280 330 q 194 362 222 350 q 145 392 167 374 q 110 434 124 409 q 97 495 97 459 q 115 573 97 535 q 163 639 132 610 q 238 684 194 667 q 332 701 281 701 q 433 683 390 701 q 510 629 476 665 l 494 606 m 190 984 l 235 984 q 245 982 241 984 q 252 976 249 979 l 338 862 l 343 853 l 351 862 l 465 976 q 483 984 472 984 l 527 984 l 367 813 l 309 813 l 190 984 z "},"Ÿ":{"ha":769,"x_min":94,"x_max":832,"o":"m 427 405 l 376 0 l 308 0 l 358 406 l 94 983 l 155 983 q 170 978 165 983 q 178 965 175 973 l 386 501 q 394 478 392 490 q 399 456 397 467 q 411 478 405 467 q 425 501 417 490 l 747 965 q 758 978 752 973 q 774 983 765 983 l 832 983 l 427 405 m 418 1156 q 402 1119 418 1135 q 364 1104 385 1104 q 327 1119 343 1104 q 311 1156 311 1135 q 327 1194 311 1178 q 364 1210 343 1210 q 402 1194 385 1210 q 418 1156 418 1178 m 651 1156 q 635 1119 651 1135 q 597 1104 619 1104 q 560 1119 576 1104 q 544 1156 544 1135 q 560 1194 544 1178 q 597 1210 576 1210 q 635 1194 619 1210 q 651 1156 651 1178 z "},"Ź":{"ha":809,"x_min":31,"x_max":823,"o":"m 823 983 l 819 960 q 816 949 818 953 q 808 938 813 944 l 132 57 l 704 57 l 697 0 l 31 0 l 33 23 q 37 33 34 28 q 44 43 40 38 l 722 926 l 161 926 l 169 983 l 823 983 m 715 1229 l 513 1081 q 499 1073 505 1076 q 485 1071 494 1071 l 435 1071 l 597 1214 q 615 1226 607 1223 q 639 1229 623 1229 l 715 1229 z "},"ź":{"ha":582,"x_min":6,"x_max":575,"o":"m 571 663 q 558 637 569 649 l 92 52 l 481 52 l 474 0 l 6 0 l 9 26 q 13 39 10 32 q 22 52 17 46 l 490 639 l 105 639 l 112 691 l 575 691 l 571 663 m 519 995 l 358 819 q 333 808 348 808 l 294 808 l 415 973 q 432 990 424 985 q 456 995 440 995 l 519 995 z "},"Ż":{"ha":809,"x_min":31,"x_max":823,"o":"m 823 983 l 819 960 q 816 949 818 953 q 808 938 813 944 l 132 57 l 704 57 l 697 0 l 31 0 l 33 23 q 37 33 34 28 q 44 43 40 38 l 722 926 l 161 926 l 169 983 l 823 983 m 569 1165 q 564 1142 569 1153 q 551 1123 559 1131 q 531 1110 542 1115 q 508 1106 520 1106 q 486 1110 497 1106 q 467 1123 475 1115 q 453 1142 458 1131 q 449 1165 449 1153 q 453 1188 449 1177 q 467 1207 458 1199 q 486 1220 475 1215 q 508 1225 497 1225 q 531 1220 520 1225 q 551 1207 542 1215 q 564 1188 559 1199 q 569 1165 569 1177 z "},"ż":{"ha":582,"x_min":6,"x_max":575,"o":"m 571 663 q 558 637 569 649 l 92 52 l 481 52 l 474 0 l 6 0 l 9 26 q 13 39 10 32 q 22 52 17 46 l 490 639 l 105 639 l 112 691 l 575 691 l 571 663 m 442 939 q 436 916 442 926 q 423 897 431 905 q 403 883 414 888 q 379 878 392 878 q 356 883 367 878 q 336 897 344 888 q 323 916 328 905 q 318 939 318 926 q 323 963 318 951 q 336 983 328 974 q 356 996 344 991 q 379 1001 367 1001 q 403 996 392 1001 q 423 983 414 991 q 436 963 431 974 q 442 939 442 951 z "},"Ž":{"ha":809,"x_min":31,"x_max":823,"o":"m 823 983 l 819 960 q 816 949 818 953 q 808 938 813 944 l 132 57 l 704 57 l 697 0 l 31 0 l 33 23 q 37 33 34 28 q 44 43 40 38 l 722 926 l 161 926 l 169 983 l 823 983 m 337 1209 l 386 1209 q 397 1207 391 1209 q 406 1202 403 1206 l 499 1111 q 502 1108 501 1110 q 504 1106 503 1107 q 510 1111 506 1109 l 626 1202 q 637 1207 631 1206 q 649 1209 643 1209 l 698 1209 l 531 1071 l 470 1071 l 337 1209 z "},"ž":{"ha":582,"x_min":6,"x_max":575,"o":"m 571 663 q 558 637 569 649 l 92 52 l 481 52 l 474 0 l 6 0 l 9 26 q 13 39 10 32 q 22 52 17 46 l 490 639 l 105 639 l 112 691 l 575 691 l 571 663 m 203 984 l 248 984 q 258 982 253 984 q 265 976 262 979 l 350 862 l 356 853 l 364 862 l 477 976 q 496 984 485 984 l 540 984 l 379 813 l 322 813 l 203 984 z "},"ƒ":{"ha":806,"x_min":10,"x_max":770,"o":"m 466 554 l 333 8 q 287 -108 317 -60 q 216 -189 257 -157 q 122 -236 174 -221 q 10 -251 70 -251 l 14 -218 q 42 -197 16 -197 q 112 -185 77 -196 q 177 -150 147 -174 q 232 -86 208 -126 q 269 10 256 -47 l 402 552 l 269 559 q 253 573 253 560 q 253 578 253 574 q 256 602 253 582 l 415 602 l 447 735 q 562 932 480 869 q 770 994 644 994 l 765 960 q 739 940 763 940 q 667 929 702 940 q 602 894 633 918 q 548 830 572 869 q 510 734 524 791 l 476 602 l 724 602 l 718 554 l 466 554 z "},"ˆ":{"ha":375,"x_min":77,"x_max":413,"o":"m 413 812 l 370 812 q 353 820 360 812 l 268 934 l 263 942 l 255 934 l 141 820 q 133 814 138 817 q 122 812 128 812 l 77 812 l 238 983 l 295 983 l 413 812 z "},"ˇ":{"ha":375,"x_min":98,"x_max":435,"o":"m 98 983 l 143 983 q 153 980 149 983 q 160 975 157 978 l 245 860 l 251 852 l 259 860 l 372 975 q 391 983 380 983 l 435 983 l 274 812 l 217 812 l 98 983 z "},"ˉ":{"ha":375,"x_min":79,"x_max":434,"o":"m 84 914 l 434 914 l 428 869 l 79 869 l 84 914 z "},"˘":{"ha":375,"x_min":113,"x_max":423,"o":"m 248 811 q 185 822 211 811 q 143 850 159 832 q 120 894 127 869 q 113 948 113 919 q 115 983 113 965 l 161 983 q 159 953 159 967 q 164 914 159 932 q 180 883 169 896 q 209 863 191 870 q 253 855 226 855 q 305 865 283 855 q 342 893 327 875 q 365 933 357 910 q 376 983 373 956 l 423 983 q 407 917 419 948 q 373 862 394 885 q 321 825 352 838 q 248 811 290 811 z "},"˙":{"ha":375,"x_min":213,"x_max":336,"o":"m 336 938 q 331 914 336 925 q 317 895 326 903 q 297 882 308 887 q 274 877 286 877 q 250 882 261 877 q 231 895 239 887 q 217 914 222 903 q 213 938 213 925 q 217 961 213 950 q 231 981 222 973 q 250 994 239 990 q 274 999 261 999 q 297 994 286 999 q 317 981 308 990 q 331 961 326 973 q 336 938 336 950 z "},"˚":{"ha":375,"x_min":138,"x_max":377,"o":"m 138 904 q 147 950 138 929 q 173 986 156 971 q 211 1009 189 1001 q 257 1018 233 1018 q 303 1009 281 1018 q 341 986 325 1001 q 367 950 358 971 q 377 904 377 929 q 367 859 377 879 q 341 823 358 838 q 303 799 325 808 q 257 791 281 791 q 211 799 233 791 q 173 823 189 808 q 147 859 156 838 q 138 904 138 879 m 178 904 q 200 847 178 869 q 258 825 222 825 q 315 847 292 825 q 337 904 337 869 q 315 961 337 939 q 258 983 292 983 q 200 961 222 983 q 178 904 178 939 z "},"˛":{"ha":375,"x_min":38,"x_max":242,"o":"m 226 -169 q 235 -175 233 -169 l 242 -198 q 194 -225 222 -215 q 136 -235 166 -235 q 64 -212 90 -235 q 38 -149 38 -189 q 49 -100 38 -123 q 76 -56 59 -76 q 115 -20 93 -36 q 158 9 136 -3 l 189 0 q 157 -21 174 -8 q 124 -50 139 -33 q 99 -87 109 -67 q 88 -132 88 -108 q 106 -177 88 -160 q 153 -194 124 -194 q 183 -190 171 -194 q 205 -182 196 -186 q 218 -173 213 -177 q 226 -169 223 -169 z "},"˜":{"ha":375,"x_min":86,"x_max":432,"o":"m 328 888 q 372 907 356 888 q 392 959 388 926 l 432 959 q 420 913 429 934 q 398 875 412 891 q 365 850 384 859 q 324 841 347 841 q 286 852 303 841 q 253 878 269 864 q 223 903 238 892 q 191 915 208 915 q 148 894 165 915 q 126 843 131 874 l 86 843 q 98 890 89 868 q 122 927 108 912 q 155 952 136 943 q 195 961 173 961 q 234 950 217 961 q 267 925 251 938 q 297 900 282 911 q 328 888 311 888 z "},"˝":{"ha":375,"x_min":135,"x_max":513,"o":"m 338 994 l 190 817 q 178 808 185 810 q 164 806 172 806 l 135 806 l 253 972 q 269 989 261 983 q 293 994 277 994 l 338 994 m 513 994 l 344 817 q 317 806 333 806 l 286 806 l 423 972 q 440 988 432 983 q 464 994 448 994 l 513 994 z "},"π":{"ha":753,"x_min":-11,"x_max":773,"o":"m 773 691 l 770 666 q 762 649 769 656 q 743 642 755 642 l 634 642 l 556 0 l 491 0 l 569 642 l 274 642 l 214 149 q 164 33 204 73 q 56 -7 124 -7 q 19 -4 36 -7 q -11 9 3 -1 l -5 35 q 7 44 -1 44 q 22 43 13 44 q 46 41 31 41 q 149 150 136 41 l 209 642 l 82 642 l 85 665 q 94 682 86 674 q 115 691 101 691 l 773 691 z "},"–":{"ha":692,"x_min":99,"x_max":608,"o":"m 105 425 l 608 425 l 603 377 l 99 377 l 105 425 z "},"—":{"ha":1019,"x_min":99,"x_max":935,"o":"m 105 425 l 935 425 l 928 377 l 99 377 l 105 425 z "},"‘":{"ha":254,"x_min":142,"x_max":276,"o":"m 158 735 q 142 815 142 774 q 174 931 142 876 q 256 1033 206 987 l 272 1022 q 276 1013 276 1018 q 274 1006 276 1010 q 267 997 272 1003 q 218 922 238 963 q 198 838 198 881 q 211 776 198 805 q 213 768 213 773 q 201 753 213 757 l 158 735 z "},"’":{"ha":254,"x_min":107,"x_max":242,"o":"m 226 1024 q 242 945 242 986 q 210 828 242 884 q 128 727 178 772 l 112 738 q 107 747 107 742 q 109 753 107 750 q 117 763 111 756 q 165 838 146 797 q 185 922 185 878 q 182 953 185 938 q 172 984 179 969 q 171 992 171 987 q 183 1007 171 1002 l 226 1024 z "},"‚":{"ha":270,"x_min":9,"x_max":144,"o":"m 128 121 q 144 42 144 83 q 112 -75 144 -19 q 30 -176 80 -131 l 14 -165 q 9 -157 9 -162 q 11 -150 9 -153 q 19 -141 13 -147 q 67 -66 48 -107 q 87 19 87 -25 q 84 50 87 35 q 74 81 81 65 q 73 88 73 83 q 85 103 73 99 l 128 121 z "},"“":{"ha":427,"x_min":142,"x_max":449,"o":"m 158 735 q 142 815 142 774 q 174 931 142 876 q 256 1033 206 987 l 272 1022 q 276 1013 276 1018 q 274 1006 276 1010 q 267 997 272 1003 q 218 922 238 963 q 198 838 198 881 q 211 776 198 805 q 213 768 213 773 q 201 753 213 757 l 158 735 m 331 735 q 315 815 315 774 q 347 931 315 876 q 429 1033 379 987 l 445 1022 q 449 1013 449 1018 q 448 1006 449 1010 q 440 997 446 1003 q 392 922 412 963 q 372 838 372 881 q 385 776 372 805 q 386 768 386 773 q 374 753 386 757 l 331 735 z "},"”":{"ha":427,"x_min":117,"x_max":426,"o":"m 236 1024 q 252 945 252 986 q 220 828 252 884 q 138 727 188 772 l 122 738 q 117 747 117 742 q 119 753 117 750 q 127 763 122 756 q 176 838 156 797 q 195 922 195 878 q 192 953 195 938 q 183 984 190 969 q 181 992 181 987 q 193 1007 181 1002 l 236 1024 m 410 1024 q 426 945 426 986 q 394 828 426 884 q 312 727 362 772 l 296 738 q 291 747 291 742 q 293 753 291 750 q 301 763 295 756 q 349 838 330 797 q 369 922 369 878 q 366 953 369 938 q 356 984 363 969 q 355 992 355 987 q 367 1007 355 1002 l 410 1024 z "},"„":{"ha":427,"x_min":-33,"x_max":276,"o":"m 86 121 q 102 42 102 83 q 70 -75 102 -19 q -12 -176 38 -131 l -28 -165 q -33 -157 -33 -162 q -31 -150 -33 -153 q -23 -141 -28 -147 q 26 -66 6 -107 q 45 19 45 -25 q 42 50 45 35 q 33 81 40 65 q 31 88 31 83 q 43 103 31 99 l 86 121 m 260 121 q 276 42 276 83 q 244 -75 276 -19 q 162 -176 212 -131 l 146 -165 q 141 -157 141 -162 q 143 -150 141 -153 q 151 -141 145 -147 q 199 -66 180 -107 q 219 19 219 -25 q 216 50 219 35 q 206 81 213 65 q 205 88 205 83 q 217 103 205 99 l 260 121 z "},"†":{"ha":742,"x_min":135,"x_max":676,"o":"m 139 649 q 149 669 140 660 q 174 678 158 678 q 277 673 222 678 q 383 665 331 667 l 416 994 q 432 1000 424 998 q 451 1003 441 1003 q 469 1000 460 1003 q 483 994 477 998 l 434 665 q 543 673 487 667 q 648 678 599 678 q 669 671 662 678 q 676 653 676 663 q 675 649 676 652 q 674 627 675 645 l 429 627 l 387 274 l 332 -243 q 315 -249 324 -247 q 297 -251 306 -251 q 264 -243 277 -251 l 336 274 l 378 627 l 135 627 l 139 649 z "},"‡":{"ha":742,"x_min":71,"x_max":676,"o":"m 318 124 l 379 627 l 135 627 l 139 649 q 149 669 140 660 q 174 678 158 678 q 277 673 222 678 q 383 665 331 667 l 416 994 q 432 1000 424 998 q 451 1003 441 1003 q 469 1000 460 1003 q 483 994 477 998 l 434 665 q 543 673 487 667 q 648 678 599 678 q 669 671 662 678 q 676 653 676 663 q 675 649 676 652 q 674 627 675 645 l 430 627 l 367 124 l 611 124 l 609 102 q 599 82 608 91 q 574 72 590 72 q 470 78 525 73 q 363 85 415 84 l 332 -243 q 315 -249 324 -247 q 297 -251 306 -251 q 264 -243 277 -251 l 313 85 q 259 83 287 85 q 205 78 232 81 q 150 75 177 76 q 99 72 124 73 q 77 81 84 72 q 71 99 71 89 q 71 103 71 100 q 74 124 72 107 l 318 124 z "},"•":{"ha":806,"x_min":217,"x_max":624,"o":"m 217 414 q 233 494 217 456 q 277 559 249 531 q 341 603 305 588 q 419 619 378 619 q 499 603 462 619 q 565 559 537 588 q 608 494 592 531 q 624 414 624 456 q 608 336 624 372 q 565 272 592 299 q 499 228 537 244 q 419 212 462 212 q 341 228 378 212 q 277 272 305 244 q 233 336 249 299 q 217 414 217 372 z "},"…":{"ha":956,"x_min":40,"x_max":851,"o":"m 40 53 q 45 78 40 67 q 59 99 50 90 q 79 113 67 108 q 104 118 90 118 q 130 113 117 118 q 150 99 142 108 q 164 78 159 90 q 169 53 169 67 q 150 8 169 26 q 104 -10 131 -10 q 59 8 77 -10 q 40 53 40 26 m 381 53 q 386 78 381 67 q 400 99 391 90 q 420 113 408 108 q 445 118 431 118 q 470 113 458 118 q 491 99 482 108 q 505 78 499 90 q 510 53 510 67 q 505 28 510 40 q 491 8 499 17 q 470 -6 482 -1 q 445 -10 458 -10 q 400 8 418 -10 q 381 53 381 26 m 722 53 q 726 78 722 67 q 740 99 731 90 q 760 113 749 108 q 785 118 772 118 q 811 113 799 118 q 832 99 823 108 q 845 78 840 90 q 851 53 851 67 q 832 8 851 26 q 785 -10 813 -10 q 740 8 758 -10 q 722 53 722 26 z "},"‰":{"ha":1444,"x_min":87,"x_max":1379,"o":"m 490 790 q 471 664 490 718 q 421 574 452 610 q 349 519 390 538 q 266 501 309 501 q 200 515 231 501 q 148 553 170 528 q 114 616 126 578 q 102 703 102 654 q 120 829 102 775 q 169 920 138 883 q 240 975 199 956 q 326 993 281 993 q 392 980 362 993 q 443 941 422 967 q 478 877 465 915 q 490 790 490 840 m 439 789 q 430 861 439 831 q 405 911 421 891 q 367 940 389 931 q 321 950 346 950 q 257 936 288 950 q 203 891 226 922 q 166 815 180 861 q 153 703 153 768 q 162 632 153 662 q 186 583 171 602 q 224 554 202 563 q 271 544 246 544 q 334 558 304 544 q 388 602 365 572 q 425 678 411 632 q 439 789 439 724 m 856 970 q 867 979 861 976 q 883 983 873 983 l 928 983 l 158 12 q 133 0 147 0 l 87 0 l 856 970 m 917 276 q 898 151 917 205 q 847 61 878 97 q 776 7 816 25 q 692 -12 735 -12 q 627 1 657 -12 q 575 40 597 15 q 541 103 553 66 q 529 190 529 141 q 547 316 529 262 q 596 407 565 371 q 667 462 626 444 q 753 481 708 481 q 818 467 788 481 q 870 428 848 454 q 904 364 892 402 q 917 276 917 326 m 865 276 q 856 348 865 318 q 831 398 847 378 q 794 427 815 418 q 748 437 773 437 q 684 423 715 437 q 630 378 653 408 q 593 301 607 348 q 579 190 579 255 q 588 119 579 149 q 613 70 597 90 q 651 41 629 51 q 698 32 673 32 q 761 46 731 32 q 815 90 792 60 q 851 166 838 119 q 865 276 865 212 m 1379 276 q 1360 151 1379 205 q 1310 61 1342 97 q 1239 7 1279 25 q 1155 -12 1199 -12 q 1089 1 1119 -12 q 1038 40 1059 15 q 1004 103 1016 66 q 992 190 992 141 q 1010 316 992 262 q 1058 407 1028 371 q 1130 462 1089 444 q 1215 481 1170 481 q 1281 467 1251 481 q 1332 428 1310 454 q 1367 364 1354 402 q 1379 276 1379 326 m 1328 276 q 1319 348 1328 318 q 1294 398 1310 378 q 1257 427 1278 418 q 1210 437 1235 437 q 1147 423 1177 437 q 1093 378 1117 408 q 1057 301 1070 348 q 1043 190 1043 255 q 1052 119 1043 149 q 1077 70 1061 90 q 1114 41 1092 51 q 1160 32 1135 32 q 1224 46 1194 32 q 1277 90 1254 60 q 1314 166 1301 119 q 1328 276 1328 212 z "},"‹":{"ha":403,"x_min":101,"x_max":318,"o":"m 101 356 l 103 365 l 290 627 l 309 617 q 318 603 318 612 q 310 585 318 594 l 170 380 q 152 360 158 365 q 165 341 158 355 l 256 136 q 259 123 259 128 q 246 103 259 110 l 224 93 l 101 356 z "},"›":{"ha":403,"x_min":88,"x_max":303,"o":"m 117 93 l 98 103 q 88 118 88 109 q 94 136 88 126 l 237 341 q 253 360 245 354 q 241 380 247 365 l 149 585 q 147 596 147 590 q 160 617 147 610 l 182 627 l 303 365 l 303 356 l 117 93 z "},"⁄":{"ha":322,"x_min":-169,"x_max":528,"o":"m -103 22 q -122 4 -112 8 q -143 0 -131 0 l -169 0 l 460 958 q 501 983 476 983 l 528 983 l -103 22 z "},"€":{"ha":806,"x_min":28,"x_max":840,"o":"m 53 599 l 163 599 q 223 764 183 691 q 317 888 262 837 q 440 966 372 939 q 588 993 509 993 q 669 985 633 993 q 736 962 706 977 q 792 924 767 947 q 840 872 817 901 l 814 847 q 808 842 810 844 q 800 840 806 840 q 788 848 794 840 q 770 866 781 855 q 744 889 760 876 q 707 912 729 901 q 655 930 685 923 q 584 938 624 938 q 461 915 518 938 q 358 850 404 893 q 279 743 313 806 q 227 599 246 680 l 653 599 l 651 578 q 644 565 649 571 q 626 559 638 559 l 219 559 q 212 499 215 530 q 208 435 209 469 l 569 435 l 567 415 q 560 401 566 407 q 543 396 553 396 l 207 396 q 225 246 207 311 q 277 136 243 181 q 359 68 310 92 q 469 45 408 45 q 547 53 513 45 q 608 75 581 62 q 655 102 635 88 q 689 130 675 117 q 713 151 703 143 q 729 160 723 160 q 740 153 735 160 l 763 131 q 701 73 734 99 q 631 28 669 47 q 551 0 594 10 q 459 -10 508 -10 q 323 18 383 -10 q 223 99 264 46 q 162 227 183 151 q 141 396 141 302 l 28 396 l 33 435 l 142 435 q 146 499 143 468 q 154 559 149 530 l 49 559 l 53 599 z "},"™":{"ha":912,"x_min":119,"x_max":901,"o":"m 665 719 q 667 709 666 714 q 670 699 669 705 q 675 709 672 705 q 681 719 678 714 l 847 974 q 853 981 850 979 q 864 983 857 983 l 901 983 l 853 583 l 812 583 l 849 893 l 856 920 l 685 658 q 667 647 679 647 l 660 647 q 645 658 650 647 l 536 922 l 536 893 l 498 583 l 456 583 l 505 983 l 543 983 q 553 981 550 983 q 559 974 557 979 l 665 719 m 426 983 l 421 942 l 294 942 l 251 583 l 203 583 l 247 942 l 119 942 l 125 983 l 426 983 z "},"Ω":{"ha":964,"x_min":28,"x_max":930,"o":"m 511 0 l 542 250 q 669 297 611 266 q 770 375 728 328 q 835 488 812 423 q 859 637 859 553 q 836 767 859 710 q 772 861 813 823 q 675 918 731 899 q 555 938 619 938 q 407 912 477 938 q 282 837 336 887 q 197 712 228 787 q 165 539 165 638 q 182 432 165 479 q 230 348 199 384 q 303 288 260 312 q 399 250 347 263 l 369 0 l 49 0 q 28 22 28 0 q 28 23 28 22 q 28 27 28 24 q 29 38 28 31 q 31 60 30 46 l 322 60 l 340 215 q 241 258 286 229 q 164 327 196 286 q 113 422 131 369 q 95 540 95 476 q 133 731 95 647 q 234 874 170 815 q 383 963 299 932 q 562 994 468 994 q 709 969 641 994 q 825 899 776 945 q 902 788 874 853 q 930 640 930 722 q 904 482 930 553 q 832 357 878 411 q 725 267 787 303 q 592 215 664 231 l 573 60 l 863 60 l 860 24 q 850 8 858 15 q 831 0 842 1 l 511 0 z "},"∂":{"ha":741,"x_min":60,"x_max":710,"o":"m 322 931 q 370 960 347 948 q 416 980 393 972 q 463 991 439 988 q 513 995 486 995 q 597 977 560 995 q 659 924 634 958 q 697 838 684 889 q 710 722 710 788 q 704 626 710 677 q 650 375 688 491 q 557 174 613 259 q 428 40 501 88 q 264 -8 354 -8 q 180 7 217 -8 q 116 51 142 22 q 75 121 89 80 q 60 214 60 162 q 74 325 60 271 q 111 427 87 379 q 168 515 135 475 q 243 585 202 556 q 333 630 285 614 q 433 647 381 647 q 497 637 467 647 q 552 609 527 628 q 594 560 576 590 q 622 491 613 531 q 642 602 634 545 q 650 719 650 660 q 611 884 650 828 q 498 941 573 941 q 442 934 467 941 q 399 918 417 926 q 367 902 380 910 q 347 895 354 895 q 333 907 338 895 l 322 931 m 278 44 q 378 69 331 44 q 466 139 425 93 q 540 251 507 185 q 596 401 573 317 q 585 472 594 437 q 557 533 576 506 q 508 577 538 560 q 434 594 478 594 q 307 560 363 594 q 210 474 250 527 q 150 354 171 420 q 128 221 128 288 q 169 91 128 137 q 278 44 209 44 z "},"∆":{"ha":837,"x_min":-31,"x_max":784,"o":"m 784 0 l -31 0 l 467 983 l 528 983 l 784 0 m 69 56 l 698 56 l 499 856 q 494 880 497 867 q 488 908 491 893 q 477 880 483 893 q 465 856 471 867 l 69 56 z "},"∏":{"ha":947,"x_min":126,"x_max":972,"o":"m 972 983 l 965 927 l 819 927 l 675 -244 l 609 -244 l 752 927 l 338 927 l 194 -244 l 128 -244 l 272 927 l 126 927 l 133 983 l 972 983 z "},"∑":{"ha":872,"x_min":-10,"x_max":901,"o":"m 901 983 l 895 926 l 235 926 l 578 378 l 575 360 l 99 -187 l 758 -187 l 751 -244 l -10 -244 l -6 -219 q 4 -198 -6 -210 l 501 370 l 143 935 q 138 952 138 944 q 138 959 138 953 q 141 983 139 965 l 901 983 z "},"−":{"ha":806,"x_min":128,"x_max":708,"o":"m 133 490 l 708 490 l 702 441 l 128 441 l 133 490 z "},"√":{"ha":779,"x_min":48,"x_max":947,"o":"m 413 0 l 359 0 l 233 480 l 72 480 q 55 485 62 480 q 48 502 48 490 q 49 509 48 503 q 51 528 49 514 l 268 528 q 284 523 278 528 q 291 511 290 517 l 389 133 q 394 103 392 117 q 396 74 395 89 q 413 126 403 99 l 883 1177 q 893 1190 886 1185 q 908 1194 900 1194 l 947 1194 l 413 0 z "},"∞":{"ha":872,"x_min":53,"x_max":838,"o":"m 623 196 q 560 209 588 196 q 511 246 533 223 q 471 299 489 269 q 438 360 453 328 q 390 299 415 328 q 337 246 365 269 q 278 209 309 223 q 213 196 248 196 q 150 208 179 196 q 99 244 121 221 q 65 301 78 267 q 53 376 53 334 q 70 476 53 430 q 118 555 88 522 q 185 606 147 588 q 265 624 224 624 q 328 611 301 624 q 377 574 356 597 q 417 522 399 551 q 451 460 435 492 q 499 522 474 492 q 551 574 524 551 q 610 611 579 597 q 676 624 640 624 q 739 612 710 624 q 791 576 769 599 q 825 519 813 553 q 838 444 838 486 q 820 346 838 392 q 773 267 803 301 q 705 215 744 234 q 623 196 666 196 m 222 250 q 275 263 249 250 q 324 298 300 276 q 370 349 347 320 q 415 410 392 378 q 384 470 400 441 q 351 522 369 499 q 310 557 333 544 q 260 570 288 570 q 201 557 229 570 q 152 518 174 543 q 119 459 131 494 q 106 381 106 424 q 115 325 106 349 q 139 284 124 301 q 176 259 155 267 q 222 250 197 250 m 628 250 q 689 265 661 250 q 738 305 717 279 q 770 365 758 330 q 782 440 782 399 q 773 495 782 471 q 749 536 765 519 q 713 561 733 553 q 667 570 692 570 q 614 557 639 570 q 565 522 588 544 q 519 470 542 499 q 474 410 497 442 q 504 350 489 379 q 538 299 519 321 q 578 263 556 276 q 628 250 600 250 z "},"∫":{"ha":494,"x_min":-108,"x_max":659,"o":"m 341 754 q 380 860 356 815 q 435 934 403 905 q 503 979 466 964 q 582 994 541 994 q 625 990 607 994 q 659 977 643 986 l 652 947 q 645 938 649 940 q 632 936 641 936 q 616 936 626 936 q 593 937 607 937 q 477 891 526 937 q 404 747 428 846 l 229 9 q 186 -109 213 -60 q 127 -190 160 -158 q 53 -235 93 -221 q -31 -249 13 -249 q -73 -246 -53 -249 q -108 -233 -94 -243 l -99 -206 q -94 -199 -97 -201 q -85 -197 -91 -197 q -67 -198 -78 -197 q -38 -199 -56 -199 q 31 -188 -1 -199 q 88 -152 63 -177 q 133 -88 114 -128 q 166 8 152 -49 l 341 754 z "},"≈":{"ha":806,"x_min":140,"x_max":696,"o":"m 569 561 q 605 565 587 561 q 638 577 622 569 q 666 593 653 584 q 688 612 679 602 l 696 573 q 635 527 672 543 q 560 511 599 511 q 491 524 524 511 q 425 551 457 536 q 360 579 392 567 q 297 592 328 592 q 260 588 278 592 q 227 576 242 583 q 199 559 212 569 q 178 540 186 550 l 168 578 q 228 625 192 609 q 306 642 265 642 q 376 629 342 642 q 442 601 410 617 q 506 574 474 586 q 569 561 538 561 m 542 342 q 578 347 560 342 q 611 358 595 351 q 640 374 626 365 q 661 393 653 383 l 669 354 q 608 309 644 325 q 533 292 572 292 q 464 305 497 292 q 398 333 430 317 q 333 360 365 348 q 269 373 301 373 q 232 369 250 373 q 199 357 215 365 q 172 341 184 350 q 151 322 159 332 l 140 359 q 201 407 165 390 q 279 424 238 424 q 350 411 316 424 q 416 383 383 398 q 479 355 448 368 q 542 342 510 342 z "},"≠":{"ha":806,"x_min":111,"x_max":717,"o":"m 144 602 l 478 602 l 582 789 l 631 789 l 526 602 l 717 602 l 712 553 l 499 553 l 405 385 l 691 385 l 685 336 l 378 336 l 272 147 l 224 147 l 329 336 l 111 336 l 117 385 l 357 385 l 450 553 l 138 553 l 144 602 z "},"≤":{"ha":741,"x_min":72,"x_max":680,"o":"m 128 506 l 680 766 l 675 723 q 669 709 674 715 q 651 697 664 703 l 246 509 q 191 492 219 499 q 217 485 205 489 q 242 475 230 481 l 600 286 q 618 265 618 276 q 618 263 618 264 q 617 257 618 262 q 616 243 617 253 q 613 217 615 234 l 124 478 l 128 506 m 78 106 l 599 106 l 592 56 l 72 56 l 78 106 z "},"≥":{"ha":741,"x_min":81,"x_max":658,"o":"m 602 56 l 81 56 l 88 106 l 608 106 l 602 56 m 653 478 l 101 219 l 106 262 q 113 276 108 269 q 131 288 117 282 l 535 476 q 590 492 562 486 q 564 500 576 496 q 540 510 551 504 l 181 699 q 163 720 163 708 q 163 722 163 721 q 164 727 163 723 q 166 741 165 732 q 169 767 167 751 l 658 506 l 653 478 z "},"◊":{"ha":806,"x_min":109,"x_max":713,"o":"m 109 471 l 388 1049 l 434 1049 l 713 471 l 434 -107 l 388 -107 l 109 471 m 167 471 l 397 -5 q 406 -25 403 -15 q 411 -45 409 -35 q 417 -26 414 -35 q 426 -5 420 -16 l 657 471 l 426 947 q 417 967 420 958 q 411 987 414 977 q 405 967 408 977 q 397 947 402 958 l 167 471 z "},"♩":{"ha":0,"x_min":-82,"x_max":88,"o":"m -82 -347 l 86 1042 l 88 1042 l -81 -347 l -82 -347 z "},"ﬁ":{"ha":685,"x_min":44,"x_max":592,"o":"m 217 669 l 592 669 l 509 0 l 444 0 l 520 620 l 213 620 l 138 14 l 109 -146 q 98 -167 106 -160 q 75 -174 89 -174 l 51 -174 l 149 619 l 61 625 q 44 640 44 626 l 47 669 l 155 669 l 163 728 q 194 843 170 792 q 255 929 217 894 q 343 983 292 964 q 454 1001 393 1001 q 477 1000 465 1001 q 503 998 490 999 q 526 993 515 996 q 545 987 538 990 l 539 955 q 527 947 537 947 q 503 950 518 947 q 464 953 488 953 q 301 898 363 953 q 225 727 239 842 l 217 669 z "},"ﬂ":{"ha":726,"x_min":44,"x_max":663,"o":"m 213 621 l 138 14 l 109 -146 q 98 -167 106 -160 q 75 -174 89 -174 l 51 -174 l 149 619 l 61 625 q 44 640 44 626 l 47 669 l 155 669 l 160 715 q 191 828 168 776 q 251 918 214 881 q 338 978 288 956 q 450 999 388 999 q 542 995 498 999 q 626 990 587 990 l 663 990 l 541 0 l 476 0 l 591 942 q 522 947 558 943 q 453 951 486 951 q 366 934 405 951 q 297 888 326 918 q 248 813 267 857 q 223 715 229 769 l 217 669 l 400 669 l 394 621 l 213 621 z "}}}
